<svg width="20" height="24" viewBox="0 0 20 24" fill="none" xmlns="http://www.w3.org/2000/svg">
<path d="M0.293264 13.2921C0.386131 13.1991 0.496416 13.1253 0.617805 13.075C0.739195 13.0247 0.869312 12.9988 1.00072 12.9988C1.13213 12.9988 1.26225 13.0247 1.38363 13.075C1.50502 13.1253 1.6153 13.1991 1.70817 13.2921L9.00018 20.5856V0.999968C9.00018 0.734758 9.10553 0.480413 9.29306 0.292883C9.48058 0.105352 9.73492 0 10.0001 0C10.2653 0 10.5197 0.105352 10.7072 0.292883C10.8947 0.480413 11 0.734758 11 0.999968V20.5856L18.2921 13.2921C18.4797 13.1044 18.7342 12.999 18.9995 12.999C19.2649 12.999 19.5193 13.1044 19.707 13.2921C19.8946 13.4797 20 13.7342 20 13.9995C20 14.2649 19.8946 14.5194 19.707 14.707L10.7076 23.7067C10.6147 23.7997 10.5044 23.8735 10.383 23.9238C10.2616 23.9741 10.1315 24 10.0001 24C9.86871 24 9.73859 23.9741 9.6172 23.9238C9.49581 23.8735 9.38553 23.7997 9.29266 23.7067L0.293264 14.707C0.200294 14.6141 0.126541 14.5039 0.0762196 14.3825C0.025898 14.2611 0 14.131 0 13.9995C0 13.8681 0.025898 13.738 0.0762196 13.6166C0.126541 13.4952 0.200294 13.3849 0.293264 13.2921Z" fill="white"/>
</svg>
