<svg width="161" height="26" viewBox="0 0 161 26" fill="none" xmlns="http://www.w3.org/2000/svg">
<g id="LOGO_C" clip-path="url(#clip0_738_1484)">
<path id="Vector" d="M98.716 8.61656H95.8423C93.4658 8.61656 91.5318 10.5495 91.5318 12.9248V20.1053H88.6582V5.74438H91.5318V7.18047C92.733 6.27861 94.2245 5.74438 95.8423 5.74438H98.716V8.61656ZM71.4162 12.9248C71.4162 16.8899 68.1991 20.1053 64.232 20.1053H57.0479V5.74438H64.232C68.1991 5.74438 71.4162 8.95979 71.4162 12.9248ZM68.5425 12.9248C68.5425 10.5495 66.6085 8.61656 64.232 8.61656H59.9215V17.2331H64.232C66.6085 17.2331 68.5425 15.3001 68.5425 12.9248ZM87.2213 12.9248C87.2213 16.8899 84.0043 20.1053 80.0372 20.1053C76.0701 20.1053 72.853 16.8899 72.853 12.9248C72.853 8.95979 76.0701 5.74438 80.0372 5.74438C84.0043 5.74438 87.2213 8.95979 87.2213 12.9248ZM84.3477 12.9248C84.3477 10.5495 82.4137 8.61656 80.0372 8.61656C77.6607 8.61656 75.7267 10.5495 75.7267 12.9248C75.7267 15.3001 77.6607 17.2331 80.0372 17.2331C82.4137 17.2331 84.3477 15.3001 84.3477 12.9248ZM113.084 12.9248C113.084 16.8899 109.867 20.1053 105.9 20.1053C101.933 20.1053 98.716 16.8899 98.716 12.9248C98.716 8.95979 101.933 5.74438 105.9 5.74438C109.867 5.74438 113.084 8.95979 113.084 12.9248ZM110.211 12.9248C110.211 10.5495 108.277 8.61656 105.9 8.61656C103.524 8.61656 101.59 10.5495 101.59 12.9248C101.59 15.3001 103.524 17.2331 105.9 17.2331C108.277 17.2331 110.211 15.3001 110.211 12.9248ZM144.695 12.9248C144.695 13.416 144.644 13.8971 144.551 14.3609H133.447C134.041 16.0325 135.637 17.2331 137.51 17.2331H144.695V20.1053H137.51C133.543 20.1053 130.326 16.8899 130.326 12.9248C130.326 8.95979 133.543 5.74438 137.51 5.74438C141.478 5.74438 144.695 8.95979 144.695 12.9248ZM141.574 11.4887C140.98 9.81713 139.384 8.61656 137.51 8.61656C135.637 8.61656 134.041 9.81713 133.447 11.4887H141.574ZM157.379 14.3609H149.252C149.846 16.0325 151.442 17.2331 153.316 17.2331H160.5V20.1053H153.316C149.349 20.1053 146.132 16.8899 146.132 12.9248C146.132 8.95979 149.349 5.74438 153.316 5.74438C157.283 5.74438 160.5 8.95979 160.5 12.9248C160.5 13.416 160.45 13.8971 160.356 14.3609H157.379ZM157.379 11.4887C156.786 9.81713 155.189 8.61656 153.316 8.61656C151.442 8.61656 149.846 9.81713 149.252 11.4887H157.379ZM128.822 13.8985C128.833 13.8181 128.845 13.7362 128.852 13.6544C128.858 13.6012 128.861 13.5466 128.864 13.4935C128.869 13.426 128.875 13.36 128.879 13.2925C128.885 13.1704 128.888 13.0483 128.888 12.9248C128.888 12.4337 128.838 11.9526 128.744 11.4887H117.641C118.234 9.81713 119.83 8.61656 121.704 8.61656H128.888V5.74438H121.704C118.228 5.74438 115.33 8.21158 114.663 11.4887C114.656 11.5232 114.652 11.5591 114.645 11.595C114.629 11.6754 114.615 11.7558 114.602 11.8377C114.596 11.875 114.593 11.9138 114.587 11.9512C114.576 12.0316 114.564 12.112 114.557 12.1939C114.551 12.247 114.548 12.3016 114.544 12.3561C114.538 12.4222 114.533 12.4897 114.528 12.5557C114.523 12.6778 114.52 12.7999 114.52 12.9234C114.52 13.4145 114.57 13.8956 114.663 14.3595H125.767C125.174 16.0311 123.578 17.2317 121.704 17.2317H114.52V20.1038H121.704C125.18 20.1038 128.078 17.6366 128.744 14.3595C128.752 14.325 128.756 14.2891 128.763 14.2532C128.779 14.1728 128.793 14.0924 128.806 14.0105C128.812 13.9732 128.815 13.9344 128.821 13.8971L128.822 13.8985Z" fill="#505050"/>
<g id="Group">
<path id="Vector_2" d="M5.94984 5.44701C1.8175 9.5772 1.8175 16.2722 5.94984 20.4024C10.0822 24.5326 16.7807 24.5326 20.913 20.4024L33.3819 7.94005C36.132 5.19138 40.6063 5.19138 43.3578 7.94005C46.1079 10.6887 46.1079 15.1607 43.3578 17.9108C40.6077 20.6595 36.1334 20.6595 33.3819 17.9108L30.057 14.5877L27.5627 17.0808L30.8875 20.4039C35.0198 24.534 41.7184 24.534 45.8507 20.4039C49.983 16.2737 49.983 9.57863 45.8507 5.44844C41.7184 1.31825 35.0198 1.31825 30.8875 5.44844L18.4187 17.9108C15.6686 20.6595 11.1943 20.6595 8.44274 17.9108C5.69264 15.1621 5.69264 10.6902 8.44274 7.94005C11.1928 5.19138 15.6671 5.19138 18.4187 7.94005L21.7435 11.2632L24.2379 8.77011L20.913 5.44701C16.7807 1.31682 10.0822 1.31682 5.94984 5.44701Z" fill="url(#paint0_linear_738_1484)"/>
<path id="Vector_3" d="M47.5135 3.78564C42.4631 -1.26221 34.276 -1.26221 29.2255 3.78564L25.0688 7.94024L20.912 12.0948L16.7553 16.2494C14.9219 18.0819 11.939 18.0819 10.1056 16.2494C8.27219 14.417 8.27219 11.4357 10.1056 9.60323C11.939 7.77079 14.9219 7.77079 16.7553 9.60323L20.0801 12.9263L20.912 12.0948L17.5872 8.77174C15.2911 6.47687 11.5697 6.47687 9.2751 8.77174C6.97904 11.0666 6.97904 14.7861 9.2751 17.0795C11.5712 19.3744 15.2926 19.3744 17.5872 17.0795L30.056 4.61714C34.641 0.0345816 42.0996 0.0345816 46.6831 4.61714C51.2665 9.19826 51.2665 16.653 46.6831 21.2341C42.0996 25.8152 34.641 25.8152 30.0575 21.2341L26.7326 17.911L30.8894 13.7564L34.2142 17.0795C36.5103 19.3744 40.2317 19.3744 42.5263 17.0795C44.8223 14.7846 44.8223 11.0652 42.5263 8.77174C40.2302 6.47687 36.5088 6.47687 34.2142 8.77174L21.7454 21.2341C17.1619 25.8152 9.70328 25.8152 5.11978 21.2341C0.534844 16.6516 0.534844 9.19826 5.11978 4.61714C9.70328 0.0345816 17.1604 0.0345816 21.7439 4.61714L25.0688 7.94024L25.9007 7.10875L22.5759 3.78564C17.5254 -1.26221 9.33832 -1.26221 4.28785 3.78564C-0.762617 8.83349 -0.762617 17.0163 4.28785 22.0642C9.33832 27.112 17.5254 27.112 22.5759 22.0642L26.4726 18.1695L25.9007 18.7411L29.2255 22.0642C34.276 27.112 42.4631 27.112 47.5135 22.0642C52.564 17.0163 52.564 8.83349 47.5135 3.78564ZM35.0447 9.6018C36.8781 7.76935 39.861 7.76935 41.6944 9.6018C43.5278 11.4342 43.5278 14.4156 41.6944 16.248C39.861 18.0805 36.8781 18.0805 35.0447 16.248L31.7199 12.9249L31.4828 13.1619L35.0447 9.6018Z" fill="url(#paint1_linear_738_1484)"/>
</g>
</g>
<defs>
<linearGradient id="paint0_linear_738_1484" x1="2.85059" y1="12.9247" x2="48.9499" y2="12.9247" gradientUnits="userSpaceOnUse">
<stop stop-color="#32B8DF"/>
<stop offset="1" stop-color="#4EBD88"/>
</linearGradient>
<linearGradient id="paint1_linear_738_1484" x1="0.500359" y1="12.9249" x2="51.301" y2="12.9249" gradientUnits="userSpaceOnUse">
<stop stop-color="#32B8DF"/>
<stop offset="1" stop-color="#4EBD88"/>
</linearGradient>
<clipPath id="clip0_738_1484">
<rect width="160" height="25.8496" fill="white" transform="translate(0.5)"/>
</clipPath>
</defs>
</svg>
