<svg width="18" height="18" viewBox="0 0 18 18" fill="none" xmlns="http://www.w3.org/2000/svg">
<path d="M17.5012 14.6487H16.2628C16.1661 14.6487 16.0855 14.7292 16.0855 14.8259V16.2485H1.5906V1.75124H16.0878V3.17381C16.0878 3.27048 16.1684 3.35105 16.2651 3.35105H17.5035C17.6002 3.35105 17.6807 3.27279 17.6807 3.17381V0.867322C17.6807 0.476002 17.3654 0.160645 16.9741 0.160645H0.706677C0.315358 0.160645 0 0.476002 0 0.867322V17.1324C0 17.5237 0.315358 17.8391 0.706677 17.8391H16.9718C17.3631 17.8391 17.6784 17.5237 17.6784 17.1324V14.8259C17.6784 14.7269 17.5979 14.6487 17.5012 14.6487ZM17.9293 8.85485L14.663 6.27674C14.541 6.18006 14.3637 6.26753 14.3637 6.42176V8.17119H7.13583C7.03455 8.17119 6.95168 8.25406 6.95168 8.35534V9.64439C6.95168 9.74567 7.03455 9.82854 7.13583 9.82854H14.3637V11.578C14.3637 11.7322 14.5433 11.8197 14.663 11.723L17.9293 9.14488C17.9514 9.12766 17.9692 9.10565 17.9814 9.08052C17.9936 9.0554 18 9.02781 18 8.99986C18 8.97192 17.9936 8.94433 17.9814 8.91921C17.9692 8.89408 17.9514 8.87207 17.9293 8.85485Z" fill="#444951"/>
</svg>
