<svg width="24" height="24" viewBox="0 0 24 24" fill="none" xmlns="http://www.w3.org/2000/svg">
<path d="M15.7176 8.17516V3.5C15.7176 3.22386 15.4937 3 15.2176 3H3.94995C3.67381 3 3.44995 3.22386 3.44995 3.5V15.2196C3.44995 15.4957 3.67381 15.7196 3.94995 15.7196H8.18234V20.3947C8.18234 20.6709 8.40619 20.8947 8.68234 20.8947H19.95C20.2261 20.8947 20.45 20.6709 20.45 20.3947V8.67516C20.45 8.39902 20.2261 8.17516 19.95 8.17516H15.7176ZM4.83066 14.288V4.43158H14.3369V8.17516H8.18234V14.288H4.83066ZM19.0692 19.4632H9.56305V15.7196H15.7141V9.60674H19.0658V19.4632H19.0692Z" fill="#344054"/>
</svg>
