<svg width="18" height="16" viewBox="0 0 18 16" fill="none" xmlns="http://www.w3.org/2000/svg">
<path d="M11.1457 10.1452H14.0069L16.1528 15.1523H1.8468L3.9927 10.1452H6.8539M9.7151 5.13815C9.7151 5.32786 9.63973 5.5098 9.50559 5.64394C9.37145 5.77809 9.18951 5.85345 8.9998 5.85345C8.81009 5.85345 8.62815 5.77809 8.494 5.64394C8.35986 5.5098 8.2845 5.32786 8.2845 5.13815C8.2845 4.94844 8.35986 4.7665 8.494 4.63236C8.62815 4.49821 8.81009 4.42285 8.9998 4.42285C9.18951 4.42285 9.37145 4.49821 9.50559 4.63236C9.63973 4.7665 9.7151 4.94844 9.7151 5.13815ZM4.708 5.13815C4.708 8.71465 8.9998 12.2911 8.9998 12.2911C8.9998 12.2911 13.2916 8.71465 13.2916 5.13815C13.2916 2.69397 11.3703 0.846352 8.9998 0.846352C6.62929 0.846352 4.708 2.69397 4.708 5.13815Z" stroke="url(#paint0_linear_1590_7551)" stroke-width="1.2"/>
<defs>
<linearGradient id="paint0_linear_1590_7551" x1="8.9998" y1="0.846352" x2="8.9998" y2="15.1523" gradientUnits="userSpaceOnUse">
<stop stop-color="white"/>
<stop offset="0.975" stop-color="#00FF85"/>
</linearGradient>
</defs>
</svg>
