<svg width="24" height="24" viewBox="0 0 24 24" fill="none" xmlns="http://www.w3.org/2000/svg">
<g clip-path="url(#clip0_74_21208)">
<path d="M22.0001 22H2.66675V2H22.0001V22ZM3.16735 21.4966H21.4995V2.5034H3.16735V21.4966Z" fill="#344054"/>
</g>
<g clip-path="url(#clip1_74_21208)">
<g clip-path="url(#clip2_74_21208)">
<path d="M22.0001 22H2.66675V2H22.0001V22ZM3.16735 21.4966H21.4995V2.5034H3.16735V21.4966Z" fill="#344054"/>
<path d="M6.14053 18.4183V5.58193H18.5263V18.4183H6.14053Z" fill="#DFE2E7" stroke="#344054" stroke-width="0.7"/>
<path d="M6.90713 18.7683C6.90713 19.3906 6.40588 19.8926 5.79048 19.8926C5.17508 19.8926 4.67383 19.3906 4.67383 18.7683C4.67383 18.1461 5.17508 17.644 5.79048 17.644C6.40588 17.644 6.90713 18.1461 6.90713 18.7683Z" fill="white" stroke="#344054" stroke-width="0.5"/>
<path d="M6.90713 5.2317C6.90713 5.85393 6.40588 6.35597 5.79048 6.35597C5.17508 6.35597 4.67383 5.85393 4.67383 5.2317C4.67383 4.60946 5.17508 4.10742 5.79048 4.10742C6.40588 4.10742 6.90713 4.60946 6.90713 5.2317Z" fill="white" stroke="#344054" stroke-width="0.5"/>
<path d="M19.9931 18.7683C19.9931 19.3906 19.4918 19.8926 18.8764 19.8926C18.261 19.8926 17.7598 19.3906 17.7598 18.7683C17.7598 18.1461 18.261 17.644 18.8764 17.644C19.4918 17.644 19.9931 18.1461 19.9931 18.7683Z" fill="white" stroke="#344054" stroke-width="0.5"/>
<path d="M19.9931 5.2317C19.9931 5.85393 19.4918 6.35597 18.8764 6.35597C18.261 6.35597 17.7598 5.85393 17.7598 5.2317C17.7598 4.60946 18.261 4.10742 18.8764 4.10742C19.4918 4.10742 19.9931 4.60946 19.9931 5.2317Z" fill="white" stroke="#344054" stroke-width="0.5"/>
</g>
</g>
<defs>
<clipPath id="clip0_74_21208">
<rect width="19.3333" height="20" fill="white" transform="translate(2.66675 2)"/>
</clipPath>
<clipPath id="clip1_74_21208">
<rect width="19.3333" height="20" fill="white" transform="translate(2.66675 2)"/>
</clipPath>
<clipPath id="clip2_74_21208">
<rect width="19.3333" height="20" fill="white" transform="translate(2.66675 2)"/>
</clipPath>
</defs>
</svg>
