<svg width="24" height="24" viewBox="0 0 24 24" fill="none" xmlns="http://www.w3.org/2000/svg">
<g clip-path="url(#clip0_74_19317)">
<path d="M22.0001 22H2.66675V2H22.0001V22ZM3.16735 21.4966H21.4995V2.5034H3.16735V21.4966Z" fill="#344054"/>
<path d="M7.39859 18.5892L5 6.5014L5.17284 6.46665C11.8395 5.18071 18.3298 9.47992 19.6314 16.0521L19.6667 16.2224L7.39859 18.5858V18.5892ZM5.4127 6.77597L7.67725 18.1791L19.2504 15.9478C17.9206 9.71973 11.7725 5.64295 5.4127 6.77597Z" fill="#344054"/>
<path d="M7.56794 19.3332C8.09977 19.3332 8.53091 18.9084 8.53091 18.3844C8.53091 17.8603 8.09977 17.4355 7.56794 17.4355C7.03611 17.4355 6.60498 17.8603 6.60498 18.3844C6.60498 18.9084 7.03611 19.3332 7.56794 19.3332Z" fill="#BA003E"/>
<path d="M16.5979 8.48182C17.4804 8.48182 18.1958 7.77694 18.1958 6.90742C18.1958 6.03789 17.4804 5.33301 16.5979 5.33301C15.7154 5.33301 15 6.03789 15 6.90742C15 7.77694 15.7154 8.48182 16.5979 8.48182Z" fill="#BA003E" stroke="#344054" stroke-width="0.5" stroke-miterlimit="10"/>
<path d="M10.9541 4.6665V11.7496H8.60494L6.64374 6.36951V11.7531H5V4.6665H7.21869L9.28571 10.057V4.6665H10.9541Z" fill="#344054"/>
</g>
<defs>
<clipPath id="clip0_74_19317">
<rect width="19.3333" height="20" fill="white" transform="translate(2.66675 2)"/>
</clipPath>
</defs>
</svg>
