<svg width="20" height="20" viewBox="0 0 20 20" fill="none" xmlns="http://www.w3.org/2000/svg">
<g clip-path="url(#clip0_1138_2247)">
<path d="M9.30789 17.5228V10.3921L3.07722 6.79216V13.9228L9.30789 17.5228ZM10.6925 17.5228L16.9232 13.9228V6.76909L10.6925 10.3884V17.5228ZM10.0002 9.2152L16.1386 5.63834L10.0002 2.08455L3.83875 5.63834L10.0002 9.2152ZM2.38492 15.1228C2.1657 14.9932 1.99551 14.8223 1.87435 14.6102C1.7532 14.3981 1.69263 14.169 1.69263 13.9228V6.07679C1.69263 5.83064 1.7532 5.60151 1.87435 5.38941C1.99551 5.1773 2.1657 5.00644 2.38492 4.87681L9.30789 0.884564C9.52832 0.761489 9.76035 0.699951 10.004 0.699951C10.2476 0.699951 10.4771 0.761489 10.6925 0.884564L17.6155 4.87681C17.8347 5.00644 18.0049 5.1773 18.126 5.38941C18.2472 5.60151 18.3078 5.83064 18.3078 6.07679V13.9228C18.3078 14.169 18.2472 14.3981 18.126 14.6102C18.0049 14.8223 17.8347 14.9932 17.6155 15.1228L10.6925 19.115C10.4721 19.2381 10.24 19.2997 9.99641 19.2997C9.75278 19.2997 9.52327 19.2381 9.30789 19.115L2.38492 15.1228Z" fill="#8992A1"/>
</g>
<defs>
<clipPath id="clip0_1138_2247">
<rect width="18.6667" height="18.6667" fill="white" transform="translate(0.666748 0.666748)"/>
</clipPath>
</defs>
</svg>
