<svg width="16" height="18" viewBox="0 0 16 18" fill="none" xmlns="http://www.w3.org/2000/svg">
<path d="M14.6667 8.00252H13.2501V3.33586C13.2501 1.86294 12.0563 0.669189 10.5834 0.669189H5.41675C3.94383 0.669189 2.75008 1.86294 2.75008 3.33586V8.00252H1.33341C0.964665 8.00252 0.666748 8.30044 0.666748 8.66919V16.6692C0.666748 17.0379 0.964665 17.3359 1.33341 17.3359H14.6667C15.0355 17.3359 15.3334 17.0379 15.3334 16.6692V8.66919C15.3334 8.30044 15.0355 8.00252 14.6667 8.00252ZM4.25008 3.33586C4.25008 2.69211 4.773 2.16919 5.41675 2.16919H10.5834C11.2272 2.16919 11.7501 2.69211 11.7501 3.33586V8.00252H4.25008V3.33586ZM13.8334 15.8359H2.16675V9.50252H13.8334V15.8359ZM7.41675 12.94V14.0442C7.41675 14.1359 7.49175 14.2109 7.58342 14.2109H8.41675C8.50841 14.2109 8.58342 14.1359 8.58342 14.0442V12.94C8.75539 12.8166 8.88375 12.6417 8.95002 12.4406C9.01629 12.2396 9.01706 12.0227 8.9522 11.8211C8.88735 11.6196 8.76023 11.4439 8.58913 11.3192C8.41803 11.1945 8.21179 11.1273 8.00008 11.1273C7.78838 11.1273 7.58213 11.1945 7.41103 11.3192C7.23994 11.4439 7.11281 11.6196 7.04796 11.8211C6.98311 12.0227 6.98387 12.2396 7.05014 12.4406C7.11642 12.6417 7.24478 12.8166 7.41675 12.94Z" fill="#8992A1"/>
</svg>
