<svg width="24" height="24" viewBox="0 0 24 24" fill="none" xmlns="http://www.w3.org/2000/svg">
<path d="M8.598 9.61629C8.65787 9.676 8.70537 9.74694 8.73777 9.82504C8.77018 9.90314 8.78686 9.98687 8.78686 10.0714C8.78686 10.156 8.77018 10.2397 8.73777 10.3178C8.70537 10.3959 8.65787 10.4669 8.598 10.5266L7.76614 11.3571H16.2339L15.402 10.5266C15.2813 10.4059 15.2135 10.2421 15.2135 10.0714C15.2135 9.90072 15.2813 9.737 15.402 9.61629C15.5227 9.49557 15.6864 9.42776 15.8571 9.42776C16.0279 9.42776 16.1916 9.49557 16.3123 9.61629L18.2409 11.5449C18.3007 11.6046 18.3482 11.6755 18.3806 11.7536C18.413 11.8317 18.4297 11.9154 18.4297 12C18.4297 12.0846 18.413 12.1683 18.3806 12.2464C18.3482 12.3245 18.3007 12.3954 18.2409 12.4551L16.3123 14.3837C16.1916 14.5044 16.0279 14.5722 15.8571 14.5722C15.6864 14.5722 15.5227 14.5044 15.402 14.3837C15.2813 14.263 15.2135 14.0993 15.2135 13.9286C15.2135 13.7579 15.2813 13.5941 15.402 13.4734L16.2339 12.6429H7.76614L8.598 13.4734C8.71871 13.5941 8.78653 13.7579 8.78653 13.9286C8.78653 14.0993 8.71871 14.263 8.598 14.3837C8.47729 14.5044 8.31357 14.5722 8.14286 14.5722C7.97215 14.5722 7.80843 14.5044 7.68771 14.3837L5.75914 12.4551C5.69928 12.3954 5.65178 12.3245 5.61937 12.2464C5.58696 12.1683 5.57028 12.0846 5.57028 12C5.57028 11.9154 5.58696 11.8317 5.61937 11.7536C5.65178 11.6755 5.69928 11.6046 5.75914 11.5449L7.68771 9.61629C7.74743 9.55642 7.81837 9.50892 7.89647 9.47651C7.97457 9.4441 8.0583 9.42742 8.14286 9.42742C8.22742 9.42742 8.31114 9.4441 8.38924 9.47651C8.46734 9.50892 8.53828 9.55642 8.598 9.61629ZM21 6.85714C21 5.83417 20.5936 4.85309 19.8703 4.12973C19.1469 3.40638 18.1658 3 17.1429 3H6.85714C5.83417 3 4.85309 3.40638 4.12973 4.12973C3.40638 4.85309 3 5.83417 3 6.85714V17.1429C3 18.1658 3.40638 19.1469 4.12973 19.8703C4.85309 20.5936 5.83417 21 6.85714 21H17.1429C18.1658 21 19.1469 20.5936 19.8703 19.8703C20.5936 19.1469 21 18.1658 21 17.1429V6.85714ZM15.8571 4.28571V8.14286C16.3174 8.14286 16.7777 8.30614 17.1429 8.634V4.28571C17.8248 4.28571 18.4789 4.55663 18.9611 5.03887C19.4434 5.5211 19.7143 6.17516 19.7143 6.85714V17.1429C19.7143 17.8248 19.4434 18.4789 18.9611 18.9611C18.4789 19.4434 17.8248 19.7143 17.1429 19.7143V15.366C16.7896 15.6828 16.3316 15.8577 15.8571 15.8571V19.7143H8.14286V15.8571C7.68257 15.8571 7.22229 15.6939 6.85714 15.366V19.7143C6.17516 19.7143 5.5211 19.4434 5.03887 18.9611C4.55663 18.4789 4.28571 17.8248 4.28571 17.1429V6.85714C4.28571 6.17516 4.55663 5.5211 5.03887 5.03887C5.5211 4.55663 6.17516 4.28571 6.85714 4.28571V8.634C7.2104 8.3172 7.66835 8.14226 8.14286 8.14286V4.28571H15.8571Z" fill="#344054"/>
</svg>
