<svg width="24" height="24" viewBox="0 0 24 24" fill="none" xmlns="http://www.w3.org/2000/svg">
<path d="M19 11H5C3.89543 11 3 11.8954 3 13V20C3 21.1046 3.89543 22 5 22H19C20.1046 22 21 21.1046 21 20V13C21 11.8954 20.1046 11 19 11Z" stroke="#02373E" stroke-width="1.5" stroke-linecap="round" stroke-linejoin="round"/>
<path d="M7 11V7C7 5.67392 7.52678 4.40215 8.46447 3.46447C9.40215 2.52678 10.6739 2 12 2C13.3261 2 14.5979 2.52678 15.5355 3.46447C16.4732 4.40215 17 5.67392 17 7V11" stroke="#02373E" stroke-width="1.5" stroke-linecap="round" stroke-linejoin="round"/>
<path d="M11.4166 17.8751V16.7709C11.2447 16.6475 11.1163 16.4726 11.05 16.2715C10.9838 16.0705 10.983 15.8536 11.0478 15.652C11.1127 15.4505 11.2398 15.2748 11.4109 15.1501C11.582 15.0254 11.7883 14.9582 12 14.9582C12.2117 14.9582 12.4179 15.0254 12.589 15.1501C12.7601 15.2748 12.8872 15.4505 12.9521 15.652C13.0169 15.8536 13.0162 16.0705 12.9499 16.2715C12.8836 16.4726 12.7553 16.6475 12.5833 16.7709V17.8751C12.5833 17.9668 12.5083 18.0418 12.4166 18.0418H11.5833C11.4916 18.0418 11.4166 17.9668 11.4166 17.8751Z" fill="#02373E"/>
</svg>
