<svg width="24" height="24" viewBox="0 0 24 24" fill="none" xmlns="http://www.w3.org/2000/svg">
<g clip-path="url(#clip0_74_19158)">
<path d="M21.6666 22H2.33325V2H21.6666V22ZM2.83386 21.4966H21.166V2.5034H2.83386V21.4966Z" fill="#344054"/>
<path d="M5.80703 18.4183V5.58193H18.1928V18.4183H5.80703Z" fill="#6FAEFF" fill-opacity="0.3" stroke="#344054" stroke-width="0.7"/>
<path d="M5.45698 20.1426C6.21176 20.1426 6.82363 19.5273 6.82363 18.7683C6.82363 18.0093 6.21176 17.394 5.45698 17.394C4.7022 17.394 4.09033 18.0093 4.09033 18.7683C4.09033 19.5273 4.7022 20.1426 5.45698 20.1426Z" fill="#BA003E"/>
<path d="M5.45698 6.60597C6.21176 6.60597 6.82363 5.99069 6.82363 5.2317C6.82363 4.47271 6.21176 3.85742 5.45698 3.85742C4.7022 3.85742 4.09033 4.47271 4.09033 5.2317C4.09033 5.99069 4.7022 6.60597 5.45698 6.60597Z" fill="#BA003E"/>
<path d="M18.5429 20.1426C19.2977 20.1426 19.9096 19.5273 19.9096 18.7683C19.9096 18.0093 19.2977 17.394 18.5429 17.394C17.7881 17.394 17.1763 18.0093 17.1763 18.7683C17.1763 19.5273 17.7881 20.1426 18.5429 20.1426Z" fill="#BA003E"/>
<path d="M18.5429 6.60597C19.2977 6.60597 19.9096 5.99069 19.9096 5.2317C19.9096 4.47271 19.2977 3.85742 18.5429 3.85742C17.7881 3.85742 17.1763 4.47271 17.1763 5.2317C17.1763 5.99069 17.7881 6.60597 18.5429 6.60597Z" fill="#BA003E"/>
</g>
<defs>
<clipPath id="clip0_74_19158">
<rect width="19.3333" height="20" fill="white" transform="translate(2.33325 2)"/>
</clipPath>
</defs>
</svg>
