<svg width="24" height="24" viewBox="0 0 24 24" fill="none" xmlns="http://www.w3.org/2000/svg">
<path d="M20.2954 14.2879L18.9795 13.1629C19.0417 12.7811 19.0739 12.3914 19.0739 12.0016C19.0739 11.6119 19.0417 11.2221 18.9795 10.8404L20.2954 9.71531C20.3947 9.63034 20.4657 9.51717 20.4991 9.39084C20.5324 9.26452 20.5266 9.13103 20.4822 9.00812L20.4642 8.95588C20.1019 7.94336 19.5594 7.00475 18.8629 6.18538L18.8268 6.14319C18.7423 6.04384 18.6297 5.97243 18.5038 5.93836C18.3779 5.90429 18.2446 5.90916 18.1216 5.95233L16.4882 6.53295C15.8855 6.03872 15.2125 5.64896 14.4852 5.37572L14.1697 3.66802C14.146 3.53952 14.0836 3.42131 13.991 3.32908C13.8984 3.23686 13.78 3.17498 13.6514 3.15168L13.5972 3.14164C12.5504 2.95279 11.4495 2.95279 10.4027 3.14164L10.3485 3.15168C10.2199 3.17498 10.1015 3.23686 10.0089 3.32908C9.91629 3.42131 9.85396 3.53952 9.83016 3.66802L9.51273 5.38376C8.79125 5.65705 8.11937 6.0466 7.52375 6.53696L5.87832 5.95233C5.7553 5.90881 5.62195 5.90377 5.49599 5.93786C5.37003 5.97195 5.25742 6.04357 5.17314 6.14319L5.13698 6.18538C4.44133 7.00533 3.89894 7.94379 3.53575 8.95588L3.51767 9.00812C3.42726 9.25925 3.5016 9.54052 3.70451 9.71531L5.03652 10.8524C4.97424 11.2301 4.94411 11.6159 4.94411 11.9996C4.94411 12.3854 4.97424 12.7711 5.03652 13.1468L3.70451 14.2839C3.60526 14.3689 3.53422 14.4821 3.50084 14.6084C3.46746 14.7347 3.47333 14.8682 3.51767 14.9911L3.53575 15.0434C3.89939 16.0559 4.43782 16.9901 5.13698 17.8139L5.17314 17.8561C5.25763 17.9554 5.37024 18.0268 5.49612 18.0609C5.62201 18.095 5.75526 18.0901 5.87832 18.0469L7.52375 17.4623C8.12245 17.9545 8.79147 18.3443 9.51273 18.6155L9.83016 20.3312C9.85396 20.4597 9.91629 20.5779 10.0089 20.6702C10.1015 20.7624 10.2199 20.8243 10.3485 20.8476L10.4027 20.8576C11.4591 21.0475 12.5408 21.0475 13.5972 20.8576L13.6514 20.8476C13.78 20.8243 13.8984 20.7624 13.991 20.6702C14.0836 20.5779 14.146 20.4597 14.1697 20.3312L14.4852 18.6235C15.2122 18.351 15.889 17.96 16.4882 17.4663L18.1216 18.0469C18.2446 18.0904 18.378 18.0955 18.5039 18.0614C18.6299 18.0273 18.7425 17.9557 18.8268 17.8561L18.8629 17.8139C19.5621 16.9881 20.1005 16.0559 20.4642 15.0434L20.4822 14.9911C20.5726 14.744 20.4983 14.4627 20.2954 14.2879ZM17.553 11.0775C17.6032 11.3808 17.6294 11.6922 17.6294 12.0036C17.6294 12.315 17.6032 12.6264 17.553 12.9298L17.4204 13.7355L18.9212 15.0192C18.6937 15.5434 18.4065 16.0396 18.0653 16.4979L16.2009 15.8369L15.5701 16.3553C15.0899 16.7491 14.5555 17.0585 13.9769 17.2754L13.2114 17.5627L12.8518 19.5115C12.2844 19.5758 11.7115 19.5758 11.1441 19.5115L10.7845 17.5587L10.025 17.2674C9.45246 17.0504 8.92005 16.741 8.4439 16.3493L7.81306 15.8289L5.93659 16.4959C5.59505 16.0358 5.30976 15.5396 5.08072 15.0172L6.59757 13.7214L6.46698 12.9178C6.41876 12.6184 6.39265 12.309 6.39265 12.0036C6.39265 11.6963 6.41675 11.3889 6.46698 11.0895L6.59757 10.2859L5.08072 8.99004C5.30775 8.46567 5.59505 7.97144 5.93659 7.51136L7.81306 8.17837L8.4439 7.65802C8.92005 7.26626 9.45246 6.95686 10.025 6.73988L10.7865 6.45258L11.1461 4.49977C11.7106 4.43548 12.2873 4.43548 12.8538 4.49977L13.2134 6.44857L13.9789 6.73586C14.5555 6.95284 15.0919 7.26224 15.5721 7.65602L16.2029 8.17435L18.0673 7.51337C18.4089 7.97345 18.6942 8.46969 18.9232 8.99205L17.4224 10.2758L17.553 11.0775ZM12.002 8.26677C10.0491 8.26677 8.466 9.84992 8.466 11.8027C8.466 13.7555 10.0491 15.3387 12.002 15.3387C13.9548 15.3387 15.5379 13.7555 15.5379 11.8027C15.5379 9.84992 13.9548 8.26677 12.002 8.26677ZM13.5931 13.3939C13.3844 13.6032 13.1364 13.7692 12.8633 13.8823C12.5903 13.9954 12.2975 14.0533 12.002 14.0529C11.4013 14.0529 10.8367 13.8178 10.4108 13.3939C10.2015 13.1852 10.0355 12.9372 9.92242 12.6641C9.80933 12.391 9.75135 12.0983 9.75181 11.8027C9.75181 11.202 9.98687 10.6375 10.4108 10.2115C10.8367 9.78563 11.4013 9.55258 12.002 9.55258C12.6027 9.55258 13.1672 9.78563 13.5931 10.2115C13.8024 10.4202 13.9684 10.6683 14.0815 10.9413C14.1946 11.2144 14.2526 11.5072 14.2521 11.8027C14.2521 12.4034 14.0171 12.968 13.5931 13.3939Z" fill="#344054"/>
</svg>
