<svg width="24" height="24" viewBox="0 0 24 24" fill="none" xmlns="http://www.w3.org/2000/svg">
<g clip-path="url(#clip0_74_19165)">
<path d="M22.0001 22H2.66675V2H22.0001V22ZM3.16735 21.4966H21.4995V2.5034H3.16735V21.4966Z" fill="#344054"/>
<path d="M6.62178 7.98389L15.1871 9.5053L14.7443 17.8491L6.17896 16.3487L6.62178 7.98389Z" fill="#EBEEF1"/>
<path d="M14.8898 18.0259L6.01782 16.4715L6.47613 7.80127L15.3481 9.37659L14.8867 18.0229L14.8898 18.0259ZM6.34297 16.2259L14.6018 17.6725L15.0291 9.62816L6.76721 8.16066L6.33987 16.2259H6.34297Z" fill="#344054"/>
<path d="M18.488 7.67529L18.1102 15.9862L14.7441 17.849L15.187 9.50518L18.488 7.67529Z" fill="#98A2B3"/>
<path d="M14.5737 18.1154L15.0382 9.41522L18.6551 7.41162L18.2619 16.0759L14.5737 18.1154ZM15.3386 9.59191L14.9144 17.5823L17.9615 15.8962L18.3207 7.94172L15.3386 9.59491V9.59191Z" fill="#344054"/>
<path d="M6.62158 7.98376L15.1869 9.55908L18.488 7.67529L9.97217 6.15088L6.62158 7.98376Z" fill="white"/>
<path d="M15.2148 9.71785L6.17871 8.05268L9.94425 5.99219L18.9215 7.60045L15.2148 9.71486V9.71785ZM7.06436 7.91192L15.159 9.40039L18.0513 7.7502L9.99999 6.30665L7.06436 7.90893V7.91192Z" fill="#344054"/>
<path d="M6.62151 8.80124C7.08841 8.80124 7.4669 8.43518 7.4669 7.98363C7.4669 7.53207 7.08841 7.16602 6.62151 7.16602C6.15462 7.16602 5.77612 7.53207 5.77612 7.98363C5.77612 8.43518 6.15462 8.80124 6.62151 8.80124Z" fill="#CC2140"/>
<path d="M9.95989 6.96872C10.4268 6.96872 10.8053 6.60266 10.8053 6.15111C10.8053 5.69955 10.4268 5.3335 9.95989 5.3335C9.49299 5.3335 9.1145 5.69955 9.1145 6.15111C9.1145 6.60266 9.49299 6.96872 9.95989 6.96872Z" fill="#CC2140"/>
<path d="M18.488 8.67282C18.9549 8.67282 19.3334 8.30676 19.3334 7.85521C19.3334 7.40365 18.9549 7.0376 18.488 7.0376C18.0211 7.0376 17.6426 7.40365 17.6426 7.85521C17.6426 8.30676 18.0211 8.67282 18.488 8.67282Z" fill="#CC2140"/>
<path d="M18.1349 16.8037C18.6018 16.8037 18.9803 16.4376 18.9803 15.9861C18.9803 15.5345 18.6018 15.1685 18.1349 15.1685C17.668 15.1685 17.2896 15.5345 17.2896 15.9861C17.2896 16.4376 17.668 16.8037 18.1349 16.8037Z" fill="#CC2140"/>
<path d="M14.7441 18.6665C15.211 18.6665 15.5895 18.3004 15.5895 17.8489C15.5895 17.3973 15.211 17.0312 14.7441 17.0312C14.2772 17.0312 13.8987 17.3973 13.8987 17.8489C13.8987 18.3004 14.2772 18.6665 14.7441 18.6665Z" fill="#CC2140"/>
<path d="M6.17888 17.0312C6.64578 17.0312 7.02427 16.6652 7.02427 16.2136C7.02427 15.7621 6.64578 15.396 6.17888 15.396C5.71199 15.396 5.3335 15.7621 5.3335 16.2136C5.3335 16.6652 5.71199 17.0312 6.17888 17.0312Z" fill="#CC2140"/>
<path d="M15.1869 10.3769C15.6538 10.3769 16.0323 10.0109 16.0323 9.55931C16.0323 9.10776 15.6538 8.7417 15.1869 8.7417C14.72 8.7417 14.3416 9.10776 14.3416 9.55931C14.3416 10.0109 14.72 10.3769 15.1869 10.3769Z" fill="#CC2140"/>
</g>
<defs>
<clipPath id="clip0_74_19165">
<rect width="19.3333" height="20" fill="white" transform="translate(2.66675 2)"/>
</clipPath>
</defs>
</svg>
