<svg width="28" height="28" viewBox="0 0 28 28" fill="none" xmlns="http://www.w3.org/2000/svg">
<path d="M23.2773 21.9917L17.2177 15.932C18.158 14.7164 18.6667 13.23 18.6667 11.6667C18.6667 9.79539 17.9364 8.04073 16.6157 6.71774C15.295 5.39474 13.5357 4.66675 11.6667 4.66675C9.79773 4.66675 8.0384 5.39708 6.71774 6.71774C5.39474 8.0384 4.66675 9.79539 4.66675 11.6667C4.66675 13.5357 5.39708 15.295 6.71774 16.6157C8.0384 17.9387 9.79539 18.6667 11.6667 18.6667C13.23 18.6667 14.714 18.158 15.9297 17.22L21.9893 23.2773C22.0071 23.2951 22.0282 23.3092 22.0514 23.3188C22.0746 23.3285 22.0995 23.3334 22.1247 23.3334C22.1498 23.3334 22.1747 23.3285 22.1979 23.3188C22.2211 23.3092 22.2422 23.2951 22.26 23.2773L23.2773 22.2623C23.2951 22.2446 23.3092 22.2235 23.3188 22.2003C23.3285 22.177 23.3334 22.1521 23.3334 22.127C23.3334 22.1019 23.3285 22.077 23.3188 22.0538C23.3092 22.0305 23.2951 22.0094 23.2773 21.9917ZM15.3627 15.3627C14.3734 16.3497 13.062 16.8934 11.6667 16.8934C10.2714 16.8934 8.96006 16.3497 7.97073 15.3627C6.98374 14.3734 6.44007 13.062 6.44007 11.6667C6.44007 10.2714 6.98374 8.95773 7.97073 7.97073C8.96006 6.98374 10.2714 6.44007 11.6667 6.44007C13.062 6.44007 14.3757 6.9814 15.3627 7.97073C16.3497 8.96006 16.8934 10.2714 16.8934 11.6667C16.8934 13.062 16.3497 14.3757 15.3627 15.3627Z" fill="#8992A1"/>
</svg>
