<svg width="24" height="25" viewBox="0 0 24 25" fill="none" xmlns="http://www.w3.org/2000/svg">
<path d="M12 3.5C7.02991 3.5 3 7.52991 3 12.5C3 17.4701 7.02991 21.5 12 21.5C16.9701 21.5 21 17.4701 21 12.5C21 7.52991 16.9701 3.5 12 3.5ZM12 19.9732C7.87366 19.9732 4.52679 16.6263 4.52679 12.5C4.52679 8.37366 7.87366 5.02679 12 5.02679C16.1263 5.02679 19.4732 8.37366 19.4732 12.5C19.4732 16.6263 16.1263 19.9732 12 19.9732ZM15.9857 8.15871C15.907 8.12796 15.8231 8.11302 15.7386 8.11475C15.6542 8.11647 15.5709 8.13482 15.4935 8.16875L10.0493 10.5513L7.66875 15.9955C7.59643 16.1603 7.59643 16.3471 7.66875 16.5118C7.73705 16.6685 7.86362 16.7911 8.02433 16.8533C8.10067 16.8835 8.17902 16.8975 8.25937 16.8975C8.34777 16.8975 8.43415 16.8795 8.51652 16.8433L13.9607 14.4607L16.3413 9.01652C16.376 8.93706 16.3944 8.85142 16.3952 8.76471C16.396 8.678 16.3793 8.59201 16.3461 8.51191C16.3129 8.43181 16.2639 8.35923 16.202 8.29854C16.14 8.23785 16.0665 8.19028 15.9857 8.15871ZM13.3018 12.95L13.8281 13.4763L12.9763 14.3281L12.45 13.8018L9.34821 15.1598L10.7042 12.058L10.192 11.5438L11.0438 10.692L11.556 11.2042L14.6598 9.84821L13.3018 12.95ZM11.0438 10.692L10.192 11.5438L10.7042 12.058L12.45 13.8018L12.9763 14.3281L13.8281 13.4763L13.3018 12.95L11.558 11.2042L11.0438 10.692Z" fill="#344054"/>
</svg>
