<svg width="24" height="24" viewBox="0 0 24 24" fill="none" xmlns="http://www.w3.org/2000/svg">
<g clip-path="url(#clip0_3846_690)">
<mask id="path-1-inside-1_3846_690" fill="white">
<path d="M21.9998 22H2.6665V2H21.9998V22ZM3.16711 21.4966H21.4992V2.5034H3.16711V21.4966Z"/>
</mask>
<path d="M21.9998 22H2.6665V2H21.9998V22ZM3.16711 21.4966H21.4992V2.5034H3.16711V21.4966Z" fill="#344054"/>
<path d="M21.9998 22V23H22.9998V22H21.9998ZM2.6665 22H1.6665V23H2.6665V22ZM2.6665 2V1H1.6665V2H2.6665ZM21.9998 2H22.9998V1H21.9998V2ZM3.16711 21.4966H2.16711V22.4966H3.16711V21.4966ZM21.4992 21.4966V22.4966H22.4992V21.4966H21.4992ZM21.4992 2.5034H22.4992V1.5034H21.4992V2.5034ZM3.16711 2.5034V1.5034H2.16711V2.5034H3.16711ZM21.9998 21H2.6665V23H21.9998V21ZM3.6665 22V2H1.6665V22H3.6665ZM2.6665 3H21.9998V1H2.6665V3ZM20.9998 2V22H22.9998V2H20.9998ZM3.16711 22.4966H21.4992V20.4966H3.16711V22.4966ZM22.4992 21.4966V2.5034H20.4992V21.4966H22.4992ZM21.4992 1.5034H3.16711V3.5034H21.4992V1.5034ZM2.16711 2.5034V21.4966H4.16711V2.5034H2.16711Z" fill="#2F3237" mask="url(#path-1-inside-1_3846_690)"/>
</g>
<rect x="4.38955" y="7.15371" width="15.8874" height="9.69221" fill="#EBEEF1" stroke="#344054" stroke-width="0.2"/>
<path d="M12.5938 10.5859V13.4141H12.082V11.082H12.0664L11.4062 11.5039V11.0391L12.1055 10.5859H12.5938Z" fill="#344054"/>
<defs>
<clipPath id="clip0_3846_690">
<rect width="19.3333" height="20" fill="white" transform="translate(2.6665 2)"/>
</clipPath>
</defs>
</svg>
