<svg width="24" height="24" viewBox="0 0 24 24" fill="none" xmlns="http://www.w3.org/2000/svg">
<g clip-path="url(#clip0_74_19162)">
<g clip-path="url(#clip1_74_19162)">
<path d="M22.0001 22H2.66675V2H22.0001V22ZM3.16735 21.4966H21.4995V2.5034H3.16735V21.4966Z" fill="#344054"/>
<path d="M18.887 6.06473L18.3391 6.58105L18.6814 6.94838L19.2293 6.43205L18.887 6.06473Z" fill="#344054"/>
<path d="M7.58284 17.4239L7.24243 17.0564L8.35377 16.0094L8.69418 16.3768L7.58284 17.4239ZM9.80052 15.3298L9.46011 14.9623L10.5714 13.9152L10.9119 14.2827L9.80052 15.3298ZM12.0182 13.2356L11.6778 12.8682L12.7891 11.8211L13.1295 12.1886L12.0182 13.2356ZM14.2359 11.1415L13.8955 10.774L15.0068 9.72695L15.3472 10.0944L14.2359 11.1415ZM16.4536 9.04736L16.1131 8.67988L17.2245 7.63281L17.5649 8.00029L16.4536 9.04736Z" fill="#344054"/>
<path d="M6.13279 18.1056L5.58594 18.623L5.92901 18.9896L6.47586 18.4722L6.13279 18.1056Z" fill="#344054"/>
<path d="M19.0615 7.62306C19.8163 7.62306 20.4281 7.00778 20.4281 6.24879C20.4281 5.4898 19.8163 4.87451 19.0615 4.87451C18.3067 4.87451 17.6948 5.4898 17.6948 6.24879C17.6948 7.00778 18.3067 7.62306 19.0615 7.62306Z" fill="#CC2140"/>
<path d="M5.75557 20.1826C6.51035 20.1826 7.12221 19.5674 7.12221 18.8084C7.12221 18.0494 6.51035 17.4341 5.75557 17.4341C5.00079 17.4341 4.38892 18.0494 4.38892 18.8084C4.38892 19.5674 5.00079 20.1826 5.75557 20.1826Z" fill="#CC2140"/>
</g>
</g>
<defs>
<clipPath id="clip0_74_19162">
<rect width="19.3333" height="20" fill="white" transform="translate(2.66675 2)"/>
</clipPath>
<clipPath id="clip1_74_19162">
<rect width="19.3333" height="20" fill="white" transform="translate(2.66675 2)"/>
</clipPath>
</defs>
</svg>
