<svg width="20" height="20" viewBox="0 0 20 20" fill="none" xmlns="http://www.w3.org/2000/svg">
<g clip-path="url(#clip0_172_42336)">
<path d="M20 20H0.666626V0H20V20ZM1.16723 19.4966H19.4994V0.503398H1.16723V19.4966Z" fill="black"/>
<path d="M9.90833 10.5027L13.1528 7.25824L12.5639 6.66936L9.90833 9.33186L8.77639 8.19992L8.19446 8.78879L9.90833 10.5027ZM10.6667 15.9902C12.2491 14.58 13.441 13.2416 14.2424 11.9749C15.0438 10.7082 15.4445 9.61657 15.4445 8.6999C15.4445 7.25638 14.9831 6.07513 14.0604 5.15615C13.1377 4.23716 12.0065 3.77767 10.6667 3.77767C9.32684 3.77767 8.19559 4.23716 7.2729 5.15615C6.35022 6.07513 5.88887 7.25638 5.88887 8.6999C5.88887 9.61657 6.29628 10.7082 7.11111 11.9749C7.92592 13.2416 9.1111 14.58 10.6667 15.9902ZM10.6667 17.0832C8.78426 15.448 7.38079 13.9302 6.45625 12.5298C5.53172 11.1293 5.06946 9.85268 5.06946 8.6999C5.06946 6.94991 5.63288 5.55547 6.75973 4.51657C7.88658 3.47769 9.18889 2.95825 10.6667 2.95825C12.1444 2.95825 13.4467 3.47769 14.5736 4.51657C15.7004 5.55547 16.2639 6.94991 16.2639 8.6999C16.2639 9.85268 15.8016 11.1293 14.8771 12.5298C13.9525 13.9302 12.5491 15.448 10.6667 17.0832Z" fill="#344054"/>
</g>
<defs>
<clipPath id="clip0_172_42336">
<rect width="19.3333" height="20" fill="white" transform="translate(0.666626)"/>
</clipPath>
</defs>
</svg>
