<svg width="24" height="25" viewBox="0 0 24 25" fill="none" xmlns="http://www.w3.org/2000/svg">
<path d="M15.5763 10.35H14.6341C14.4292 10.35 14.2343 10.4484 14.1138 10.6152L12.0004 13.5361L9.88702 10.6152C9.76648 10.4484 9.57363 10.35 9.36671 10.35H8.42452C8.29394 10.35 8.2176 10.4986 8.29394 10.6051L11.8698 15.5471C11.9341 15.6355 12.0647 15.6355 12.129 15.5471L15.7049 10.6051C15.7832 10.4986 15.7069 10.35 15.5763 10.35Z" fill="#344054"/>
<path d="M12 3.5C7.02991 3.5 3 7.52991 3 12.5C3 17.4701 7.02991 21.5 12 21.5C16.9701 21.5 21 17.4701 21 12.5C21 7.52991 16.9701 3.5 12 3.5ZM12 19.9732C7.87366 19.9732 4.52679 16.6263 4.52679 12.5C4.52679 8.37366 7.87366 5.02679 12 5.02679C16.1263 5.02679 19.4732 8.37366 19.4732 12.5C19.4732 16.6263 16.1263 19.9732 12 19.9732Z" fill="#344054"/>
</svg>
