<svg width="12" height="12" viewBox="0 0 12 12" fill="none" xmlns="http://www.w3.org/2000/svg">
<path d="M5.625 10.0749V6.2124L2.25 4.2624V8.1249L5.625 10.0749ZM6.375 10.0749L9.75 8.1249V4.2499L6.375 6.21038V10.0749ZM6 5.5749L9.325 3.6374L6 1.7124L2.6625 3.6374L6 5.5749ZM1.875 8.7749C1.75625 8.70469 1.66406 8.61213 1.59844 8.49724C1.53281 8.38235 1.5 8.25824 1.5 8.1249V3.8749C1.5 3.74157 1.53281 3.61746 1.59844 3.50257C1.66406 3.38767 1.75625 3.29512 1.875 3.2249L5.625 1.0624C5.7444 0.995736 5.87008 0.962402 6.00205 0.962402C6.13402 0.962402 6.25833 0.995736 6.375 1.0624L10.125 3.2249C10.2438 3.29512 10.3359 3.38767 10.4016 3.50257C10.4672 3.61746 10.5 3.74157 10.5 3.8749V8.1249C10.5 8.25824 10.4672 8.38235 10.4016 8.49724C10.3359 8.61213 10.2438 8.70469 10.125 8.7749L6.375 10.9374C6.2556 11.0041 6.12992 11.0374 5.99795 11.0374C5.86598 11.0374 5.74167 11.0041 5.625 10.9374L1.875 8.7749Z" fill="#98A2B3"/>
</svg>
