<svg width="24" height="24" viewBox="0 0 24 24" fill="none" xmlns="http://www.w3.org/2000/svg">
<path d="M20.5012 17.6487H19.2628C19.1661 17.6487 19.0855 17.7292 19.0855 17.8259V19.2485H4.5906V4.75124H19.0878V6.17381C19.0878 6.27048 19.1684 6.35105 19.2651 6.35105H20.5035C20.6002 6.35105 20.6807 6.27279 20.6807 6.17381V3.86732C20.6807 3.476 20.3654 3.16064 19.9741 3.16064H3.70668C3.31536 3.16064 3 3.476 3 3.86732V20.1324C3 20.5237 3.31536 20.8391 3.70668 20.8391H19.9718C20.3631 20.8391 20.6784 20.5237 20.6784 20.1324V17.8259C20.6784 17.7269 20.5979 17.6487 20.5012 17.6487ZM20.9293 11.8548L17.663 9.27674C17.541 9.18006 17.3637 9.26753 17.3637 9.42176V11.1712H10.1358C10.0345 11.1712 9.95168 11.2541 9.95168 11.3553V12.6444C9.95168 12.7457 10.0345 12.8285 10.1358 12.8285H17.3637V14.578C17.3637 14.7322 17.5433 14.8197 17.663 14.723L20.9293 12.1449C20.9514 12.1277 20.9692 12.1056 20.9814 12.0805C20.9936 12.0554 21 12.0278 21 11.9999C21 11.9719 20.9936 11.9443 20.9814 11.9192C20.9692 11.8941 20.9514 11.8721 20.9293 11.8548Z" fill="#344054"/>
</svg>
