<svg width="24" height="24" viewBox="0 0 24 24" fill="none" xmlns="http://www.w3.org/2000/svg">
<path d="M12.505 6.99768H11.4983C11.4062 6.99768 11.3308 7.07303 11.3308 7.16512V12.9272C11.3308 12.9816 11.3559 13.0319 11.3999 13.0633L14.8597 15.5895C14.935 15.644 15.0397 15.6293 15.0941 15.554L15.6927 14.7377C15.7492 14.6602 15.7324 14.5556 15.6571 14.5033L12.6724 12.3453V7.16512C12.6724 7.07303 12.5971 6.99768 12.505 6.99768ZM17.1055 8.57163L20.3873 9.37326C20.492 9.39837 20.5945 9.31884 20.5945 9.21209L20.6113 5.83186C20.6113 5.69163 20.4501 5.6121 20.3413 5.7L17.0427 8.27651C17.0177 8.2958 16.9988 8.32173 16.9879 8.35132C16.9771 8.38092 16.9748 8.41297 16.9814 8.4438C16.9879 8.47463 17.003 8.50298 17.025 8.52559C17.047 8.54821 17.0748 8.56416 17.1055 8.57163ZM20.6155 14.8737L19.4287 14.4656C19.3873 14.4514 19.3421 14.454 19.3026 14.4727C19.2631 14.4915 19.2325 14.525 19.2173 14.566C19.1776 14.6728 19.1357 14.7774 19.0917 14.8821C18.7192 15.7633 18.1855 16.5565 17.5031 17.2367C16.8284 17.9136 16.0287 18.4531 15.1485 18.8253C14.2366 19.2109 13.2564 19.4088 12.2664 19.4072C11.2659 19.4072 10.2969 19.2126 9.38431 18.8253C8.50407 18.4531 7.70441 17.9136 7.02966 17.2367C6.34943 16.5565 5.8157 15.7633 5.44105 14.8821C5.05765 13.9697 4.86121 12.9897 4.86338 12C4.86338 10.9995 5.05803 10.0284 5.44524 9.11582C5.8178 8.23465 6.35152 7.4414 7.03384 6.76116C7.70859 6.08432 8.50825 5.54482 9.38849 5.17256C10.2969 4.78535 11.268 4.5907 12.2685 4.5907C13.269 4.5907 14.238 4.78535 15.1506 5.17256C16.0308 5.54482 16.8305 6.08432 17.5052 6.76116C17.7187 6.97675 17.9197 7.2007 18.1038 7.43721L19.3555 6.45768C17.7083 4.3521 15.1443 2.99791 12.2643 3C7.24942 3.0021 3.22245 7.07512 3.27268 12.0921C3.32291 17.0212 7.33105 21 12.2685 21C16.1511 21 19.458 18.5386 20.718 15.0914C20.7494 15.0035 20.7034 14.9051 20.6155 14.8737Z" fill="#344054"/>
</svg>
