<svg width="20" height="20" viewBox="0 0 20 20" fill="none" xmlns="http://www.w3.org/2000/svg">
<path d="M18.2936 2.61124H14.5076V1.16892C14.5076 1.06976 14.4264 0.988632 14.3273 0.988632H13.0652C12.9661 0.988632 12.8849 1.06976 12.8849 1.16892V2.61124H7.11568V1.16892C7.11568 1.06976 7.03455 0.988632 6.93539 0.988632H5.67337C5.57421 0.988632 5.49308 1.06976 5.49308 1.16892V2.61124H1.707C1.30811 2.61124 0.98584 2.9335 0.98584 3.3324V18.2964C0.98584 18.6953 1.30811 19.0176 1.707 19.0176H18.2936C18.6925 19.0176 19.0148 18.6953 19.0148 18.2964V3.3324C19.0148 2.9335 18.6925 2.61124 18.2936 2.61124ZM17.3922 17.395H2.60845V8.83122H17.3922V17.395ZM2.60845 7.29876V4.23384H5.49308V5.31558C5.49308 5.41474 5.57421 5.49587 5.67337 5.49587H6.93539C7.03455 5.49587 7.11568 5.41474 7.11568 5.31558V4.23384H12.8849V5.31558C12.8849 5.41474 12.9661 5.49587 13.0652 5.49587H14.3273C14.4264 5.49587 14.5076 5.41474 14.5076 5.31558V4.23384H17.3922V7.29876H2.60845Z" fill="#444951"/>
</svg>
