<svg width="24" height="24" viewBox="0 0 24 24" fill="none" xmlns="http://www.w3.org/2000/svg">
<g clip-path="url(#clip0_74_21210)">
<path d="M6.28828 7.98389L14.8536 9.5053L14.4108 17.8491L5.84546 16.3487L6.28828 7.98389Z" fill="#EBEEF1"/>
<path d="M14.5563 18.0259L5.68433 16.4715L6.14263 7.80127L15.0146 9.37659L14.5532 18.0229L14.5563 18.0259ZM6.00948 16.2259L14.2683 17.6725L14.6956 9.62816L6.43372 8.16066L6.00638 16.2259H6.00948Z" fill="#344054"/>
<path d="M18.1545 7.67529L17.7767 15.9862L14.4106 17.849L14.8535 9.50518L18.1545 7.67529Z" fill="#98A2B3"/>
<path d="M14.2402 18.1154L14.7047 9.41522L18.3216 7.41162L17.9284 16.0759L14.2402 18.1154ZM15.0051 9.59191L14.5809 17.5823L17.628 15.8962L17.9872 7.94172L15.0051 9.59491V9.59191Z" fill="#344054"/>
<path d="M6.28809 7.98376L14.8534 9.55908L18.1545 7.67529L9.63867 6.15088L6.28809 7.98376Z" fill="white"/>
<path d="M14.8813 9.71785L5.84521 8.05268L9.61075 5.99219L18.588 7.60045L14.8813 9.71486V9.71785ZM6.73086 7.91192L14.8255 9.40039L17.7178 7.7502L9.66649 6.30665L6.73086 7.90893V7.91192Z" fill="#344054"/>
<path d="M21.6666 22H2.33325V2H21.6666V22ZM2.83386 21.4966H21.166V2.5034H2.83386V21.4966Z" fill="#344054"/>
<path d="M6.8834 7.98363C6.8834 8.2893 6.62478 8.55124 6.28802 8.55124C5.95125 8.55124 5.69263 8.2893 5.69263 7.98363C5.69263 7.67795 5.95125 7.41602 6.28802 7.41602C6.62478 7.41602 6.8834 7.67795 6.8834 7.98363Z" fill="white" stroke="#344054" stroke-width="0.5"/>
<path d="M10.2218 6.15111C10.2218 6.45678 9.96316 6.71872 9.62639 6.71872C9.28963 6.71872 9.03101 6.45678 9.03101 6.15111C9.03101 5.84543 9.28963 5.5835 9.62639 5.5835C9.96316 5.5835 10.2218 5.84543 10.2218 6.15111Z" fill="white" stroke="#344054" stroke-width="0.5"/>
<path d="M18.7499 7.85521C18.7499 8.16088 18.4912 8.42282 18.1545 8.42282C17.8177 8.42282 17.5591 8.16088 17.5591 7.85521C17.5591 7.54953 17.8177 7.2876 18.1545 7.2876C18.4912 7.2876 18.7499 7.54953 18.7499 7.85521Z" fill="white" stroke="#344054" stroke-width="0.5"/>
<path d="M18.3968 15.9861C18.3968 16.2917 18.1382 16.5537 17.8014 16.5537C17.4647 16.5537 17.2061 16.2917 17.2061 15.9861C17.2061 15.6804 17.4647 15.4185 17.8014 15.4185C18.1382 15.4185 18.3968 15.6804 18.3968 15.9861Z" fill="white" stroke="#344054" stroke-width="0.5"/>
<path d="M15.006 17.8489C15.006 18.1545 14.7473 18.4165 14.4106 18.4165C14.0738 18.4165 13.8152 18.1545 13.8152 17.8489C13.8152 17.5432 14.0738 17.2812 14.4106 17.2812C14.7473 17.2812 15.006 17.5432 15.006 17.8489Z" fill="white" stroke="#344054" stroke-width="0.5"/>
<path d="M6.44078 16.2136C6.44078 16.5193 6.18215 16.7812 5.84539 16.7812C5.50863 16.7812 5.25 16.5193 5.25 16.2136C5.25 15.9079 5.50863 15.646 5.84539 15.646C6.18215 15.646 6.44078 15.9079 6.44078 16.2136Z" fill="white" stroke="#344054" stroke-width="0.5"/>
<path d="M15.4488 9.55931C15.4488 9.86498 15.1902 10.1269 14.8534 10.1269C14.5167 10.1269 14.2581 9.86498 14.2581 9.55931C14.2581 9.25363 14.5167 8.9917 14.8534 8.9917C15.1902 8.9917 15.4488 9.25363 15.4488 9.55931Z" fill="white" stroke="#344054" stroke-width="0.5"/>
</g>
<defs>
<clipPath id="clip0_74_21210">
<rect width="19.3333" height="20" fill="white" transform="translate(2.33325 2)"/>
</clipPath>
</defs>
</svg>
