<svg width="24" height="24" viewBox="0 0 24 24" fill="none" xmlns="http://www.w3.org/2000/svg">
<g clip-path="url(#clip0_74_18978)">
<path d="M22.0001 22H2.66675V2H22.0001V22ZM3.16735 21.4966H21.4995V2.5034H3.16735V21.4966Z" fill="#344054"/>
</g>
<mask id="path-2-outside-1_74_18978" maskUnits="userSpaceOnUse" x="4.33325" y="4.90869" width="16" height="16" fill="black">
<rect fill="white" x="4.33325" y="4.90869" width="16" height="16"/>
<path d="M18.2915 12.6795L18.5676 10.9503L17.6065 9.67237L16.8754 9.46432L15.9603 10.3775L15.7518 9.31032L15.2022 8.76184L14.723 6.18968H12.1318L11.4198 6.69223L10.112 6.57605L9.66529 5.90869L8.76639 6.17617L8.28175 5.93301H6.84676L6.7168 6.58686L5.43072 6.8057L5.33325 9.49134L5.86663 9.53187L5.95057 10.2154L8.38734 10.6639L8.67434 11.4502L8.3738 12.1365L8.69871 12.7849L9.13191 13.7738L9.36476 14.1601V16.5243L8.86387 16.8458L7.92977 17.1187L9.39996 18.7722L10.4911 20.1447L11.9965 18.4101H13.3854L14.8421 17.2754V16.4486L15.982 16.4675L16.5614 16.9565L17.6687 16.5026L17.8691 15.892L20.0053 13.8872V12.5552L18.2996 12.6795H18.2915ZM9.93605 6.87595L11.3927 7.00294L12.4622 8.108L11.084 9.67237L8.9126 7.50819V6.46257L9.53804 6.27614L9.93875 6.87595H9.93605ZM12.825 13.8008L10.1851 11.1665L12.6761 8.33495L15.3619 11.1124L12.825 13.8008ZM8.61748 10.3911L6.22944 9.95336L6.1428 9.24277L5.65274 9.20495L5.73126 7.07049L6.98214 6.86244L7.10397 6.24912H8.20864L8.59853 6.44366V7.63787L10.8756 9.91013L9.83587 11.0908H8.86928L8.61477 10.3911H8.61748ZM8.98029 12.6552L8.71766 12.1283L9.01007 11.4637L8.98841 11.4015H9.98207L12.6138 14.0277L10.4369 16.3351L9.67342 16.4324V14.0737L9.40808 13.6333L8.98029 12.6552ZM13.2717 18.0994H11.8476L10.4965 19.6584L9.63551 18.575L8.48752 17.2808L8.97217 17.1376L9.57324 16.7593L10.5913 16.6296L12.5596 14.5438L14.528 16.3621V17.1268L13.2771 18.1021L13.2717 18.0994ZM17.5902 15.7191L17.4088 16.2703L16.6101 16.5972L16.0903 16.1568L14.7392 16.1352L12.7654 14.3141L15.5758 11.334L18.7545 14.6221L17.5848 15.7191H17.5902ZM19.6858 13.7522L18.9873 14.4087L11.7041 6.87595L12.2347 6.5031H14.4684L14.9179 8.91585L15.4675 9.46432L15.7681 11.0152L16.9702 9.81826L17.4224 9.94795L18.24 11.0368L17.9232 13.0227L19.6858 12.893V13.7549V13.7522Z"/>
</mask>
<path d="M18.2915 12.6795L18.5676 10.9503L17.6065 9.67237L16.8754 9.46432L15.9603 10.3775L15.7518 9.31032L15.2022 8.76184L14.723 6.18968H12.1318L11.4198 6.69223L10.112 6.57605L9.66529 5.90869L8.76639 6.17617L8.28175 5.93301H6.84676L6.7168 6.58686L5.43072 6.8057L5.33325 9.49134L5.86663 9.53187L5.95057 10.2154L8.38734 10.6639L8.67434 11.4502L8.3738 12.1365L8.69871 12.7849L9.13191 13.7738L9.36476 14.1601V16.5243L8.86387 16.8458L7.92977 17.1187L9.39996 18.7722L10.4911 20.1447L11.9965 18.4101H13.3854L14.8421 17.2754V16.4486L15.982 16.4675L16.5614 16.9565L17.6687 16.5026L17.8691 15.892L20.0053 13.8872V12.5552L18.2996 12.6795H18.2915ZM9.93605 6.87595L11.3927 7.00294L12.4622 8.108L11.084 9.67237L8.9126 7.50819V6.46257L9.53804 6.27614L9.93875 6.87595H9.93605ZM12.825 13.8008L10.1851 11.1665L12.6761 8.33495L15.3619 11.1124L12.825 13.8008ZM8.61748 10.3911L6.22944 9.95336L6.1428 9.24277L5.65274 9.20495L5.73126 7.07049L6.98214 6.86244L7.10397 6.24912H8.20864L8.59853 6.44366V7.63787L10.8756 9.91013L9.83587 11.0908H8.86928L8.61477 10.3911H8.61748ZM8.98029 12.6552L8.71766 12.1283L9.01007 11.4637L8.98841 11.4015H9.98207L12.6138 14.0277L10.4369 16.3351L9.67342 16.4324V14.0737L9.40808 13.6333L8.98029 12.6552ZM13.2717 18.0994H11.8476L10.4965 19.6584L9.63551 18.575L8.48752 17.2808L8.97217 17.1376L9.57324 16.7593L10.5913 16.6296L12.5596 14.5438L14.528 16.3621V17.1268L13.2771 18.1021L13.2717 18.0994ZM17.5902 15.7191L17.4088 16.2703L16.6101 16.5972L16.0903 16.1568L14.7392 16.1352L12.7654 14.3141L15.5758 11.334L18.7545 14.6221L17.5848 15.7191H17.5902ZM19.6858 13.7522L18.9873 14.4087L11.7041 6.87595L12.2347 6.5031H14.4684L14.9179 8.91585L15.4675 9.46432L15.7681 11.0152L16.9702 9.81826L17.4224 9.94795L18.24 11.0368L17.9232 13.0227L19.6858 12.893V13.7549V13.7522Z" fill="url(#paint0_linear_74_18978)"/>
<path d="M18.2915 12.6795L18.5676 10.9503L17.6065 9.67237L16.8754 9.46432L15.9603 10.3775L15.7518 9.31032L15.2022 8.76184L14.723 6.18968H12.1318L11.4198 6.69223L10.112 6.57605L9.66529 5.90869L8.76639 6.17617L8.28175 5.93301H6.84676L6.7168 6.58686L5.43072 6.8057L5.33325 9.49134L5.86663 9.53187L5.95057 10.2154L8.38734 10.6639L8.67434 11.4502L8.3738 12.1365L8.69871 12.7849L9.13191 13.7738L9.36476 14.1601V16.5243L8.86387 16.8458L7.92977 17.1187L9.39996 18.7722L10.4911 20.1447L11.9965 18.4101H13.3854L14.8421 17.2754V16.4486L15.982 16.4675L16.5614 16.9565L17.6687 16.5026L17.8691 15.892L20.0053 13.8872V12.5552L18.2996 12.6795H18.2915ZM9.93605 6.87595L11.3927 7.00294L12.4622 8.108L11.084 9.67237L8.9126 7.50819V6.46257L9.53804 6.27614L9.93875 6.87595H9.93605ZM12.825 13.8008L10.1851 11.1665L12.6761 8.33495L15.3619 11.1124L12.825 13.8008ZM8.61748 10.3911L6.22944 9.95336L6.1428 9.24277L5.65274 9.20495L5.73126 7.07049L6.98214 6.86244L7.10397 6.24912H8.20864L8.59853 6.44366V7.63787L10.8756 9.91013L9.83587 11.0908H8.86928L8.61477 10.3911H8.61748ZM8.98029 12.6552L8.71766 12.1283L9.01007 11.4637L8.98841 11.4015H9.98207L12.6138 14.0277L10.4369 16.3351L9.67342 16.4324V14.0737L9.40808 13.6333L8.98029 12.6552ZM13.2717 18.0994H11.8476L10.4965 19.6584L9.63551 18.575L8.48752 17.2808L8.97217 17.1376L9.57324 16.7593L10.5913 16.6296L12.5596 14.5438L14.528 16.3621V17.1268L13.2771 18.1021L13.2717 18.0994ZM17.5902 15.7191L17.4088 16.2703L16.6101 16.5972L16.0903 16.1568L14.7392 16.1352L12.7654 14.3141L15.5758 11.334L18.7545 14.6221L17.5848 15.7191H17.5902ZM19.6858 13.7522L18.9873 14.4087L11.7041 6.87595L12.2347 6.5031H14.4684L14.9179 8.91585L15.4675 9.46432L15.7681 11.0152L16.9702 9.81826L17.4224 9.94795L18.24 11.0368L17.9232 13.0227L19.6858 12.893V13.7549V13.7522Z" stroke="#344054" stroke-width="0.4" mask="url(#path-2-outside-1_74_18978)"/>
<path d="M8.33325 8.01611H7.19067V8.62943H8.33325V8.01611Z" fill="#344054"/>
<path d="M12.0371 7.70801H10.8945V8.32133H12.0371V7.70801Z" fill="#344054"/>
<path d="M13.3853 11.0342H12.2427V11.6475H13.3853V11.0342Z" fill="#344054"/>
<path d="M11.4658 13.5522H10.3232V14.1656H11.4658V13.5522Z" fill="#344054"/>
<path d="M12.9036 16.3862H11.761V16.9995H12.9036V16.3862Z" fill="#344054"/>
<path d="M16.3665 14.0171H15.2239V14.6304H16.3665V14.0171Z" fill="#344054"/>
<defs>
<linearGradient id="paint0_linear_74_18978" x1="12.6652" y1="20.7472" x2="12.6652" y2="6.11133" gradientUnits="userSpaceOnUse">
<stop stop-color="#334BBC"/>
<stop offset="0.21" stop-color="#36D6CB"/>
<stop offset="0.38" stop-color="#C4FF79"/>
<stop offset="0.57" stop-color="#FFEF93"/>
<stop offset="0.7" stop-color="#FEDA87"/>
<stop offset="0.94" stop-color="#E35349"/>
<stop offset="1" stop-color="#BE2449"/>
</linearGradient>
<clipPath id="clip0_74_18978">
<rect width="19.3333" height="20" fill="white" transform="translate(2.66675 2)"/>
</clipPath>
</defs>
</svg>
