<svg width="12" height="11" viewBox="0 0 12 11" fill="none" xmlns="http://www.w3.org/2000/svg">
<g clip-path="url(#clip0_92_210)">
<path fill-rule="evenodd" clip-rule="evenodd" d="M11.3072 5.53885C11.3072 8.55501 8.86217 11.0001 5.84595 11.0001C2.82985 11.0001 0.384766 8.55501 0.384766 5.53885C0.384766 2.52272 2.82985 0.0776367 5.84595 0.0776367C8.86217 0.0776367 11.3072 2.52272 11.3072 5.53885ZM5.27035 6.74074V2.529H6.39344V6.74074H5.27035ZM5.85783 8.54824C6.16917 8.54824 6.42155 8.29583 6.42155 7.9845C6.42155 7.67317 6.16917 7.42076 5.85783 7.42076C5.5465 7.42076 5.29412 7.67317 5.29412 7.9845C5.29412 8.29583 5.5465 8.54824 5.85783 8.54824Z" fill="white"/>
</g>
<defs>
<clipPath id="clip0_92_210">
<rect width="12" height="11" fill="white"/>
</clipPath>
</defs>
</svg>
