<svg width="24" height="24" viewBox="0 0 24 24" fill="none" xmlns="http://www.w3.org/2000/svg">
<path d="M19 11H5C3.89543 11 3 11.8954 3 13V20C3 21.1046 3.89543 22 5 22H19C20.1046 22 21 21.1046 21 20V13C21 11.8954 20.1046 11 19 11Z" stroke="#02373E" stroke-width="1.5" stroke-linecap="round" stroke-linejoin="round"/>
<path d="M7 11V7C6.99876 5.76005 7.45828 4.56387 8.28938 3.64367C9.12047 2.72347 10.2638 2.1449 11.4975 2.02029C12.7312 1.89568 13.9671 2.2339 14.9655 2.96931C15.9638 3.70472 16.6533 4.78485 16.9 6" stroke="#02373E" stroke-width="1.5" stroke-linecap="round" stroke-linejoin="round"/>
<path d="M11.4169 17.8749V16.7707C11.2449 16.6472 11.1165 16.4724 11.0503 16.2713C10.984 16.0703 10.9832 15.8533 11.0481 15.6518C11.1129 15.4503 11.2401 15.2745 11.4112 15.1499C11.5823 15.0252 11.7885 14.958 12.0002 14.958C12.2119 14.958 12.4182 15.0252 12.5893 15.1499C12.7604 15.2745 12.8875 15.4503 12.9523 15.6518C13.0172 15.8533 13.0164 16.0703 12.9501 16.2713C12.8839 16.4724 12.7555 16.6472 12.5835 16.7707V17.8749C12.5835 17.9665 12.5085 18.0415 12.4169 18.0415H11.5835C11.4919 18.0415 11.4169 17.9665 11.4169 17.8749Z" fill="#02373E"/>
</svg>
