<svg width="24" height="24" viewBox="0 0 24 24" fill="none" xmlns="http://www.w3.org/2000/svg">
<g clip-path="url(#clip0_74_19159)">
<path d="M22.0001 22H2.66675V2H22.0001V22ZM3.16735 21.4966H21.4995V2.5034H3.16735V21.4966Z" fill="#344054"/>
<g clip-path="url(#clip1_74_19159)">
<path d="M13.548 10.7513L13.2837 10.4675L14.1466 9.65909L14.4109 9.94283L13.548 10.7513ZM15.2698 9.13438L15.0055 8.85064L15.8684 8.04219L16.1327 8.32593L15.2698 9.13438ZM16.9917 7.51748L16.7274 7.23374L17.5902 6.42529L17.8545 6.70903L16.9917 7.51748Z" fill="#344054"/>
<path d="M12.4175 11.2753L11.9929 11.6748L12.2593 11.9579L12.6839 11.5583L12.4175 11.2753Z" fill="#344054"/>
<path d="M12.3314 12.8307C12.9174 12.8307 13.3924 12.3556 13.3924 11.7696C13.3924 11.1836 12.9174 10.7085 12.3314 10.7085C11.7453 10.7085 11.2703 11.1836 11.2703 11.7696C11.2703 12.3556 11.7453 12.8307 12.3314 12.8307Z" fill="#BA003E"/>
<path d="M12.3315 19.3333C8.10654 19.3333 4.66675 15.8935 4.66675 11.6647C4.66675 7.43591 8.10654 4 12.3315 4C16.5564 4 19.9962 7.4398 19.9962 11.6647C19.9962 15.8896 16.5564 19.3294 12.3315 19.3294V19.3333ZM12.3315 4.38868C8.32032 4.38868 5.05543 7.65357 5.05543 11.6647C5.05543 15.6759 8.32032 18.9408 12.3315 18.9408C16.3426 18.9408 19.6075 15.6759 19.6075 11.6647C19.6075 7.65357 16.3465 4.38868 12.3315 4.38868Z" fill="#344054"/>
</g>
</g>
<defs>
<clipPath id="clip0_74_19159">
<rect width="19.3333" height="20" fill="white" transform="translate(2.66675 2)"/>
</clipPath>
<clipPath id="clip1_74_19159">
<rect width="15.3333" height="15.3333" fill="white" transform="translate(4.66675 4)"/>
</clipPath>
</defs>
</svg>
