<svg width="24" height="24" viewBox="0 0 24 24" fill="none" xmlns="http://www.w3.org/2000/svg">
<g clip-path="url(#clip0_74_19318)">
<path d="M22.0001 22H2.66675V2H22.0001V22ZM3.16735 21.4966H21.4995V2.5034H3.16735V21.4966Z" fill="#344054"/>
<path d="M11.9085 12.5029L15.1529 9.25848L14.564 8.6696L11.9085 11.3321L10.7765 10.2002L10.1946 10.789L11.9085 12.5029ZM12.6668 17.9904C14.2492 16.5803 15.4411 15.2418 16.2425 13.9752C17.0439 12.7085 17.4446 11.6168 17.4446 10.7001C17.4446 9.25663 16.9832 8.07538 16.0605 7.1564C15.1379 6.23741 14.0066 5.77791 12.6668 5.77791C11.327 5.77791 10.1957 6.23741 9.27303 7.1564C8.35034 8.07538 7.889 9.25663 7.889 10.7001C7.889 11.6168 8.29641 12.7085 9.11123 13.9752C9.92604 15.2418 11.1112 16.5803 12.6668 17.9904ZM12.6668 19.0835C10.7844 17.4483 9.38091 15.9305 8.45637 14.53C7.53184 13.1295 7.06958 11.8529 7.06958 10.7001C7.06958 8.95015 7.633 7.55571 8.75985 6.51682C9.8867 5.47794 11.189 4.9585 12.6668 4.9585C14.1446 4.9585 15.4469 5.47794 16.5737 6.51682C17.7006 7.55571 18.264 8.95015 18.264 10.7001C18.264 11.8529 17.8017 13.1295 16.8772 14.53C15.9527 15.9305 14.5492 17.4483 12.6668 19.0835Z" fill="#344054"/>
</g>
<defs>
<clipPath id="clip0_74_19318">
<rect width="19.3333" height="20" fill="white" transform="translate(2.66675 2)"/>
</clipPath>
</defs>
</svg>
