<svg width="24" height="25" viewBox="0 0 24 25" fill="none" xmlns="http://www.w3.org/2000/svg">
<path d="M21 8.89886C20.9999 8.73823 20.9567 8.58057 20.8751 8.44224C20.7934 8.30392 20.6762 8.18997 20.5356 8.11223L12.4155 3.61206C12.2821 3.53855 12.1322 3.5 11.9799 3.5C11.8276 3.5 11.6777 3.53855 11.5443 3.61206L3.46379 8.07623C3.32342 8.15396 3.20638 8.2678 3.12479 8.40597C3.0432 8.54414 3.00003 8.7016 2.99976 8.86206C2.99948 9.02252 3.04211 9.18013 3.12322 9.31858C3.20433 9.45703 3.32099 9.57127 3.46109 9.64948L11.5812 14.1857C11.7149 14.2608 11.8656 14.3003 12.0189 14.3005C12.1723 14.3006 12.3231 14.2614 12.4569 14.1866L20.5374 9.68639C20.6778 9.60833 20.7947 9.49414 20.8761 9.35566C20.9574 9.21718 21.0002 9.05946 21 8.89886ZM12.0204 12.3685L5.75348 8.86826L11.979 5.42833L18.2468 8.90156L12.0204 12.3685Z" fill="#344054"/>
<path d="M19.6634 11.7134L11.9996 15.9705L4.33585 11.7134L3.46191 13.2866L11.5622 17.7868C11.6959 17.861 11.8463 17.9 11.9992 17.9C12.1521 17.9 12.3025 17.861 12.4361 17.7868L20.5365 13.2866L19.6634 11.7134Z" fill="#344054"/>
<path d="M19.6634 15.3135L11.9996 19.5706L4.33585 15.3135L3.46191 16.8867L11.5622 21.3869C11.6959 21.4611 11.8463 21.5001 11.9992 21.5001C12.1521 21.5001 12.3025 21.4611 12.4361 21.3869L20.5365 16.8867L19.6634 15.3135Z" fill="#344054"/>
</svg>
