<svg width="24" height="24" viewBox="0 0 24 24" fill="none" xmlns="http://www.w3.org/2000/svg">
<path d="M15.6886 3L15.6555 4.14879C16.3623 4.16949 17.067 4.29964 17.734 4.5328L18.1132 3.44701C17.3327 3.17462 16.5149 3.02385 15.6886 3ZM14.4545 3.05841C13.6336 3.16011 12.8335 3.38855 12.0826 3.73559L12.5652 4.77953C13.2081 4.48235 13.8931 4.28657 14.5959 4.19915L14.4545 3.05841ZM19.2454 3.94322L18.7048 4.95819C19.3295 5.29197 19.8988 5.72052 20.3923 6.22862L21.2166 5.42704C20.6401 4.83348 19.9752 4.33292 19.2454 3.94322ZM7.78057 4.93704C7.36972 4.97658 6.96253 5.04777 6.56263 5.14996C6.16306 5.25196 5.77181 5.38417 5.39226 5.54546L5.84161 6.60366C6.49395 6.32614 7.18488 6.15004 7.89044 6.08146L7.78057 4.93704ZM10.0882 5.04925C9.99282 5.13479 9.89996 5.22262 9.80871 5.31253C9.77148 5.34909 9.73585 5.38703 9.69931 5.42428C9.64966 5.47487 9.60001 5.52546 9.55198 5.57743C9.50371 5.62939 9.45659 5.68274 9.40947 5.73609C9.32241 5.83491 9.23772 5.9358 9.1555 6.03869C9.14584 6.05111 9.13527 6.06283 9.12562 6.07502H9.12677C8.04535 7.44548 7.39673 9.17235 7.39673 11.0503C7.39673 14.5937 9.69747 17.6078 12.8831 18.6793C13.2155 18.7912 13.5548 18.8811 13.899 18.9484C13.9944 18.8628 14.0873 18.775 14.1785 18.6851C14.2157 18.6485 14.2514 18.6106 14.2879 18.5733C14.3376 18.5227 14.3872 18.4721 14.4352 18.4202C14.4835 18.3682 14.5306 18.3149 14.5777 18.2615C14.6648 18.1627 14.7495 18.0618 14.8317 17.9589C14.8414 17.9465 14.8519 17.9348 14.8616 17.9226H14.8605C15.9419 16.5521 16.5905 14.8253 16.5905 12.9473C16.5905 9.4039 14.2898 6.38981 11.1041 5.31828C10.7718 5.20635 10.4324 5.11648 10.0882 5.04925ZM4.29476 6.11549C3.59215 6.5522 2.96154 7.09535 2.42544 7.72555L3.30091 8.47102C3.75975 7.93152 4.29939 7.46643 4.90063 7.09229L4.29476 6.11549ZM22.0079 6.3751L21.0729 7.04331C21.4846 7.61976 21.8044 8.25661 22.021 8.93114L23.1155 8.58024C22.8626 7.79227 22.489 7.04836 22.0079 6.3751ZM1.6989 8.7258C1.26525 9.42971 0.942235 10.1961 0.741142 10.9981L1.85589 11.2775C2.02835 10.5898 2.30524 9.93263 2.67689 9.32894L1.6989 8.7258ZM23.4015 9.78353L22.2665 9.96266C22.377 10.6608 22.3786 11.3777 22.2729 12.0774L23.409 12.2494C23.5325 11.4331 23.5306 10.5996 23.4015 9.78353ZM0.533593 12.2168C0.457745 13.0404 0.510609 13.8735 0.689427 14.6799L1.81153 14.4311C1.65827 13.7396 1.61314 13.0284 1.67776 12.323L0.534053 12.2172L0.533593 12.2168ZM22.0346 13.111C21.8234 13.7872 21.5088 14.4265 21.1019 15.0062L22.0419 15.6678C22.5175 14.9906 22.8852 14.2436 23.1318 13.4536L22.0346 13.111ZM2.11883 15.4479L1.04683 15.8618C1.34493 16.634 1.76091 17.3552 2.27995 17.9998L3.17473 17.2776C2.73044 16.7259 2.37425 16.1087 2.11883 15.4479ZM20.4273 15.8244C19.9357 16.3354 19.369 16.7682 18.7467 17.1079L19.2957 18.1178C19.6583 17.9204 20.0051 17.6954 20.333 17.4448C20.6608 17.1942 20.9691 16.9191 21.2552 16.6218L20.4273 15.8244ZM17.7795 17.5409C17.1124 17.7793 16.4126 17.9134 15.7047 17.9382L15.7447 19.087C16.5712 19.0582 17.3884 18.9018 18.1672 18.6232L17.7797 17.5409H17.7795ZM3.9015 18.0495L3.12807 18.8998C3.73931 19.4563 4.43242 19.9154 5.1831 20.2611L5.66394 19.2165C5.02022 18.92 4.42582 18.5264 3.9015 18.0495ZM11.8028 19.0318C11.1772 19.3656 10.5043 19.6019 9.80733 19.7325L10.0188 20.8624C10.831 20.7104 11.6151 20.4352 12.3441 20.0461L11.8028 19.0318ZM6.65824 19.5851L6.34221 20.6909C7.13739 20.9186 7.96307 21.0217 8.78982 20.9962L8.75373 19.847C8.04591 19.8684 7.33903 19.7801 6.65824 19.5851Z" fill="#344054"/>
</svg>
