<svg width="169" height="32" viewBox="0 0 169 32" fill="none" xmlns="http://www.w3.org/2000/svg">
<path d="M47.5329 16.3707C47.3503 16.1741 47.1677 15.9983 46.9851 15.8396C47.108 15.7224 47.2309 15.5948 47.3503 15.4603L52.0667 9.83618H48.0351L45.324 13.0741C44.5865 13.95 44.137 14.3224 43.3292 14.3224C42.5215 14.3224 42.0755 13.9465 41.3345 13.0741L38.6234 9.83618H34.5917L39.3082 15.4603C39.4346 15.6017 39.561 15.7327 39.691 15.8569C39.5119 16.012 39.3363 16.1845 39.1607 16.3707L36.755 19.1051H31.993C29.2502 19.1051 27.547 17.4948 27.547 14.8983V9.99135H24V14.8983C24 20.6741 28.2283 22.1638 31.8314 22.1638H37.6611C38.1106 22.1638 38.3565 22.0672 38.5917 21.7914L41.2678 18.7431C42.0369 17.8741 42.504 17.5017 43.3433 17.5017C44.1826 17.5017 44.6497 17.8741 45.4188 18.7431L48.4144 22.1638H52.6216L47.5294 16.3741L47.5329 16.3707Z" fill="#009982"/>
<path d="M76.036 13.8C76.1273 13.4413 76.173 13.1069 76.173 12.8V10.3379H68.9245V11.3655H74.4978V12.8413C74.4978 13.1586 74.4838 13.4689 74.4557 13.7724C74.4276 14.0793 74.3644 14.3482 74.2696 14.5827H67.8253V15.6138H71.6602V17.2241H68.6611V18.2517H74.7717V21.4689H76.4469V17.2241H73.3424V15.6138H78.094V14.5827H75.7024C75.8358 14.4206 75.9482 14.162 76.0395 13.8H76.036Z" fill="#003B68"/>
<path d="M87.762 13.8C87.8533 13.4413 87.899 13.1069 87.899 12.8V10.3379H80.6505V11.3655H86.2238V12.8413C86.2238 13.1586 86.2098 13.4689 86.1817 13.7724C86.1536 14.0793 86.0904 14.3482 85.9955 14.5827H79.5513V15.6138H83.3862V17.2241H80.3871V18.2517H86.4977V21.4689H88.1729V17.2241H85.0684V15.6138H89.8235V14.5827H87.4319C87.5653 14.4206 87.6777 14.162 87.769 13.8H87.762Z" fill="#003B68"/>
<path d="M114.698 15.8068H119.235C119.646 15.8068 119.98 15.693 120.211 15.5034C120.447 15.3034 120.577 15.0517 120.577 14.6241V10.3689H118.902V12.0586H115.032V10.3689H113.356V14.6241C113.356 15.0551 113.486 15.3068 113.722 15.5034C113.95 15.6965 114.283 15.8068 114.698 15.8068ZM118.902 13.0827V14.8103H115.032V13.0827H118.902Z" fill="#003B68"/>
<path d="M93.1598 15.8413H98.8314V14.8138H93.4864V13.5482H98.6488V12.5206H93.4864V11.3689H98.8314V10.3379H91.8112V14.6241C91.8112 14.9862 91.9342 15.2793 92.1765 15.5034C92.4188 15.7275 92.7489 15.8413 93.1598 15.8413Z" fill="#003B68"/>
<path d="M129.142 12.6552C129.142 12.9793 129.125 13.2931 129.093 13.5931C129.061 13.8966 128.991 14.1655 128.886 14.4H130.301C130.435 14.2655 130.554 14.0138 130.659 13.6483C130.761 13.2828 130.817 12.9345 130.817 12.6V10.3586H123.576V11.4H129.146V12.6586L129.142 12.6552Z" fill="#003B68"/>
<path d="M126.86 12.9517H125.188V15.0896H122.343V16.1172H132.155V15.0896H126.86V12.9517Z" fill="#003B68"/>
<path d="M96.3344 16.7517H94.5609V18.6414H90.8103V19.669H100.18V18.6414H96.3344V16.7517Z" fill="#003B68"/>
<path d="M117.802 16.7517H116.127V18.6414H112.377V19.669H121.553V18.6414H117.802V16.7517Z" fill="#003B68"/>
<path d="M142.273 12.9484V10.269H140.598V21.4656H142.273V13.9725H144.004V12.9484H142.273Z" fill="#003B68"/>
<path d="M108.802 12.2345H106.972V13.2621H108.802V16.0655H110.477V10.3035H108.802V12.2345Z" fill="#003B68"/>
<path d="M104.377 14.3725C105.378 14.5725 106.709 15.238 107.39 15.8277L108.082 14.9863C107.586 14.4656 105.953 13.5484 105.058 13.2725C105.195 12.907 105.279 12.5104 105.279 12.0725V11.4346H107.225V10.407H101.655V11.4346H103.601V12.0725C103.601 12.8311 103.291 14.4518 101.248 14.8415V15.8518C101.5 15.8518 101.736 15.8035 101.975 15.7449C102.856 15.5311 103.745 15.0691 104.38 14.3725H104.377Z" fill="#003B68"/>
<path d="M65.1563 10.269H63.4812V17.2966H65.1563V13.8897H66.7367V12.8518H65.1563V10.269Z" fill="#003B68"/>
<path d="M59.8112 17.6553H58.136V20.2484C58.136 20.6277 58.2625 20.9242 58.5153 21.1415C58.7682 21.3587 59.0878 21.4656 59.4705 21.4656H65.5706V20.438H59.8112V17.6553Z" fill="#003B68"/>
<path d="M109.508 17.3034C108.886 16.793 108.131 16.5378 107.239 16.5378C106.347 16.5378 105.609 16.793 104.988 17.3034C104.366 17.8137 104.054 18.4275 104.054 19.1516C104.054 19.8758 104.363 20.4861 104.988 20.9896C105.609 21.493 106.361 21.7482 107.239 21.7482C108.117 21.7482 108.882 21.4965 109.508 20.9896C110.129 20.4861 110.438 19.8723 110.438 19.1516C110.438 18.4309 110.129 17.8137 109.508 17.3034ZM107.249 20.7206C106.41 20.7206 105.732 20.0103 105.732 19.1378C105.732 18.2654 106.41 17.5516 107.249 17.5516C108.089 17.5516 108.763 18.262 108.763 19.1378C108.763 20.0137 108.085 20.7206 107.249 20.7206Z" fill="#003B68"/>
<path d="M129.462 17.3034C128.844 16.793 128.085 16.5378 127.197 16.5378C126.308 16.5378 125.567 16.793 124.946 17.3034C124.324 17.8137 124.015 18.4275 124.015 19.1516C124.015 19.8758 124.324 20.4861 124.946 20.9896C125.567 21.493 126.319 21.7482 127.197 21.7482C128.075 21.7482 128.84 21.4965 129.462 20.9896C130.083 20.4861 130.396 19.8723 130.396 19.1516C130.396 18.4309 130.083 17.8137 129.462 17.3034ZM127.204 20.7206C126.368 20.7206 125.69 20.0103 125.69 19.1378C125.69 18.2654 126.368 17.5516 127.204 17.5516C128.04 17.5516 128.717 18.262 128.717 19.1378C128.717 20.0137 128.04 20.7206 127.204 20.7206Z" fill="#003B68"/>
<path d="M61.1598 15.5931C61.7709 15.1 62.0729 14.5 62.0729 13.7896C62.0729 13.131 61.806 12.5655 61.2792 12.0896H62.1993V11.0621H59.748V10.2517H58.0729V11.0586H55.6216V12.0862H56.6119C56.0852 12.5621 55.8183 13.131 55.8183 13.7862C55.8183 14.4931 56.1238 15.0965 56.7313 15.5896C57.3389 16.0862 58.0764 16.331 58.9368 16.331C59.7972 16.331 60.5487 16.0827 61.1563 15.5896L61.1598 15.5931ZM57.4618 13.7758C57.4618 12.9172 58.1255 12.2207 58.9473 12.2207C59.7691 12.2207 60.4328 12.9172 60.4328 13.7758C60.4328 14.6345 59.7691 15.3276 58.9473 15.3276C58.1255 15.3276 57.4618 14.631 57.4618 13.7758Z" fill="#003B68"/>
<path d="M137.234 14.0309C137.346 13.7137 137.413 13.3481 137.413 12.9309V10.3757H135.671V12.5964C135.671 13.9137 135.183 15.193 133.318 15.5999V16.7171C133.922 16.6723 135.025 16.3102 135.583 15.9309C135.818 15.7688 136.177 15.5344 136.51 15.1861C137.455 15.555 138.354 16.1723 139.018 16.8585L139.839 16.0033C139.485 15.3757 138.122 14.4206 137.23 14.0275L137.234 14.0309Z" fill="#003B68"/>
</svg>
