<svg width="20" height="20" viewBox="0 0 20 20" fill="none" xmlns="http://www.w3.org/2000/svg">
<rect x="0.5" y="0.5" width="19" height="19" rx="1.5" stroke="#DFE2E7"/>
<path d="M9.99972 11.4612C9.60666 11.4612 9.2297 11.3072 8.95177 11.0332C8.67383 10.7592 8.51769 10.3875 8.51769 10C8.51769 9.61247 8.67383 9.24081 8.95177 8.96679C9.2297 8.69276 9.60666 8.53882 9.99972 8.53882C10.3928 8.53882 10.7697 8.69276 11.0477 8.96679C11.3256 9.24081 11.4817 9.61247 11.4817 10C11.4817 10.3875 11.3256 10.7592 11.0477 11.0332C10.7697 11.3072 10.3928 11.4612 9.99972 11.4612ZM15.3368 11.4612C14.9438 11.4612 14.5668 11.3072 14.2889 11.0332C14.0109 10.7592 13.8548 10.3875 13.8548 10C13.8548 9.61247 14.0109 9.24081 14.2889 8.96679C14.5668 8.69276 14.9438 8.53882 15.3368 8.53882C15.7299 8.53882 16.1068 8.69276 16.3848 8.96679C16.6627 9.24081 16.8188 9.61247 16.8188 10C16.8188 10.3875 16.6627 10.7592 16.3848 11.0332C16.1068 11.3072 15.7299 11.4612 15.3368 11.4612ZM4.66318 11.4612C4.27012 11.4612 3.89316 11.3072 3.61523 11.0332C3.33729 10.7592 3.18115 10.3875 3.18115 10C3.18115 9.61247 3.33729 9.24081 3.61523 8.96679C3.89316 8.69276 4.27012 8.53882 4.66318 8.53882C5.05623 8.53882 5.43319 8.69276 5.71113 8.96679C5.98906 9.24081 6.1452 9.61247 6.1452 10C6.1452 10.3875 5.98906 10.7592 5.71113 11.0332C5.43319 11.3072 5.05623 11.4612 4.66318 11.4612Z" fill="#444951"/>
</svg>
