<svg width="20" height="20" viewBox="0 0 20 20" fill="none" xmlns="http://www.w3.org/2000/svg">
<rect x="0.5" y="0.5" width="19" height="19" rx="1.5" stroke="#DFE2E7"/>
<path d="M9.99996 12.1475L7.05163 9.19833L7.64079 8.59917L9.58329 10.5417V5H10.4166V10.5417L12.3583 8.6L12.9483 9.19833L9.99996 12.1475ZM5.51246 15C5.12913 15 4.80913 14.8717 4.55246 14.615C4.29579 14.3583 4.16718 14.0381 4.16663 13.6542V11.635H4.99996V13.6542C4.99996 13.7819 5.05329 13.8994 5.15996 14.0067C5.26663 14.1139 5.38413 14.1672 5.51246 14.1667H14.4875C14.6152 14.1667 14.7327 14.1133 14.84 14.0067C14.9472 13.9 15.0005 13.7825 15 13.6542V11.635H15.8333V13.6542C15.8333 14.0375 15.705 14.3575 15.4483 14.6142C15.1916 14.8708 14.8713 14.9994 14.4875 15H5.51246Z" fill="white"/>
</svg>
