<svg width="20" height="24" viewBox="0 0 20 24" fill="none" xmlns="http://www.w3.org/2000/svg">
<path d="M19.7067 10.7079C19.6139 10.8009 19.5036 10.8747 19.3822 10.925C19.2608 10.9753 19.1307 11.0012 18.9993 11.0012C18.8679 11.0012 18.7378 10.9753 18.6164 10.925C18.495 10.8747 18.3847 10.8009 18.2918 10.7079L10.9998 3.41442V23C10.9998 23.2652 10.8945 23.5196 10.7069 23.7071C10.5194 23.8946 10.2651 24 9.99988 24C9.73469 24 9.48035 23.8946 9.29283 23.7071C9.1053 23.5196 8.99995 23.2652 8.99995 23V3.41442L1.70794 10.7079C1.52031 10.8956 1.26584 11.001 1.00049 11.001C0.735143 11.001 0.480664 10.8956 0.293036 10.7079C0.105408 10.5203 1.97698e-09 10.2658 0 10.0005C-1.97698e-09 9.7351 0.105408 9.48062 0.293036 9.29298L9.29243 0.293277C9.3853 0.200304 9.49558 0.126547 9.61697 0.0762245C9.73836 0.0259018 9.86848 0 9.99988 0C10.1313 0 10.2614 0.0259018 10.3828 0.0762245C10.5042 0.126547 10.6145 0.200304 10.7073 0.293277L19.7067 9.29298C19.7997 9.38585 19.8735 9.49614 19.9238 9.61753C19.9741 9.73893 20 9.86905 20 10.0005C20 10.1319 19.9741 10.262 19.9238 10.3834C19.8735 10.5048 19.7997 10.6151 19.7067 10.7079Z" fill="white"/>
</svg>
