<svg width="18" height="16" viewBox="0 0 18 16" fill="none" xmlns="http://www.w3.org/2000/svg">
<path d="M11.1458 10.1452H14.007L16.1529 15.1523H1.84686L3.99276 10.1452H6.85396M9.71516 5.13815C9.71516 5.32786 9.6398 5.5098 9.50565 5.64394C9.37151 5.77809 9.18957 5.85345 8.99986 5.85345C8.81015 5.85345 8.62821 5.77809 8.49407 5.64394C8.35992 5.5098 8.28456 5.32786 8.28456 5.13815C8.28456 4.94844 8.35992 4.7665 8.49407 4.63236C8.62821 4.49821 8.81015 4.42285 8.99986 4.42285C9.18957 4.42285 9.37151 4.49821 9.50565 4.63236C9.6398 4.7665 9.71516 4.94844 9.71516 5.13815ZM4.70806 5.13815C4.70806 8.71465 8.99986 12.2911 8.99986 12.2911C8.99986 12.2911 13.2917 8.71465 13.2917 5.13815C13.2917 2.69397 11.3704 0.846352 8.99986 0.846352C6.62936 0.846352 4.70806 2.69397 4.70806 5.13815Z" stroke="#7A828F" stroke-width="1.2"/>
</svg>
