<svg width="24" height="24" viewBox="0 0 24 24" fill="none" xmlns="http://www.w3.org/2000/svg">
<path d="M20.5793 7.07925L16.9208 3.42075C16.752 3.252 16.545 3.12825 16.32 3.06075V3H3.72C3.32175 3 3 3.32175 3 3.72V20.28C3 20.6783 3.32175 21 3.72 21H20.28C20.6783 21 21 20.6783 21 20.28V8.09625C21 7.71375 20.8493 7.34925 20.5793 7.07925ZM9.12 4.62H14.88V6.96H9.12V4.62ZM19.38 19.38H4.62V4.62H7.68V7.68C7.68 8.07825 8.00175 8.4 8.4 8.4H15.6C15.9983 8.4 16.32 8.07825 16.32 7.68V5.1105L19.38 8.1705V19.38ZM12 10.425C10.2113 10.425 8.76 11.8763 8.76 13.665C8.76 15.4538 10.2113 16.905 12 16.905C13.7888 16.905 15.24 15.4538 15.24 13.665C15.24 11.8763 13.7888 10.425 12 10.425ZM12 15.465C11.0055 15.465 10.2 14.6595 10.2 13.665C10.2 12.6705 11.0055 11.865 12 11.865C12.9945 11.865 13.8 12.6705 13.8 13.665C13.8 14.6595 12.9945 15.465 12 15.465Z" fill="#344054"/>
</svg>
