<svg width="24" height="24" viewBox="0 0 24 24" fill="none" xmlns="http://www.w3.org/2000/svg">
<g clip-path="url(#clip0_74_19160)">
<path d="M12.5688 18.6022C12.4636 14.9828 9.56013 12.058 5.95578 11.9523V5.24707H5.55029V19.01H18.9064V18.6022H12.5638H12.5688ZM5.95578 12.3601C9.33486 12.4658 12.0581 15.2043 12.1633 18.6022H5.95578V12.3601Z" fill="#344054"/>
<path d="M17.8352 11.2114L17.8352 8.1958L17.2235 8.1958L17.2235 11.2114L17.8352 11.2114Z" fill="#344054"/>
<path d="M16.0002 8.64246L17.5294 6L19.0525 8.64246L16.0002 8.64246Z" fill="#344054"/>
<path d="M16.0002 10.7651L17.5294 13.4015L19.0525 10.7651L16.0002 10.7651Z" fill="#344054"/>
<path d="M5.75557 6.62111C6.51035 6.62111 7.12221 6.00583 7.12221 5.24683C7.12221 4.48784 6.51035 3.87256 5.75557 3.87256C5.00079 3.87256 4.38892 4.48784 4.38892 5.24683C4.38892 6.00583 5.00079 6.62111 5.75557 6.62111Z" fill="#CC2140"/>
<path d="M5.75557 20.1826C6.51035 20.1826 7.12221 19.5674 7.12221 18.8084C7.12221 18.0494 6.51035 17.4341 5.75557 17.4341C5.00079 17.4341 4.38892 18.0494 4.38892 18.8084C4.38892 19.5674 5.00079 20.1826 5.75557 20.1826Z" fill="#CC2140"/>
<path d="M18.9113 20.1826C19.6661 20.1826 20.278 19.5674 20.278 18.8084C20.278 18.0494 19.6661 17.4341 18.9113 17.4341C18.1565 17.4341 17.5447 18.0494 17.5447 18.8084C17.5447 19.5674 18.1565 20.1826 18.9113 20.1826Z" fill="#CC2140"/>
<path d="M22.0001 22H2.66675V2H22.0001V22ZM3.16735 21.4966H21.4995V2.5034H3.16735V21.4966Z" fill="#344054"/>
</g>
<defs>
<clipPath id="clip0_74_19160">
<rect width="19.3333" height="20" fill="white" transform="translate(2.66675 2)"/>
</clipPath>
</defs>
</svg>
