<svg width="36" height="25" viewBox="0 0 36 25" fill="none" xmlns="http://www.w3.org/2000/svg">
<path d="M10.5 14.75C11.7426 14.75 12.75 13.7426 12.75 12.5C12.75 11.2574 11.7426 10.25 10.5 10.25C9.25736 10.25 8.25 11.2574 8.25 12.5C8.25 13.7426 9.25736 14.75 10.5 14.75Z" fill="black"/>
<path d="M18 14.75C19.2426 14.75 20.25 13.7426 20.25 12.5C20.25 11.2574 19.2426 10.25 18 10.25C16.7574 10.25 15.75 11.2574 15.75 12.5C15.75 13.7426 16.7574 14.75 18 14.75Z" fill="black"/>
<path d="M25.5 14.75C26.7426 14.75 27.75 13.7426 27.75 12.5C27.75 11.2574 26.7426 10.25 25.5 10.25C24.2574 10.25 23.25 11.2574 23.25 12.5C23.25 13.7426 24.2574 14.75 25.5 14.75Z" fill="black"/>
</svg>
