<svg width="168" height="36" viewBox="0 0 168 36" fill="none" xmlns="http://www.w3.org/2000/svg">
<path d="M47.5329 18.3707C47.3503 18.1741 47.1677 17.9983 46.9851 17.8396C47.108 17.7224 47.2309 17.5948 47.3503 17.4603L52.0667 11.8362H48.0351L45.324 15.0741C44.5865 15.95 44.137 16.3224 43.3292 16.3224C42.5215 16.3224 42.0755 15.9465 41.3345 15.0741L38.6234 11.8362H34.5917L39.3082 17.4603C39.4346 17.6017 39.561 17.7327 39.691 17.8569C39.5119 18.012 39.3363 18.1845 39.1607 18.3707L36.755 21.1051H31.993C29.2502 21.1051 27.547 19.4948 27.547 16.8983V11.9914H24V16.8983C24 22.6741 28.2283 24.1638 31.8314 24.1638H37.6611C38.1106 24.1638 38.3565 24.0672 38.5917 23.7914L41.2678 20.7431C42.0369 19.8741 42.504 19.5017 43.3433 19.5017C44.1826 19.5017 44.6497 19.8741 45.4188 20.7431L48.4144 24.1638H52.6216L47.5294 18.3741L47.5329 18.3707Z" fill="#00A991"/>
<path d="M76.0359 15.8C76.1272 15.4413 76.1729 15.1069 76.1729 14.8V12.3379H68.9244V13.3655H74.4977V14.8413C74.4977 15.1586 74.4837 15.4689 74.4556 15.7724C74.4275 16.0793 74.3643 16.3482 74.2694 16.5827H67.8252V17.6138H71.6601V19.2241H68.661V20.2517H74.7716V23.4689H76.4468V19.2241H73.3423V17.6138H78.0939V16.5827H75.7023C75.8357 16.4206 75.9481 16.162 76.0394 15.8H76.0359Z" fill="#003B68"/>
<path d="M87.762 15.8C87.8533 15.4413 87.8989 15.1069 87.8989 14.8V12.3379H80.6505V13.3655H86.2238V14.8413C86.2238 15.1586 86.2097 15.4689 86.1816 15.7724C86.1536 16.0793 86.0903 16.3482 85.9955 16.5827H79.5513V17.6138H83.3862V19.2241H80.3871V20.2517H86.4977V23.4689H88.1729V19.2241H85.0684V17.6138H89.8234V16.5827H87.4319C87.5653 16.4206 87.6777 16.162 87.769 15.8H87.762Z" fill="#003B68"/>
<path d="M114.698 17.8068H119.235C119.646 17.8068 119.98 17.693 120.212 17.5034C120.447 17.3034 120.577 17.0517 120.577 16.6241V12.3689H118.902V14.0586H115.032V12.3689H113.356V16.6241C113.356 17.0551 113.486 17.3068 113.722 17.5034C113.95 17.6965 114.284 17.8068 114.698 17.8068ZM118.902 15.0827V16.8103H115.032V15.0827H118.902Z" fill="#003B68"/>
<path d="M93.1598 17.8413H98.8315V16.8138H93.4864V15.5482H98.6489V14.5206H93.4864V13.3689H98.8315V12.3379H91.8113V16.6241C91.8113 16.9862 91.9342 17.2793 92.1765 17.5034C92.4188 17.7275 92.7489 17.8413 93.1598 17.8413Z" fill="#003B68"/>
<path d="M129.142 14.6552C129.142 14.9793 129.125 15.2931 129.093 15.5931C129.061 15.8966 128.991 16.1655 128.886 16.4H130.301C130.435 16.2655 130.554 16.0138 130.659 15.6483C130.761 15.2828 130.817 14.9345 130.817 14.6V12.3586H123.576V13.4H129.146V14.6586L129.142 14.6552Z" fill="#003B68"/>
<path d="M126.86 14.9517H125.188V17.0896H122.343V18.1172H132.155V17.0896H126.86V14.9517Z" fill="#003B68"/>
<path d="M96.3345 18.7517H94.561V20.6414H90.8103V21.669H100.18V20.6414H96.3345V18.7517Z" fill="#003B68"/>
<path d="M117.803 18.7517H116.127V20.6414H112.377V21.669H121.553V20.6414H117.803V18.7517Z" fill="#003B68"/>
<path d="M142.273 14.9484V12.269H140.598V23.4656H142.273V15.9725H144.004V14.9484H142.273Z" fill="#003B68"/>
<path d="M108.802 14.2345H106.972V15.2621H108.802V18.0655H110.477V12.3035H108.802V14.2345Z" fill="#003B68"/>
<path d="M104.377 16.3725C105.377 16.5725 106.708 17.238 107.39 17.8277L108.082 16.9863C107.586 16.4656 105.953 15.5484 105.058 15.2725C105.195 14.907 105.279 14.5104 105.279 14.0725V13.4346H107.225V12.407H101.655V13.4346H103.6V14.0725C103.6 14.8311 103.291 16.4518 101.248 16.8415V17.8518C101.5 17.8518 101.736 17.8035 101.975 17.7449C102.856 17.5311 103.744 17.0691 104.38 16.3725H104.377Z" fill="#003B68"/>
<path d="M65.1564 12.269H63.4812V19.2966H65.1564V15.8897H66.7367V14.8518H65.1564V12.269Z" fill="#003B68"/>
<path d="M59.8111 19.6553H58.136V22.2484C58.136 22.6277 58.2624 22.9242 58.5153 23.1415C58.7681 23.3587 59.0877 23.4656 59.4705 23.4656H65.5706V22.438H59.8111V19.6553Z" fill="#003B68"/>
<path d="M109.508 19.3034C108.886 18.793 108.131 18.5378 107.239 18.5378C106.347 18.5378 105.609 18.793 104.988 19.3034C104.366 19.8137 104.054 20.4275 104.054 21.1516C104.054 21.8758 104.363 22.4861 104.988 22.9896C105.609 23.493 106.361 23.7482 107.239 23.7482C108.117 23.7482 108.883 23.4965 109.508 22.9896C110.129 22.4861 110.438 21.8723 110.438 21.1516C110.438 20.4309 110.129 19.8137 109.508 19.3034ZM107.249 22.7206C106.41 22.7206 105.732 22.0103 105.732 21.1378C105.732 20.2654 106.41 19.5516 107.249 19.5516C108.089 19.5516 108.763 20.262 108.763 21.1378C108.763 22.0137 108.085 22.7206 107.249 22.7206Z" fill="#003B68"/>
<path d="M129.462 19.3034C128.844 18.793 128.085 18.5378 127.197 18.5378C126.308 18.5378 125.567 18.793 124.946 19.3034C124.324 19.8137 124.015 20.4275 124.015 21.1516C124.015 21.8758 124.324 22.4861 124.946 22.9896C125.567 23.493 126.319 23.7482 127.197 23.7482C128.075 23.7482 128.84 23.4965 129.462 22.9896C130.083 22.4861 130.396 21.8723 130.396 21.1516C130.396 20.4309 130.083 19.8137 129.462 19.3034ZM127.204 22.7206C126.368 22.7206 125.69 22.0103 125.69 21.1378C125.69 20.2654 126.368 19.5516 127.204 19.5516C128.039 19.5516 128.717 20.262 128.717 21.1378C128.717 22.0137 128.039 22.7206 127.204 22.7206Z" fill="#003B68"/>
<path d="M61.1598 17.5931C61.7708 17.1 62.0729 16.5 62.0729 15.7896C62.0729 15.131 61.806 14.5655 61.2792 14.0896H62.1993V13.0621H59.748V12.2517H58.0729V13.0586H55.6216V14.0862H56.6119C56.0851 14.5621 55.8182 15.131 55.8182 15.7862C55.8182 16.4931 56.1238 17.0965 56.7313 17.5896C57.3389 18.0862 58.0764 18.331 58.9368 18.331C59.7972 18.331 60.5487 18.0827 61.1563 17.5896L61.1598 17.5931ZM57.4618 15.7758C57.4618 14.9172 58.1255 14.2207 58.9473 14.2207C59.7691 14.2207 60.4328 14.9172 60.4328 15.7758C60.4328 16.6345 59.7691 17.3276 58.9473 17.3276C58.1255 17.3276 57.4618 16.631 57.4618 15.7758Z" fill="#003B68"/>
<path d="M137.234 16.0309C137.346 15.7137 137.413 15.3481 137.413 14.9309V12.3757H135.671V14.5964C135.671 15.9137 135.183 17.193 133.318 17.5999V18.7171C133.922 18.6723 135.025 18.3102 135.583 17.9309C135.818 17.7688 136.177 17.5344 136.51 17.1861C137.455 17.555 138.354 18.1723 139.018 18.8585L139.839 18.0033C139.485 17.3757 138.122 16.4206 137.23 16.0275L137.234 16.0309Z" fill="#003B68"/>
</svg>
