<svg width="318" height="34" viewBox="0 0 318 34" fill="none" xmlns="http://www.w3.org/2000/svg">
<g clip-path="url(#clip0_1153_39)">
<path d="M137.884 12.39C138.126 11.4145 138.247 10.5047 138.247 9.66997V2.97314H119.038V5.76818H133.808V9.78253C133.808 10.6454 133.77 11.4896 133.696 12.3149C133.622 13.1497 133.454 13.8813 133.203 14.5191H116.125V17.3235H126.288V21.7036H118.34V24.4987H134.534V33.2496H138.973V21.7036H130.746V17.3235H143.337V14.5191H137C137.353 14.0782 137.651 13.3748 137.893 12.39H137.884Z" fill="white"/>
<path d="M168.958 12.39C169.2 11.4145 169.321 10.5047 169.321 9.66997V2.97314H150.112V5.76818H164.882V9.78253C164.882 10.6454 164.844 11.4896 164.77 12.3149C164.696 13.1497 164.528 13.8813 164.277 14.5191H147.199V17.3235H157.362V21.7036H149.414V24.4987H165.608V33.2496H170.047V21.7036H161.82V17.3235H174.421V14.5191H168.083C168.437 14.0782 168.735 13.3748 168.976 12.39H168.958Z" fill="white"/>
<path d="M240.338 17.8488H252.362C253.451 17.8488 254.335 17.5393 254.949 17.0234C255.573 16.4794 255.917 15.7947 255.917 14.6317V3.05762H251.478V7.65348H241.222V3.05762H236.783V14.6317C236.783 15.8041 237.127 16.4888 237.751 17.0234C238.356 17.5486 239.24 17.8488 240.338 17.8488ZM251.478 10.4391V15.1382H241.222V10.4391H251.478Z" fill="white"/>
<path d="M183.262 17.9425H198.292V15.1475H184.127V11.7053H197.808V8.91025H184.127V5.77756H198.292V2.97314H179.688V14.6316C179.688 15.6165 180.014 16.4137 180.656 17.0233C181.298 17.633 182.173 17.9425 183.262 17.9425Z" fill="white"/>
<path d="M278.615 9.27616C278.615 10.1578 278.569 11.0113 278.485 11.8273C278.401 12.6527 278.215 13.3843 277.936 14.0221H281.687C282.04 13.6563 282.357 12.9716 282.636 11.9774C282.906 10.9832 283.055 10.0359 283.055 9.12609V3.02954H263.865V5.86209H278.625V9.28554L278.615 9.27616Z" fill="white"/>
<path d="M272.566 10.0828H268.136V15.8979H260.598V18.693H286.6V15.8979H272.566V10.0828Z" fill="white"/>
<path d="M191.675 20.4187H186.975V25.5586H177.036V28.3536H201.865V25.5586H191.675V20.4187Z" fill="white"/>
<path d="M248.565 20.4187H244.126V25.5586H234.187V28.3536H258.504V25.5586H248.565V20.4187Z" fill="white"/>
<path d="M313.412 10.0734V2.78564H308.973V33.2403H313.412V12.859H318V10.0734H313.412Z" fill="white"/>
<path d="M224.713 8.13181H219.864V10.9268H224.713V18.5522H229.152V2.87939H224.713V8.13181Z" fill="white"/>
<path d="M212.987 13.9471C215.639 14.4911 219.166 16.3013 220.971 17.9052L222.805 15.6166C221.493 14.2003 217.165 11.7054 214.792 10.9551C215.155 9.96089 215.378 8.88227 215.378 7.6911V5.95592H220.534V3.16089H205.774V5.95592H210.93V7.6911C210.93 9.75454 210.111 14.1628 204.695 15.2227V17.9708C205.365 17.9708 205.988 17.8395 206.621 17.6801C208.957 17.0985 211.311 15.8417 212.996 13.9471H212.987Z" fill="white"/>
<path d="M109.053 2.78564H104.614V21.9007H109.053V12.6339H113.241V9.81075H109.053V2.78564Z" fill="white"/>
<path d="M94.8881 22.8762H90.449V29.9295C90.449 30.9612 90.784 31.7678 91.4541 32.3587C92.1241 32.9496 92.971 33.2404 93.9854 33.2404H110.151V30.4453H94.8881V22.8762Z" fill="white"/>
<path d="M226.583 21.9194C224.936 20.5312 222.935 19.8372 220.571 19.8372C218.207 19.8372 216.253 20.5312 214.606 21.9194C212.959 23.3075 212.13 24.977 212.13 26.9467C212.13 28.9163 212.949 30.5765 214.606 31.9459C216.253 33.3152 218.245 34.0093 220.571 34.0093C222.898 34.0093 224.927 33.3246 226.583 31.9459C228.23 30.5765 229.049 28.907 229.049 26.9467C229.049 24.9864 228.23 23.3075 226.583 21.9194ZM220.599 31.2143C218.375 31.2143 216.579 29.2821 216.579 26.9092C216.579 24.5362 218.375 22.5947 220.599 22.5947C222.823 22.5947 224.61 24.5268 224.61 26.9092C224.61 29.2915 222.814 31.2143 220.599 31.2143Z" fill="white"/>
<path d="M279.462 21.9194C277.824 20.5312 275.814 19.8372 273.459 19.8372C271.105 19.8372 269.141 20.5312 267.494 21.9194C265.847 23.3075 265.028 24.977 265.028 26.9467C265.028 28.9163 265.847 30.5765 267.494 31.9459C269.141 33.3152 271.133 34.0093 273.459 34.0093C275.786 34.0093 277.815 33.3246 279.462 31.9459C281.109 30.5765 281.938 28.907 281.938 26.9467C281.938 24.9864 281.109 23.3075 279.462 21.9194ZM273.478 31.2143C271.263 31.2143 269.467 29.2821 269.467 26.9092C269.467 24.5362 271.263 22.5947 273.478 22.5947C275.693 22.5947 277.489 24.5268 277.489 26.9092C277.489 29.2915 275.693 31.2143 273.478 31.2143Z" fill="white"/>
<path d="M98.4619 17.2673C100.081 15.9261 100.882 14.2941 100.882 12.3619C100.882 10.5705 100.174 9.03229 98.7783 7.73794H101.217V4.94291H94.7207V2.73877H90.2815V4.93353H83.7856V7.72856H86.4101C85.0141 9.02291 84.3068 10.5705 84.3068 12.3526C84.3068 14.2753 85.1165 15.9167 86.7265 17.2579C88.3365 18.6086 90.2908 19.2745 92.5709 19.2745C94.851 19.2745 96.8425 18.5992 98.4525 17.2579L98.4619 17.2673ZM88.6622 12.3244C88.6622 9.98898 90.4211 8.09436 92.5988 8.09436C94.7765 8.09436 96.5354 9.98898 96.5354 12.3244C96.5354 14.6599 94.7765 16.5451 92.5988 16.5451C90.4211 16.5451 88.6622 14.6505 88.6622 12.3244Z" fill="white"/>
<path d="M300.057 13.0185C300.355 12.1556 300.532 11.1614 300.532 10.0265V3.07642H295.916V9.11669C295.916 12.6996 294.622 16.1793 289.681 17.2861V20.325C291.281 20.203 294.204 19.2182 295.683 18.1865C296.307 17.7457 297.256 17.1079 298.14 16.1606C300.644 17.1641 303.026 18.843 304.785 20.7095L306.963 18.3834C306.023 16.6764 302.412 14.0783 300.048 13.0091L300.057 13.0185Z" fill="white"/>
<path d="M62.3622 17.7738C61.8783 17.2392 61.3944 16.7608 60.9104 16.3294C61.2362 16.0105 61.5619 15.6635 61.8783 15.2977L74.3768 0H63.6931L56.5085 8.80717C54.5542 11.1895 53.3629 12.2025 51.2225 12.2025C49.082 12.2025 47.9001 11.1801 45.9364 8.80717L38.7519 0H28.0681L40.5666 15.2977C40.9017 15.6822 41.2367 16.0386 41.581 16.3763C41.1064 16.7983 40.6411 17.2673 40.1758 17.7738L33.8009 25.2116H21.1814C13.9131 25.2116 9.39947 20.8315 9.39947 13.7688V0.422069H0V13.7688C0 29.4792 11.2049 33.531 20.7533 33.531H36.2019C37.3932 33.531 38.0446 33.2684 38.6681 32.5181L45.7596 24.2268C47.7977 21.8632 49.0355 20.8502 51.2597 20.8502C53.4839 20.8502 54.7217 21.8632 56.7598 24.2268L64.6982 33.531H75.8472L62.3529 17.7832L62.3622 17.7738Z" fill="white"/>
</g>
<defs>
<clipPath id="clip0_1153_39">
<rect width="318" height="34" fill="white"/>
</clipPath>
</defs>
</svg>
