<svg width="318" height="34" viewBox="0 0 318 34" fill="none" xmlns="http://www.w3.org/2000/svg">
<g clip-path="url(#clip0_163_11813)">
<path d="M137.883 12.39C138.125 11.4145 138.246 10.5047 138.246 9.66997V2.97314H119.038V5.76818H133.807V9.78253C133.807 10.6454 133.77 11.4896 133.696 12.3149C133.621 13.1497 133.454 13.8813 133.202 14.5191H116.125V17.3235H126.288V21.7036H118.34V24.4987H134.533V33.2496H138.972V21.7036H130.745V17.3235H143.337V14.5191H136.999C137.353 14.0782 137.651 13.3748 137.893 12.39H137.883Z" fill="white"/>
<path d="M168.958 12.39C169.2 11.4145 169.321 10.5047 169.321 9.66997V2.97314H150.112V5.76818H164.881V9.78253C164.881 10.6454 164.844 11.4896 164.77 12.3149C164.695 13.1497 164.528 13.8813 164.276 14.5191H147.199V17.3235H157.362V21.7036H149.414V24.4987H165.607V33.2496H170.046V21.7036H161.82V17.3235H174.42V14.5191H168.083C168.436 14.0782 168.734 13.3748 168.976 12.39H168.958Z" fill="white"/>
<path d="M240.338 17.8488H252.362C253.451 17.8488 254.335 17.5393 254.949 17.0234C255.573 16.4794 255.917 15.7947 255.917 14.6317V3.05762H251.478V7.65348H241.222V3.05762H236.783V14.6317C236.783 15.8041 237.128 16.4888 237.751 17.0234C238.356 17.5486 239.24 17.8488 240.338 17.8488ZM251.478 10.4391V15.1382H241.222V10.4391H251.478Z" fill="white"/>
<path d="M183.261 17.9425H198.291V15.1475H184.127V11.7053H197.807V8.91025H184.127V5.77756H198.291V2.97314H179.688V14.6316C179.688 15.6165 180.013 16.4137 180.655 17.0233C181.298 17.633 182.172 17.9425 183.261 17.9425Z" fill="white"/>
<path d="M278.614 9.27616C278.614 10.1578 278.567 11.0113 278.484 11.8273C278.4 12.6527 278.214 13.3843 277.935 14.0221H281.685C282.039 13.6563 282.355 12.9716 282.634 11.9774C282.904 10.9832 283.053 10.0359 283.053 9.12609V3.02954H263.863V5.86209H278.623V9.28554L278.614 9.27616Z" fill="white"/>
<path d="M272.566 10.0828H268.136V15.8979H260.598V18.693H286.6V15.8979H272.566V10.0828Z" fill="white"/>
<path d="M191.674 20.4187H186.974V25.5586H177.035V28.3536H201.865V25.5586H191.674V20.4187Z" fill="white"/>
<path d="M248.564 20.4187H244.125V25.5586H234.186V28.3536H258.503V25.5586H248.564V20.4187Z" fill="white"/>
<path d="M313.412 10.0734V2.78564H308.973V33.2403H313.412V12.859H318V10.0734H313.412Z" fill="white"/>
<path d="M224.712 8.13181H219.863V10.9268H224.712V18.5522H229.151V2.87939H224.712V8.13181Z" fill="white"/>
<path d="M212.985 13.9471C215.638 14.4911 219.165 16.3013 220.97 17.9052L222.804 15.6166C221.491 14.2003 217.164 11.7054 214.791 10.9551C215.154 9.96089 215.377 8.88227 215.377 7.6911V5.95592H220.533V3.16089H205.773V5.95592H210.929V7.6911C210.929 9.75454 210.11 14.1628 204.693 15.2227V17.9708C205.363 17.9708 205.987 17.8395 206.62 17.6801C208.956 17.0985 211.31 15.8417 212.995 13.9471H212.985Z" fill="white"/>
<path d="M109.052 2.78564H104.613V21.9007H109.052V12.6339H113.24V9.81075H109.052V2.78564Z" fill="white"/>
<path d="M94.8884 22.8762H90.4492V29.9295C90.4492 30.9612 90.7842 31.7678 91.4543 32.3587C92.1244 32.9496 92.9713 33.2404 93.9856 33.2404H110.151V30.4453H94.8884V22.8762Z" fill="white"/>
<path d="M226.582 21.9194C224.935 20.5312 222.934 19.8372 220.57 19.8372C218.206 19.8372 216.252 20.5312 214.604 21.9194C212.957 23.3075 212.129 24.977 212.129 26.9467C212.129 28.9163 212.948 30.5765 214.604 31.9459C216.252 33.3152 218.243 34.0093 220.57 34.0093C222.896 34.0093 224.925 33.3246 226.582 31.9459C228.229 30.5765 229.048 28.907 229.048 26.9467C229.048 24.9864 228.229 23.3075 226.582 21.9194ZM220.598 31.2143C218.373 31.2143 216.577 29.2821 216.577 26.9092C216.577 24.5362 218.373 22.5947 220.598 22.5947C222.822 22.5947 224.609 24.5268 224.609 26.9092C224.609 29.2915 222.813 31.2143 220.598 31.2143Z" fill="white"/>
<path d="M279.462 21.9194C277.824 20.5312 275.813 19.8372 273.459 19.8372C271.104 19.8372 269.141 20.5312 267.494 21.9194C265.846 23.3075 265.027 24.977 265.027 26.9467C265.027 28.9163 265.846 30.5765 267.494 31.9459C269.141 33.3152 271.132 34.0093 273.459 34.0093C275.786 34.0093 277.814 33.3246 279.462 31.9459C281.109 30.5765 281.937 28.907 281.937 26.9467C281.937 24.9864 281.109 23.3075 279.462 21.9194ZM273.478 31.2143C271.263 31.2143 269.466 29.2821 269.466 26.9092C269.466 24.5362 271.263 22.5947 273.478 22.5947C275.692 22.5947 277.489 24.5268 277.489 26.9092C277.489 29.2915 275.692 31.2143 273.478 31.2143Z" fill="white"/>
<path d="M98.4614 17.2673C100.081 15.9261 100.881 14.2941 100.881 12.3619C100.881 10.5705 100.174 9.03229 98.7778 7.73794H101.216V4.94291H94.7202V2.73877H90.281V4.93353H83.7852V7.72856H86.4096C85.0136 9.02291 84.3063 10.5705 84.3063 12.3526C84.3063 14.2753 85.116 15.9167 86.726 17.2579C88.336 18.6086 90.2903 19.2745 92.5704 19.2745C94.8505 19.2745 96.842 18.5992 98.4521 17.2579L98.4614 17.2673ZM88.6617 12.3244C88.6617 9.98898 90.4206 8.09436 92.5983 8.09436C94.776 8.09436 96.5349 9.98898 96.5349 12.3244C96.5349 14.6599 94.776 16.5451 92.5983 16.5451C90.4206 16.5451 88.6617 14.6505 88.6617 12.3244Z" fill="white"/>
<path d="M300.056 13.0185C300.354 12.1556 300.531 11.1614 300.531 10.0265V3.07642H295.915V9.11669C295.915 12.6996 294.621 16.1793 289.68 17.2861V20.325C291.28 20.203 294.203 19.2182 295.682 18.1865C296.306 17.7457 297.255 17.1079 298.139 16.1606C300.643 17.1641 303.025 18.843 304.784 20.7095L306.962 18.3834C306.022 16.6764 302.411 14.0783 300.047 13.0091L300.056 13.0185Z" fill="white"/>
<path d="M62.3622 17.7738C61.8783 17.2392 61.3944 16.7608 60.9104 16.3294C61.2362 16.0105 61.5619 15.6635 61.8783 15.2977L74.3768 0H63.6931L56.5085 8.80717C54.5542 11.1895 53.3629 12.2025 51.2225 12.2025C49.082 12.2025 47.9001 11.1801 45.9364 8.80717L38.7519 0H28.0681L40.5666 15.2977C40.9017 15.6822 41.2367 16.0386 41.581 16.3763C41.1064 16.7983 40.6411 17.2673 40.1758 17.7738L33.8009 25.2116H21.1814C13.9131 25.2116 9.39947 20.8315 9.39947 13.7688V0.422069H0V13.7688C0 29.4792 11.2049 33.531 20.7533 33.531H36.2019C37.3932 33.531 38.0446 33.2684 38.6681 32.5181L45.7596 24.2268C47.7977 21.8632 49.0355 20.8502 51.2597 20.8502C53.4839 20.8502 54.7217 21.8632 56.7598 24.2268L64.6982 33.531H75.8472L62.3529 17.7832L62.3622 17.7738Z" fill="white"/>
</g>
<defs>
<clipPath id="clip0_163_11813">
<rect width="318" height="34" fill="white"/>
</clipPath>
</defs>
</svg>
