<svg width="44" height="20" viewBox="0 0 44 20" fill="none" xmlns="http://www.w3.org/2000/svg">
<path id="Vector" d="M36.1772 10.5713C35.8964 10.2684 35.6157 9.99734 35.335 9.75287C35.5239 9.57217 35.7129 9.37552 35.8964 9.16825L43.147 0.5H36.9492L32.7813 5.49049C31.6476 6.84042 30.9566 7.41441 29.7148 7.41441C28.4731 7.41441 27.7875 6.8351 26.6483 5.49049L22.4805 0.5H16.2827L23.5333 9.16825C23.7276 9.38615 23.922 9.58811 24.1217 9.77944C23.8464 10.0186 23.5764 10.2843 23.3065 10.5713L19.6083 14.7859H12.2876C8.07117 14.7859 5.45276 12.3039 5.45276 8.30196V0.739161H0V8.30196C0 17.2041 6.50012 19.5 12.0393 19.5H21.0012C21.6923 19.5 22.0702 19.3512 22.4319 18.926L26.5458 14.2278C27.7281 12.8885 28.4461 12.3145 29.7364 12.3145C31.0267 12.3145 31.7448 12.8885 32.9271 14.2278L37.5323 19.5H44L36.1718 10.5766L36.1772 10.5713Z" fill="#00A991"/>
</svg>
