<svg width="137" height="18" viewBox="0 0 137 18" fill="none" xmlns="http://www.w3.org/2000/svg">
<g id="Group">
<path id="Vector" d="M31.4655 5.60877C31.6062 5.05603 31.6766 4.54049 31.6766 4.06747V0.272669H20.5045V1.85649H29.0947V4.13125C29.0947 4.62021 29.073 5.09855 29.0297 5.56625C28.9864 6.03927 28.889 6.45383 28.7428 6.81524H18.8103V8.40438H24.7211V10.8864H20.0986V12.4702H29.5169V17.429H32.0988V10.8864H27.3138V8.40438H34.6374V6.81524H30.9513C31.1569 6.56544 31.3302 6.16683 31.4709 5.60877H31.4655Z" fill="#003B68"/>
<path id="Vector_2" d="M49.538 5.60877C49.6787 5.05603 49.7491 4.54049 49.7491 4.06747V0.272669H38.577V1.85649H47.1672V4.13125C47.1672 4.62021 47.1455 5.09855 47.1022 5.56625C47.0589 6.03927 46.9615 6.45383 46.8153 6.81524H36.8828V8.40438H42.7936V10.8864H38.1711V12.4702H47.5894V17.429H50.1713V10.8864H45.3864V8.40438H52.7153V6.81524H49.0292C49.2349 6.56544 49.4081 6.16683 49.5488 5.60877H49.538Z" fill="#003B68"/>
<path id="Vector_3" d="M91.0538 8.70234H98.0472C98.6805 8.70234 99.1947 8.52695 99.5519 8.23464C99.9146 7.92638 100.115 7.53839 100.115 6.87935V0.320835H97.5329V2.92511H91.568V0.320835H88.9861V6.87935C88.9861 7.54371 89.1864 7.93169 89.549 8.23464C89.9009 8.53227 90.4151 8.70234 91.0538 8.70234ZM97.5329 4.50362V7.16635H91.568V4.50362H97.5329Z" fill="#003B68"/>
<path id="Vector_4" d="M57.8573 8.75516H66.599V7.17134H58.3607V5.22079H66.3176V3.63697H58.3607V1.86181H66.599V0.272669H55.7788V6.87902C55.7788 7.43708 55.9683 7.88884 56.3417 8.23431C56.7152 8.57977 57.224 8.75516 57.8573 8.75516Z" fill="#003B68"/>
<path id="Vector_5" d="M113.317 3.84396C113.317 4.34356 113.29 4.82721 113.241 5.2896C113.192 5.75731 113.084 6.17186 112.922 6.53327H115.103C115.309 6.326 115.493 5.93801 115.655 5.37464C115.812 4.81127 115.899 4.27447 115.899 3.75893V0.304277H104.738V1.90936H113.322V3.84928L113.317 3.84396Z" fill="#003B68"/>
<path id="Vector_6" d="M109.799 4.30204H107.223V7.59724H102.838V9.18106H117.962V7.59724H109.799V4.30204Z" fill="#003B68"/>
<path id="Vector_7" d="M62.7505 10.1587H60.017V13.0712H54.2361V14.6551H68.6775V13.0712H62.7505V10.1587Z" fill="#003B68"/>
<path id="Vector_8" d="M95.8391 10.1587H93.2572V13.0712H87.4763V14.6551H101.62V13.0712H95.8391V10.1587Z" fill="#003B68"/>
<path id="Vector_9" d="M133.556 4.29694V0.167307H130.974V17.4246H133.556V5.87545H136.225V4.29694H133.556Z" fill="#003B68"/>
<path id="Vector_10" d="M81.9668 3.1963H79.1467V4.78012H81.9668V9.10109H84.5487V0.219988H81.9668V3.1963Z" fill="#003B68"/>
<path id="Vector_11" d="M75.1461 6.49161C76.6887 6.79987 78.7402 7.82563 79.7903 8.73447L80.8566 7.43765C80.0934 6.63511 77.5764 5.22136 76.1962 4.79617C76.4073 4.2328 76.5372 3.62159 76.5372 2.94661V1.96336H79.5359V0.379538H70.9511V1.96336H73.9498V2.94661C73.9498 4.11587 73.4735 6.61385 70.3232 7.21443V8.77168C70.713 8.77168 71.0756 8.69727 71.4437 8.60692C72.8023 8.2774 74.1718 7.56521 75.1515 6.49161H75.1461Z" fill="#003B68"/>
<path id="Vector_12" d="M14.6956 0.167307H12.1136V10.999H14.6956V5.74789H17.1313V4.14813H14.6956V0.167307Z" fill="#003B68"/>
<path id="Vector_13" d="M6.45777 11.551H3.87585V15.5478C3.87585 16.1324 4.07071 16.5895 4.46044 16.9243C4.85016 17.2591 5.34273 17.4239 5.93272 17.4239H15.3348V15.8401H6.45777V11.551Z" fill="#003B68"/>
<path id="Vector_14" d="M83.0538 11.009C82.0957 10.2224 80.932 9.82906 79.5571 9.82906C78.1823 9.82906 77.0456 10.2224 76.0875 11.009C75.1294 11.7956 74.6477 12.7416 74.6477 13.8577C74.6477 14.9738 75.124 15.9146 76.0875 16.6905C77.0456 17.4665 78.2039 17.8598 79.5571 17.8598C80.9103 17.8598 82.0903 17.4718 83.0538 16.6905C84.0119 15.9146 84.4882 14.9685 84.4882 13.8577C84.4882 12.7469 84.0119 11.7956 83.0538 11.009ZM79.5734 16.276C78.2797 16.276 77.235 15.1811 77.235 13.8365C77.235 12.4918 78.2797 11.3916 79.5734 11.3916C80.867 11.3916 81.9063 12.4865 81.9063 13.8365C81.9063 15.1864 80.8616 16.276 79.5734 16.276Z" fill="#003B68"/>
<path id="Vector_15" d="M113.81 11.009C112.858 10.2224 111.688 9.82906 110.319 9.82906C108.95 9.82906 107.808 10.2224 106.849 11.009C105.891 11.7956 105.415 12.7416 105.415 13.8577C105.415 14.9738 105.891 15.9146 106.849 16.6905C107.808 17.4665 108.966 17.8598 110.319 17.8598C111.672 17.8598 112.852 17.4718 113.81 16.6905C114.768 15.9146 115.25 14.9685 115.25 13.8577C115.25 12.7469 114.768 11.7956 113.81 11.009ZM110.33 16.276C109.042 16.276 107.997 15.1811 107.997 13.8365C107.997 12.4918 109.042 11.3916 110.33 11.3916C111.618 11.3916 112.663 12.4865 112.663 13.8365C112.663 15.1864 111.618 16.276 110.33 16.276Z" fill="#003B68"/>
<path id="Vector_16" d="M8.53602 8.37291C9.47785 7.61288 9.94335 6.6881 9.94335 5.59324C9.94335 4.57811 9.53197 3.70647 8.72005 2.97302H10.1382V1.3892H6.36006V0.140213H3.77815V1.38389H0V2.96771H1.52641C0.714492 3.70116 0.303117 4.57811 0.303117 5.58793C0.303117 6.67747 0.774035 7.60757 1.71045 8.36759C2.64687 9.13293 3.78356 9.51028 5.1097 9.51028C6.43584 9.51028 7.59418 9.12761 8.5306 8.36759L8.53602 8.37291ZM2.83632 5.57198C2.83632 4.24859 3.85934 3.17499 5.12594 3.17499C6.39254 3.17499 7.41556 4.24859 7.41556 5.57198C7.41556 6.89538 6.39254 7.96366 5.12594 7.96366C3.85934 7.96366 2.83632 6.89007 2.83632 5.57198Z" fill="#003B68"/>
<path id="Vector_17" d="M125.789 5.96511C125.962 5.47614 126.065 4.91277 126.065 4.26967V0.331371H123.38V3.75413C123.38 5.7844 122.628 7.75621 119.753 8.38336V10.1054C120.684 10.0363 122.384 9.47822 123.245 8.89358C123.607 8.64379 124.159 8.28238 124.674 7.74558C126.13 8.31427 127.515 9.26562 128.538 10.3233L129.805 9.0052C129.258 8.03789 127.158 6.56568 125.783 5.95979L125.789 5.96511Z" fill="#003B68"/>
</g>
</svg>
