<?xml version="1.0" encoding="utf-8"?>
<!-- Generator: Adobe Illustrator 26.0.1, SVG Export Plug-In . SVG Version: 6.00 Build 0)  -->
<svg version="1.1" xmlns="http://www.w3.org/2000/svg" xmlns:xlink="http://www.w3.org/1999/xlink" x="0px" y="0px"
	 viewBox="0 0 500 500" style="enable-background:new 0 0 500 500;" xml:space="preserve">
<style type="text/css">
	.st0{display:none;}
	.st1{display:inline;}
	.st2{fill:#FFFFFF;}
	.st3{fill:#040000;}
</style>
<g id="레이어_4" class="st0">
	<g class="st1">
		<path d="M124.1,447.3c-8.3,0-15.4-2.9-21.3-8.8c-5.9-5.9-8.8-13-8.8-21.3V82.8c0-8.3,2.9-15.4,8.8-21.3c5.9-5.9,13-8.8,21.3-8.8
			h180.5l101.4,101.3v263.3c0,8.3-2.9,15.4-8.8,21.3c-5.9,5.9-13,8.8-21.3,8.8L124.1,447.3z M293.2,164.3V76H124.1
			c-1.7,0-3.3,0.7-4.7,2.1c-1.4,1.4-2.1,2.9-2.1,4.7v334.4c0,1.7,0.7,3.3,2.1,4.7c1.4,1.4,2.9,2.1,4.7,2.1h251.8
			c1.7,0,3.3-0.7,4.7-2.1c1.4-1.4,2.1-2.9,2.1-4.7V164.3H293.2z M117.3,76v88.3V76V424V76z"/>
	</g>
	<g class="st1">
	</g>
	<g class="st1">
	</g>
	<g class="st1">
	</g>
	<g class="st1">
	</g>
	<g class="st1">
		<path d="M431.6,364.3H68.4c-2.9,0-5.2-2.3-5.2-5.2V224.4c0-2.9,2.3-5.2,5.2-5.2h363.2c2.9,0,5.2,2.3,5.2,5.2v134.6
			C436.8,361.9,434.5,364.3,431.6,364.3z"/>
	</g>
	<g class="st1">
		<path class="st2" d="M137.3,340.3v-94.6h29.1c8.3,0,15.7,1.9,22.3,5.6c6.6,3.7,11.7,9.1,15.4,16c3.7,6.9,5.5,14.8,5.5,23.5v4.4
			c0,8.8-1.8,16.6-5.4,23.4c-3.6,6.8-8.7,12.1-15.3,15.9c-6.6,3.8-14,5.7-22.3,5.7H137.3z M156.7,261.5v63.1h9.4
			c7.6,0,13.4-2.5,17.5-7.5c4-5,6.1-12.1,6.2-21.4v-5c0-9.6-2-16.9-6-21.9c-4-5-9.8-7.4-17.5-7.4H156.7z"/>
		<path class="st2" d="M256.1,278.3l17.7-32.6h22.4l-27.5,46.9l28.2,47.7h-22.7l-18.2-33.1l-18.2,33.1h-22.7l28.2-47.7L216,245.7
			h22.4L256.1,278.3z"/>
		<path class="st2" d="M363.6,301.6h-37.4v38.6h-19.5v-94.6h61.6v15.8h-42.1v24.4h37.4V301.6z"/>
	</g>
	<g class="st1">
	</g>
	<g class="st1">
	</g>
</g>
<g id="레이어_7" class="st0">
	<g class="st1">
		<path d="M124.1,447.3c-8.3,0-15.4-2.9-21.3-8.8c-5.9-5.9-8.8-13-8.8-21.3V82.8c0-8.3,2.9-15.4,8.8-21.3c5.9-5.9,13-8.8,21.3-8.8
			h180.5l101.4,101.3v263.3c0,8.3-2.9,15.4-8.8,21.3c-5.9,5.9-13,8.8-21.3,8.8L124.1,447.3z M293.2,164.3V76H124.1
			c-1.7,0-3.3,0.7-4.7,2.1c-1.4,1.4-2.1,2.9-2.1,4.7v334.4c0,1.7,0.7,3.3,2.1,4.7c1.4,1.4,2.9,2.1,4.7,2.1h251.8
			c1.7,0,3.3-0.7,4.7-2.1c1.4-1.4,2.1-2.9,2.1-4.7V164.3H293.2z M117.3,76v88.3V76V424V76z"/>
	</g>
	<g class="st1">
		<path d="M431.6,364.3H68.4c-2.9,0-5.2-2.3-5.2-5.2V224.4c0-2.9,2.3-5.2,5.2-5.2h363.2c2.9,0,5.2,2.3,5.2,5.2v134.6
			C436.8,361.9,434.5,364.3,431.6,364.3z"/>
	</g>
	<g class="st1">
		<path class="st2" d="M125.7,245.7h19.5v65.5c0,6-1.3,11.3-4,15.9c-2.7,4.6-6.4,8.2-11.3,10.7c-4.8,2.5-10.3,3.8-16.4,3.8
			c-10,0-17.8-2.5-23.4-7.6c-5.6-5.1-8.4-12.3-8.4-21.6h19.6c0,4.6,1,8.1,2.9,10.3s5,3.3,9.2,3.3c3.7,0,6.7-1.3,8.9-3.8
			c2.2-2.6,3.3-6.2,3.3-10.9V245.7z"/>
		<path class="st2" d="M210.9,315.5c0-3.7-1.3-6.5-3.9-8.5c-2.6-2-7.3-4-14-6.2c-6.8-2.2-12.1-4.3-16-6.5
			c-10.7-5.8-16.1-13.6-16.1-23.4c0-5.1,1.4-9.7,4.3-13.7c2.9-4,7-7.1,12.4-9.4c5.4-2.3,11.4-3.4,18.2-3.4c6.8,0,12.8,1.2,18.1,3.7
			c5.3,2.4,9.4,5.9,12.3,10.4c2.9,4.5,4.4,9.5,4.4,15.2h-19.5c0-4.3-1.4-7.7-4.1-10.1c-2.7-2.4-6.6-3.6-11.5-3.6
			c-4.8,0-8.5,1-11.1,3c-2.6,2-4,4.7-4,8c0,3.1,1.5,5.7,4.6,7.7c3.1,2.1,7.7,4,13.7,5.8c11.1,3.3,19.2,7.5,24.2,12.4
			s7.6,11.1,7.6,18.4c0,8.2-3.1,14.6-9.3,19.3c-6.2,4.7-14.5,7-25,7c-7.3,0-13.9-1.3-19.9-4c-6-2.7-10.5-6.3-13.7-10.9
			c-3.1-4.6-4.7-10-4.7-16.1h19.5c0,10.4,6.2,15.7,18.7,15.7c4.6,0,8.2-0.9,10.8-2.8C209.6,321.5,210.9,318.8,210.9,315.5z"/>
		<path class="st2" d="M321.3,295.1c0,9.3-1.6,17.5-4.9,24.5s-8,12.4-14.1,16.2c-6.1,3.8-13.2,5.7-21.1,5.7c-7.8,0-14.8-1.9-21-5.7
			c-6.1-3.8-10.9-9.1-14.3-16.1c-3.4-7-5.1-15-5.1-24.1V291c0-9.3,1.7-17.5,5-24.6c3.4-7.1,8.1-12.5,14.2-16.3
			c6.1-3.8,13.1-5.7,21-5.7s14.9,1.9,21,5.7c6.1,3.8,10.9,9.2,14.2,16.3c3.4,7.1,5,15.3,5,24.5V295.1z M301.5,290.8
			c0-9.9-1.8-17.4-5.3-22.6s-8.6-7.7-15.2-7.7c-6.5,0-11.6,2.5-15.1,7.6c-3.6,5.1-5.3,12.5-5.4,22.4v4.6c0,9.7,1.8,17.1,5.3,22.5
			c3.5,5.3,8.7,8,15.3,8c6.5,0,11.6-2.6,15.1-7.7c3.5-5.1,5.3-12.6,5.3-22.4V290.8z"/>
		<path class="st2" d="M412.3,340.3h-19.5l-37.9-62.2v62.2h-19.5v-94.6h19.5l38,62.3v-62.3h19.4V340.3z"/>
	</g>
</g>
<g id="레이어_5" class="st0">
	<g class="st1">
		<g>
			<path class="st3" d="M124,446.6c-8.3,0-15.4-2.9-21.3-8.8c-5.9-5.9-8.8-13-8.8-21.3V82.7c0-8.3,2.9-15.4,8.8-21.3
				c5.9-5.9,13-8.8,21.3-8.8h172.3l109,108.9v146.2h-23.3V177.1H280.7V76H124c-1.7,0-3.3,0.7-4.7,2.1c-1.4,1.4-2.1,2.9-2.1,4.7
				v333.8c0,1.7,0.7,3.3,2.1,4.7c1.4,1.4,2.9,2.1,4.7,2.1h204.4v23.3H124z M456.1,452.3l-70-70.5v67.4h-23.9V341.4h107.9v23.8h-68
				l70.6,70L456.1,452.3z M117.3,423.3V76V423.3z"/>
		</g>
	</g>
	<g class="st1">
		<path d="M431.6,335H68.4c-2.9,0-5.2-2.3-5.2-5.2V195.2c0-2.9,2.3-5.2,5.2-5.2h363.2c2.9,0,5.2,2.3,5.2,5.2v134.6
			C436.8,332.7,434.5,335,431.6,335z"/>
	</g>
	<g class="st1">
		<path class="st2" d="M125.7,216.5h19.5v65.5c0,6-1.3,11.3-4,15.9c-2.7,4.6-6.4,8.2-11.3,10.7c-4.8,2.5-10.3,3.8-16.4,3.8
			c-10,0-17.8-2.5-23.4-7.6c-5.6-5.1-8.4-12.3-8.4-21.6h19.6c0,4.6,1,8.1,2.9,10.3s5,3.3,9.2,3.3c3.7,0,6.7-1.3,8.9-3.8
			c2.2-2.6,3.3-6.2,3.3-10.9V216.5z"/>
		<path class="st2" d="M210.9,286.2c0-3.7-1.3-6.5-3.9-8.5c-2.6-2-7.3-4-14-6.2c-6.8-2.2-12.1-4.3-16-6.5
			c-10.7-5.8-16.1-13.6-16.1-23.4c0-5.1,1.4-9.7,4.3-13.7c2.9-4,7-7.1,12.4-9.4c5.4-2.3,11.4-3.4,18.2-3.4c6.8,0,12.8,1.2,18.1,3.7
			c5.3,2.4,9.4,5.9,12.3,10.4c2.9,4.5,4.4,9.5,4.4,15.2h-19.5c0-4.3-1.4-7.7-4.1-10.1c-2.7-2.4-6.6-3.6-11.5-3.6
			c-4.8,0-8.5,1-11.1,3c-2.6,2-4,4.7-4,8c0,3.1,1.5,5.7,4.6,7.7c3.1,2.1,7.7,4,13.7,5.8c11.1,3.3,19.2,7.5,24.2,12.4
			s7.6,11.1,7.6,18.4c0,8.2-3.1,14.6-9.3,19.3c-6.2,4.7-14.5,7-25,7c-7.3,0-13.9-1.3-19.9-4c-6-2.7-10.5-6.3-13.7-10.9
			c-3.1-4.6-4.7-10-4.7-16.1h19.5c0,10.4,6.2,15.7,18.7,15.7c4.6,0,8.2-0.9,10.8-2.8C209.6,292.2,210.9,289.6,210.9,286.2z"/>
		<path class="st2" d="M321.3,265.9c0,9.3-1.6,17.5-4.9,24.5s-8,12.4-14.1,16.2c-6.1,3.8-13.2,5.7-21.1,5.7c-7.8,0-14.8-1.9-21-5.7
			c-6.1-3.8-10.9-9.1-14.3-16.1c-3.4-7-5.1-15-5.1-24.1v-4.7c0-9.3,1.7-17.5,5-24.6c3.4-7.1,8.1-12.5,14.2-16.3
			c6.1-3.8,13.1-5.7,21-5.7s14.9,1.9,21,5.7c6.1,3.8,10.9,9.2,14.2,16.3c3.4,7.1,5,15.3,5,24.5V265.9z M301.5,261.6
			c0-9.9-1.8-17.4-5.3-22.6s-8.6-7.7-15.2-7.7c-6.5,0-11.6,2.5-15.1,7.6c-3.6,5.1-5.3,12.5-5.4,22.4v4.6c0,9.7,1.8,17.1,5.3,22.5
			c3.5,5.3,8.7,8,15.3,8c6.5,0,11.6-2.6,15.1-7.7c3.5-5.1,5.3-12.6,5.3-22.4V261.6z"/>
		<path class="st2" d="M412.3,311h-19.5l-37.9-62.2V311h-19.5v-94.6h19.5l38,62.3v-62.3h19.4V311z"/>
	</g>
</g>
<g id="레이어_8">
	<path d="M402.2,390.3c-6.2,0-10.8-4.2-11.7-10.8c-0.2-1.6-0.2-3.1-0.2-4.5l0-0.8c0-25.2,0-50.5,0-75.7v-13.2
		c-42.6-10.1-89.2-15-142.4-15h-0.2c-53.2,0-99.9,4.9-142.7,15l0,20c0,22.9,0,46.5-0.1,69.8c0,3.1-0.3,7.5-2.8,10.6
		c-2.2,2.6-6.2,4.6-9.7,4.6c-0.8,0-1.5-0.1-2.2-0.3c-21.6-5.8-44.3-13.2-64.1-27.4c-11-7.9-18.2-17.3-21.8-28.6L4,333.2l0.3-178.2
		c0-5.6,1.4-11.1,4.1-15.9c10.2-18.1,28.1-26.9,47-34.9c26.9-11.3,55.1-16.9,79.1-20.9c35.7-5.9,72.5-8.8,112.3-8.8
		c8.8,0,17.9,0.1,27,0.4c59.8,1.9,107.5,9.3,150.2,23.4c15.4,5,33.2,11.9,48.7,24.4c6.2,5,14.8,13.1,17.6,25.7
		c0.7,3.3,0.8,6.7,0.8,8.9c0,16.2,0,32.4,0,48.6c-0.1,37.5-0.1,76.4,0.3,114.5c0.2,16.9-6.2,29.8-20.2,40.6
		c-15.2,11.7-32.3,18.6-53.3,25.4c-4.1,1.3-8.1,2.4-11.9,3.4C404.8,390.1,403.4,390.3,402.2,390.3z M27.8,192.9
		c0,10.5,0,20.9,0,31.4c0,32,0.1,65-0.2,97.5c-0.1,8.2,2.8,14.1,9.3,19.3c12.4,10,27.3,15.6,40.2,20.2c1.3,0.5,2.7,0.9,4.1,1.4
		l0-29.7c0-37.6,0-76.5,0.1-114.8c0-1-0.1-1.4-0.1-1.6c-0.1-0.1-0.6-0.3-1.5-0.6c-18.4-5.2-33.9-11.8-47.3-20.1
		C30.8,194.9,29.3,193.9,27.8,192.9z M467.5,192.8c-17.6,12.1-36.3,18.6-51.1,22.9c-2.5,0.7-2.5,0.7-2.4,3.5
		c0.2,37.4,0.1,75.5,0.1,112.3l0,31.1c0.4-0.1,0.8-0.3,1.2-0.4c14.3-4.8,30.7-10.9,43.9-21.8c5.9-4.9,8.5-10.4,8.5-17.9
		c-0.2-32.9-0.2-66.3-0.2-98.7C467.5,213.5,467.5,203.2,467.5,192.8z M245.3,98.2c-41.2,0-78.7,3.2-114.6,9.7
		c-20.6,3.8-47.6,9.6-73.1,21.2c-8,3.7-17.2,8.4-24.4,15.9c-7.1,7.4-7.2,13.7-0.4,21.1c2.8,3,6.1,5.8,9.8,8.2
		c15.6,10.3,33.4,16.1,50.3,20.9c9.5,2.7,12.1,6.1,12.1,15.8c0,11.9,0,23.8,0,35.8l0,13.7c47.6-9.5,95.6-14.2,142.9-14.2
		c47.2,0,95.1,4.8,142.5,14.2l0-13.1c0-12.1,0-24.2,0-36.2c0-9.9,2.5-13.2,12-15.9c15-4.3,32.2-9.6,47.3-19
		c5.3-3.3,10.1-7.3,14-11.5c5.5-5.9,5.5-11.8,0-18c-4.2-4.7-7.8-7.8-11.4-9.6c-10.7-5.6-21.8-11.4-33.4-15.5
		c-39.6-13.7-83.3-20.8-141.7-23C266.3,98.4,255.6,98.2,245.3,98.2z"/>
	<g class="st0">
		<path class="st1" d="M189.7,245.9c-0.8-0.5-1.5-1-1.4-2.1c0.1-1,0.8-1.8,1.9-1.8c1.1-0.1,2.3,0,3.5,0c0-0.6,0-1.1,0-1.6
			c0-24.1,0-48.2,0-72.2c0-2.4,0.5-3,3-3c4.8,0,9.7,0,14.5,0c0.4,0,0.9,0,1.4,0c0-0.5,0.1-0.9,0.1-1.3c0-4.8,0-9.5,0-14.3
			c0-2.3,0.7-3,3.1-3c1.6,0,3.2,0,4.7,0c0.1,0,0.1,0,0.4-0.1c0-2.1,0-4.3,0-6.5c0-0.5,0-1,0-1.5c0-1.7,0.8-2.4,2.5-2.5
			c2.4,0,4.8,0,7.2,0c0.3,0,0.7,0,1.1-0.1c0-2,0-3.9,0-5.8c0-1.2,0.9-2,2-2c1.1,0,1.9,0.6,2.1,1.8c0.1,0.5,0.1,1.1,0.1,1.6
			c0,1.4,0,2.9,0,4.5c2.4,0,4.7,0,7,0c3.6,0,3.9,0.3,3.9,3.8c0,2.2,0,4.4,0,6.7c1.4,0,2.6,0,4,0c0-1.8,0-3.5,0-5.3c0-1,0-2.1,0-3.1
			c0.1-1.3,0.7-1.9,2.1-2.1c0.3,0,0.7,0,1.1,0c12,0,24,0,36,0c2.5,0,3.1,0.6,3.1,3c0,33.7,0,67.5,0,101.2c0,0.5,0,1,0,1.7
			c0.9,0,1.8,0,2.7,0c1.2,0,2.2,0.2,2.6,1.4c0.4,1.2-0.4,1.9-1.3,2.5C261.3,245.9,225.5,245.9,189.7,245.9z M288.9,241.8
			c0-34,0-67.9,0-101.7c-11.3,0-22.6,0-33.8,0c0,16.3,0,32.5,0,48.7c2.2,0,4.4,0,6.6,0c0.5-1.8,1.1-2.5,2.2-2.5
			c1.2,0,1.8,0.8,2.2,2.5c1.3,0,2.6,0,3.8,0c0-0.3,0-0.5,0.1-0.6c0.2-1.1,1-1.9,2-1.9c1,0,1.8,0.7,2,1.9c0.1,0.4,0.1,0.9,0.1,1.4
			c0,16.9,0,33.9,0,50.8c0,0.5,0,1,0.1,1.5C279.1,241.8,283.9,241.8,288.9,241.8z M231.7,241.8c0-24.3,0-48.4,0-72.6
			c-11.3,0-22.6,0-33.9,0c0,0.6,0,1,0,1.5c0,22.7,0,45.4,0,68.1c0,3.1,0,3.1,3.1,3.1c2.1,0,4.2,0,6.4,0c0-2.8,0-5.4,0-8
			c0-1.9,0.7-2.6,2.7-2.6c2.8,0,5.7,0,8.5,0c3.5,0,3.8,0.3,3.8,3.7c0,2.2,0,4.5,0,6.8C225.5,241.8,228.6,241.8,231.7,241.8z
			 M269.8,241.8c0-16.4,0-32.6,0-48.8c-11.3,0-22.5,0-33.8,0c0,16.3,0,32.5,0,48.8C247.3,241.8,258.5,241.8,269.8,241.8z
			 M250.7,150.7c-11.3,0-22.6,0-33.8,0c0,4.8,0,9.6,0,14.4c5.3,0,10.4,0,15.6,0c2.7,0,2.8,0,3.6,2.6c1.6,0,3.2,0,4.8,0
			c0.5,0,1,0,1.5,0.1c1,0.2,1.7,1.1,1.6,2.1c-0.1,1-0.9,1.8-2.1,1.8c-2,0-3.9,0-5.9,0c0,2.2,0,4.4,0,6.5c1,0,1.8,0,2.7,0
			c1.2,0,2.4,0,3.5,0.1c1.1,0.1,1.8,1,1.8,1.9c0,1-0.8,1.8-1.8,1.9c-0.5,0.1-1.1,0-1.7,0c-1.5,0-3,0-4.5,0c0,2.3,0,4.4,0,6.5
			c5,0,9.8,0,14.7,0C250.7,176.1,250.7,163.4,250.7,150.7z M225.1,140.1c0,2.2,0,4.3,0,6.4c5.9,0,11.7,0,17.5,0c0-2.2,0-4.3,0-6.4
			C236.7,140.1,231,140.1,225.1,140.1z M211.5,235.4c0,2.2,0,4.3,0,6.5c0.4,0,0.7,0,1.2,0c0-0.6,0-1,0-1.5c0-0.5,0-1,0-1.5
			c0.1-1.4,0.9-2.2,2.2-2.2c1.2,0.1,1.9,0.9,1.9,2.3c0,0.9,0,1.9,0,2.9c0.5,0,0.8,0,1.2-0.1c0-2.2,0-4.3,0-6.5
			C215.9,235.4,213.7,235.4,211.5,235.4z"/>
		<path class="st1" d="M269.9,163.2c0-0.5,0-1,0-1.5c0.1-1,0.9-1.8,1.9-1.8c1-0.1,1.9,0.6,2.1,1.6c0.1,1.1,0.1,2.2,0,3.3
			c-0.1,1-1.1,1.7-2,1.7c-1,0-1.9-0.8-2-1.9C269.8,164.1,269.9,163.6,269.9,163.2C269.9,163.2,269.9,163.2,269.9,163.2z"/>
		<path class="st1" d="M274.1,176.4c-0.1,0.5-0.1,1.1-0.2,1.7c-0.2,1.1-0.9,1.6-2,1.6c-1,0-1.9-0.7-2-1.7c-0.1-1-0.1-2.1,0-3.1
			c0.1-1,1-1.8,2-1.8c1,0,1.8,0.6,2,1.7C274,175.3,274,175.8,274.1,176.4z"/>
		<path class="st1" d="M269.9,149.8c0-0.5,0-0.9,0-1.4c0.1-1.1,1-1.9,2-1.9c1,0,1.9,0.6,2,1.7c0.1,1.1,0.1,2.2,0,3.3
			c-0.1,1.1-1,1.6-2.1,1.6c-1.1-0.1-1.7-0.7-1.9-1.7C269.8,150.9,269.9,150.4,269.9,149.8C269.9,149.8,269.9,149.8,269.9,149.8z"/>
		<path class="st1" d="M265.8,163.1c0,0.5,0.1,1.1,0,1.6c-0.1,1-1,1.8-2,1.7c-1-0.1-1.8-0.6-1.9-1.6c-0.1-1.1-0.1-2.1,0-3.2
			c0.1-1.1,1-1.8,2-1.8c1,0,1.9,0.8,2,1.9C265.8,162.2,265.8,162.7,265.8,163.1C265.8,163.1,265.8,163.1,265.8,163.1z"/>
		<path class="st1" d="M282.1,176.4c0,0.5,0.1,1.1,0,1.6c-0.1,1-1,1.7-2,1.7c-1.1-0.1-1.8-0.6-1.9-1.6c-0.1-1.1-0.1-2.2,0-3.3
			c0.1-1.1,0.9-1.6,1.9-1.6c1-0.1,1.9,0.7,2,1.7C282.2,175.3,282.1,175.8,282.1,176.4z"/>
		<path class="st1" d="M282.1,163.1c0,0.5,0.1,1.1,0,1.6c-0.1,1-1.1,1.8-2,1.7c-1-0.1-1.8-0.6-1.9-1.7c-0.1-1.1-0.1-2.2,0-3.3
			c0.1-1.1,0.9-1.6,1.9-1.6c1-0.1,1.9,0.7,2,1.7C282.2,162.1,282.1,162.6,282.1,163.1z"/>
		<path class="st1" d="M282.1,216.2c0,0.5,0.1,1,0,1.5c-0.1,1-1,1.8-2,1.7c-1.1,0-1.8-0.6-1.9-1.6c-0.1-1.1-0.1-2.1,0-3.2
			c0.1-1.1,1-1.8,2-1.8c1,0,1.9,0.9,2,1.9C282.2,215.2,282.1,215.7,282.1,216.2C282.1,216.2,282.1,216.2,282.1,216.2z"/>
		<path class="st1" d="M282.1,150c0,0.5,0,0.9,0,1.4c-0.1,1.1-0.9,1.8-2,1.9c-1.1,0-1.9-0.6-2-1.7c-0.1-1.1-0.1-2.1,0-3.2
			c0.1-1,1-1.7,2-1.7c1,0,1.9,0.8,2,1.9C282.2,149,282.1,149.5,282.1,150z"/>
		<path class="st1" d="M265.8,176.5c0,0.5,0,1,0,1.5c-0.1,1-1,1.8-2,1.7c-1.1,0-1.9-0.5-2-1.6c-0.1-1.1-0.1-2.2,0-3.3
			c0.1-1.1,1-1.7,2-1.7c1,0,1.9,0.7,2,1.8C265.9,175.4,265.8,175.9,265.8,176.5z"/>
		<path class="st1" d="M265.8,150c0,0.5,0,0.9,0,1.4c-0.1,1.1-0.9,1.8-1.9,1.8c-1.1,0.1-2-0.6-2.1-1.7c-0.1-1.1-0.1-2.1,0-3.2
			c0.1-1,1-1.7,2-1.7c1.1,0,1.9,0.8,2,1.9C265.8,149,265.8,149.5,265.8,150z"/>
		<path class="st1" d="M282.1,202.9c0,0.5,0,1,0,1.5c-0.1,1-0.9,1.8-2,1.8c-1,0-1.9-0.6-2-1.7c-0.1-1.1-0.1-2.1,0-3.2
			c0.1-1.1,1-1.8,2.1-1.7c1,0.1,1.8,0.8,1.9,1.8C282.2,201.9,282.1,202.4,282.1,202.9C282.1,202.9,282.1,202.9,282.1,202.9z"/>
		<path class="st1" d="M282.1,229.4c0,0.5,0,1,0,1.5c-0.1,1-1,1.8-2,1.8c-1,0-1.9-0.7-2-1.7c-0.1-1.1-0.1-2.1,0-3.2
			c0.1-1.1,1-1.8,2.1-1.7c1,0.1,1.8,0.8,1.9,1.8C282.2,228.4,282.1,228.9,282.1,229.4C282.1,229.4,282.1,229.4,282.1,229.4z"/>
		<path class="st1" d="M282.1,189.7c0,0.5,0,0.9,0,1.4c-0.1,1.1-1,1.9-2,1.9c-1,0-1.9-0.7-2-1.7c-0.1-1-0.1-2.1,0-3.1
			c0.1-1.1,1-1.8,2-1.8c1.1,0,1.9,0.9,2,2C282.2,188.8,282.1,189.2,282.1,189.7C282.1,189.7,282.1,189.7,282.1,189.7z"/>
		<path class="st1" d="M216.8,194.9c0,0.5,0.1,1.1,0,1.6c-0.2,1-0.9,1.7-1.9,1.7c-1.1,0-1.9-0.5-2-1.6c-0.1-1.1-0.2-2.2,0-3.3
			c0.1-1.1,1.1-1.8,2.1-1.8c1,0.1,1.8,0.9,1.9,2C216.9,194,216.8,194.5,216.8,194.9C216.8,194.9,216.8,194.9,216.8,194.9z"/>
		<path class="st1" d="M216.8,221.5c0,0.5,0.1,1,0,1.5c-0.2,1-1,1.8-2,1.7c-1.1,0-1.8-0.6-1.9-1.6c-0.1-1.1-0.1-2.2,0-3.3
			c0.1-1,1.1-1.7,2-1.7c1,0,1.9,0.8,2,1.9C216.9,220.5,216.8,221,216.8,221.5C216.8,221.5,216.8,221.5,216.8,221.5z"/>
		<path class="st1" d="M216.8,181.7c0,0.5,0.1,1,0,1.5c-0.1,1-1,1.8-2,1.7c-1.1,0-1.9-0.5-2-1.6c-0.1-1.1-0.1-2.3,0-3.4
			c0.1-1.1,0.9-1.6,2-1.6c1.1,0,1.8,0.6,2,1.6C216.9,180.6,216.8,181.2,216.8,181.7C216.8,181.7,216.8,181.7,216.8,181.7z"/>
		<path class="st1" d="M216.8,208.2c0,0.5,0,0.9,0,1.4c-0.1,1.1-0.9,1.9-2,1.9c-1,0-1.9-0.6-2-1.7c-0.1-1.1-0.1-2.2,0-3.3
			c0.1-1.1,1-1.7,2.1-1.6c1.1,0.1,1.7,0.7,1.9,1.7C216.9,207.1,216.8,207.6,216.8,208.2C216.8,208.2,216.8,208.2,216.8,208.2z"/>
		<path class="st1" d="M204.6,181.6c0-0.5,0-1,0-1.5c0.1-1,0.9-1.8,2-1.8c1,0,1.9,0.6,2,1.7c0.1,1.1,0.1,2.1,0,3.2
			c-0.1,1.1-1,1.8-2.1,1.7c-1-0.1-1.8-0.8-1.9-1.8C204.5,182.6,204.6,182.1,204.6,181.6C204.6,181.6,204.6,181.6,204.6,181.6z"/>
		<path class="st1" d="M225.1,208.2c0,0.5,0,1-0.1,1.6c-0.2,1-1,1.7-2,1.7c-1,0-1.9-0.8-2-1.8c-0.1-1-0.1-2,0-3
			c0.1-1.1,0.9-1.8,1.9-1.8c1.1-0.1,1.9,0.6,2.1,1.7C225,207.1,225,207.6,225.1,208.2z"/>
		<path class="st1" d="M220.9,194.8c0-0.5,0-0.9,0-1.4c0.1-1.1,1-1.9,2-1.9c1,0,1.9,0.7,2,1.7c0.1,1.1,0.1,2.1,0,3.2
			c-0.1,1-1,1.7-2,1.7c-1,0-1.9-0.8-2-1.9C220.9,195.8,220.9,195.3,220.9,194.8z"/>
		<path class="st1" d="M204.6,221.4c0-0.5,0-1,0-1.5c0.1-1,1-1.8,2-1.8c1,0,1.9,0.7,2,1.7c0.1,1.1,0.1,2.1,0,3.2
			c-0.1,1.1-1,1.8-2.1,1.7c-1-0.1-1.8-0.8-1.9-1.8C204.5,222.4,204.6,221.9,204.6,221.4C204.6,221.4,204.6,221.4,204.6,221.4z"/>
		<path class="st1" d="M220.9,221.4c0-0.5,0-1,0-1.5c0.1-1,1-1.8,2-1.8c1,0,1.9,0.7,2,1.7c0.1,1.1,0.1,2.1,0,3.2
			c-0.1,1.1-1,1.8-2.1,1.7c-1-0.1-1.8-0.8-1.9-1.8C220.9,222.4,220.9,221.9,220.9,221.4C220.9,221.4,220.9,221.4,220.9,221.4z"/>
		<path class="st1" d="M225.1,181.7c0,0.5,0,1.1-0.1,1.6c-0.2,1.1-1,1.7-2,1.7c-1.1,0-1.9-0.8-2-1.9c-0.1-0.9-0.1-1.9,0-2.9
			c0.1-1.1,0.9-1.8,2-1.9c1,0,1.8,0.6,2,1.7C225,180.6,225,181.1,225.1,181.7z"/>
		<path class="st1" d="M204.6,194.8c0-0.5,0-0.9,0-1.4c0.1-1.1,1-1.9,2-1.9c1,0,1.9,0.7,2,1.7c0.1,1.1,0.1,2.1,0,3.2
			c-0.1,1-1,1.7-2,1.7c-1,0-1.9-0.8-2-1.8C204.5,195.9,204.6,195.4,204.6,194.8C204.6,194.8,204.6,194.8,204.6,194.8z"/>
		<path class="st1" d="M204.6,208.1c0-0.5,0-1,0-1.5c0.1-1,0.9-1.8,1.9-1.8c1.1,0,1.9,0.6,2,1.6c0.1,1.1,0.1,2.1,0,3.2
			c-0.1,1.1-1,1.8-2.1,1.7c-1.1-0.1-1.9-0.8-1.9-1.9C204.5,209.1,204.6,208.6,204.6,208.1C204.6,208.1,204.6,208.1,204.6,208.1z"/>
		<path class="st1" d="M259,217.3c0-5.9,0-11.8,0-17.7c0-0.5,0-1,0.2-1.5c0.3-0.8,1-1.3,1.9-1.2c0.9,0,1.6,0.5,1.9,1.5
			c0.1,0.5,0.1,1,0.1,1.5c0,11.7,0,23.4,0,35.1c0,2-0.7,3-2.1,3c-1.4,0-2.1-1-2.1-3C259,229,259,223.2,259,217.3z"/>
		<path class="st1" d="M242.7,217.3c0-5.9,0-11.7,0-17.6c0-0.4,0-0.9,0.1-1.3c0.3-1,1-1.6,2.1-1.6c1,0,1.7,0.6,1.9,1.6
			c0.1,0.5,0.1,1,0.1,1.5c0,11.6,0,23.2,0,34.8c0,0.5,0,1-0.1,1.5c-0.2,1.1-0.9,1.6-2,1.6c-1,0-1.7-0.5-2-1.5
			c-0.1-0.4-0.1-0.8-0.1-1.3C242.7,229.2,242.7,223.3,242.7,217.3z"/>
		<path class="st1" d="M254.9,217.3c0,6.1,0,12.1,0,18.2c0,1.7-1.1,2.8-2.5,2.3c-0.6-0.2-1.1-0.9-1.5-1.4c-0.2-0.4-0.1-1-0.1-1.5
			c0-11.7,0-23.3,0-35c0-0.5,0-0.9,0.1-1.4c0.2-1.1,0.9-1.6,1.9-1.7c1-0.1,1.9,0.7,2.1,1.7c0.1,0.4,0,0.8,0,1.1
			C254.9,205.6,254.9,211.5,254.9,217.3z"/>
		<path class="st1" d="M233.8,161.2c-2.6,0-5.1,0-7.7,0c-1.6,0-2.5-0.8-2.5-2c0-1.2,0.9-2,2.4-2c5.2,0,10.5,0,15.7,0
			c1.5,0,2.4,0.9,2.3,2.1c0,1.2-1,1.9-2.4,2C239,161.2,236.4,161.2,233.8,161.2z"/>
	</g>
	<g>
		<path d="M147.3,362.3h11.4c5.4,0,9.5-1.4,12.1-4.1c2.6-2.7,3.9-6.3,3.9-10.8c0-4.4-1.3-7.7-3.9-10.2c-2.6-2.4-6.2-3.6-10.7-3.6
			c-4.1,0-7.5,1.1-10.3,3.4c-2.8,2.3-4.2,5.2-4.2,8.8h-21.4c0-5.6,1.5-10.7,4.6-15.2c3-4.5,7.3-8,12.8-10.5
			c5.5-2.5,11.5-3.8,18.1-3.8c11.4,0,20.4,2.7,26.9,8.2c6.5,5.5,9.7,13,9.7,22.6c0,4.9-1.5,9.5-4.5,13.6c-3,4.2-7,7.3-11.9,9.6
			c6.1,2.2,10.6,5.4,13.6,9.8c3,4.4,4.5,9.5,4.5,15.4c0,9.6-3.5,17.3-10.5,23.1c-7,5.8-16.3,8.7-27.8,8.7c-10.8,0-19.6-2.8-26.4-8.5
			c-6.8-5.7-10.3-13.2-10.3-22.5h21.4c0,4.1,1.5,7.4,4.6,9.9c3,2.6,6.8,3.9,11.2,3.9c5.1,0,9.1-1.3,12-4c2.9-2.7,4.3-6.3,4.3-10.7
			c0-10.8-5.9-16.2-17.8-16.2h-11.3V362.3z"/>
		<path d="M270.9,316.7v17.7h-2.1c-9.7,0.1-17.5,2.7-23.4,7.6c-5.9,4.9-9.5,11.7-10.6,20.4c5.7-5.8,13-8.8,21.7-8.8
			c9.4,0,16.9,3.4,22.4,10.1c5.5,6.7,8.3,15.6,8.3,26.6c0,7-1.5,13.4-4.6,19.1c-3,5.7-7.3,10.1-12.9,13.3
			c-5.6,3.2-11.9,4.7-18.9,4.7c-11.4,0-20.6-4-27.6-11.9c-7-7.9-10.5-18.5-10.5-31.7V376c0-11.7,2.2-22.1,6.6-31
			c4.4-9,10.8-15.9,19.1-20.8c8.3-4.9,17.9-7.4,28.8-7.5H270.9z M249.9,370.8c-3.5,0-6.6,0.9-9.4,2.7c-2.8,1.8-4.9,4.2-6.2,7.1v6.5
			c0,7.2,1.4,12.7,4.2,16.8c2.8,4,6.8,6,11.9,6c4.6,0,8.3-1.8,11.2-5.4c2.8-3.6,4.3-8.3,4.3-14.1c0-5.9-1.4-10.6-4.3-14.2
			C258.6,372.6,254.8,370.8,249.9,370.8z"/>
		<path d="M372.5,381.1c0,14.9-3.1,26.4-9.3,34.3c-6.2,7.9-15.2,11.9-27.1,11.9c-11.8,0-20.8-3.9-27-11.6
			c-6.2-7.8-9.4-18.9-9.6-33.4v-19.9c0-15.1,3.1-26.5,9.4-34.3c6.3-7.8,15.3-11.7,27-11.7c11.8,0,20.8,3.9,27,11.6
			c6.2,7.7,9.4,18.9,9.6,33.3V381.1z M351.1,359.3c0-9-1.2-15.5-3.7-19.6c-2.4-4.1-6.3-6.1-11.5-6.1c-5,0-8.8,1.9-11.2,5.8
			c-2.4,3.9-3.7,10-3.8,18.2v26.3c0,8.8,1.2,15.4,3.6,19.6c2.4,4.3,6.2,6.4,11.5,6.4c5.2,0,9-2.1,11.3-6.2
			c2.3-4.1,3.5-10.4,3.6-18.9V359.3z"/>
	</g>
	<path d="M172,242.9c0-2.6,0-5.3,0-8c3.7,0,7.3,0,11,0c0-26.4,0-52.7,0-79.1c12.8,0,25.4,0,38.2,0c0,26.3,0,52.6,0,79
		c2.9,0,5.7,0,8.7,0c0-32.3,0-64.7,0-97.1c3.3,0,6.5,0,9.8,0c0-6.1,0-12,0-18c3.8,0,7.4,0,11.1,0c0-4.9,0-9.6,0-14.4
		c3,0,5.8,0,8.8,0c0,4.8,0,9.5,0,14.4c3.7,0,7.3,0,11.1,0c0,6.1,0,12,0,18.1c3.3,0,6.5,0,9.8,0c0,15.4,0,30.7,0,46
		c-9.7,0-19.4,0-29.3,0c0,17.1,0,34.1,0,51.1c2.8,0,5.5,0,8.5,0c0-14.3,0-28.6,0-42.9c16.8,0,33.4,0,50.2,0c0,14.3,0,28.5,0,43
		c3.8,0,7.5,0,11.1,0c0,2.7,0,5.4,0,8.1C271.3,242.9,221.7,242.9,172,242.9z M270.7,202.6c0,10.8,0,21.5,0,32.2c2.9,0,5.7,0,8.6,0
		c0-10.8,0-21.5,0-32.2C276.4,202.6,273.6,202.6,270.7,202.6z M290.5,202.6c0,10.8,0,21.5,0,32.2c2.9,0,5.6,0,8.4,0
		c0-10.8,0-21.5,0-32.2C296,202.6,293.3,202.6,290.5,202.6z M250.9,137.5c2.9,0,5.7,0,8.5,0c0-2.7,0-5.3,0-7.9c-2.9,0-5.7,0-8.5,0
		C250.9,132.3,250.9,134.9,250.9,137.5z M197.7,165.7c0,2.7,0,5.3,0,7.9c2.9,0,5.7,0,8.5,0c0-2.7,0-5.3,0-7.9
		C203.4,165.7,200.6,165.7,197.7,165.7z M206.2,231.6c0-2.7,0-5.3,0-7.9c-2.9,0-5.7,0-8.5,0c0,2.7,0,5.3,0,7.9
		C200.6,231.6,203.3,231.6,206.2,231.6z M249.7,155.6c0-2.7,0-5.3,0-7.9c-2.9,0-5.6,0-8.4,0c0,2.7,0,5.3,0,7.9
		C244.1,155.6,246.8,155.6,249.7,155.6z M241.2,165.7c0,2.7,0,5.3,0,7.9c2.9,0,5.7,0,8.4,0c0-2.7,0-5.3,0-7.9
		C246.8,165.7,244.1,165.7,241.2,165.7z M197.6,192.9c2.9,0,5.7,0,8.6,0c0-2.7,0-5.2,0-7.8c-2.9,0-5.7,0-8.6,0
		C197.6,187.8,197.6,190.3,197.6,192.9z M260.7,155.6c2.9,0,5.6,0,8.5,0c0-2.7,0-5.3,0-7.9c-2.9,0-5.7,0-8.5,0
		C260.7,150.4,260.7,152.9,260.7,155.6z M269.2,165.8c-2.9,0-5.7,0-8.5,0c0,2.7,0,5.3,0,7.9c2.9,0,5.6,0,8.5,0
		C269.2,171,269.2,168.4,269.2,165.8z M197.7,204.4c0,2.7,0,5.2,0,7.8c2.9,0,5.7,0,8.5,0c0-2.6,0-5.2,0-7.8
		C203.3,204.4,200.6,204.4,197.7,204.4z"/>
</g>
<g id="레이어_6" class="st0">
	<g class="st1">
		<path d="M124.6,447.3c-8.3,0-15.4-2.9-21.3-8.8c-5.9-5.9-8.8-13-8.8-21.3V82.8c0-8.3,2.9-15.4,8.8-21.3c5.9-5.9,13-8.8,21.3-8.8
			h180.5l101.4,101.3v263.3c0,8.3-2.9,15.4-8.8,21.3c-5.9,5.9-13,8.8-21.3,8.8L124.6,447.3z M293.7,164.3V76H124.6
			c-1.7,0-3.3,0.7-4.7,2.1c-1.4,1.4-2.1,2.9-2.1,4.7v334.4c0,1.7,0.7,3.3,2.1,4.7c1.4,1.4,2.9,2.1,4.7,2.1h251.8
			c1.7,0,3.3-0.7,4.7-2.1c1.4-1.4,2.1-2.9,2.1-4.7V164.3H293.7z M117.8,76v88.3V76V424V76z"/>
	</g>
	<g class="st1">
		<path d="M208.5,269.6l-64.1-44.3l-3.3-74.1l25-48.2l55.5-10.9l43.2,36.6l-1.6,54.3L208.5,269.6z M165.9,213.4l36.2,25.1l39.2-62.1
			l1.1-37.7l-27-22.9l-34.8,6.8l-17.4,33.5L165.9,213.4z"/>
	</g>
	<g class="st1">
		<path d="M350.6,266.1h-59.3l-54.9-7.4l20.6-43.6l30-34.2l17.4,31.3l46.1-5V266.1z M292.3,251.1h43.3V224l-39.4,4.2l-11.9-21.4
			l-14.6,16.6l-10.9,23.2L292.3,251.1z"/>
	</g>
	<g class="st1">
		<rect x="134.6" y="284.3" width="226" height="23.3"/>
	</g>
	<g class="st1">
		<rect x="134.6" y="328.7" width="226" height="23.3"/>
	</g>
	<g class="st1">
		<rect x="134.6" y="373.1" width="226" height="23.3"/>
	</g>
</g>
</svg>
