<?xml version="1.0" encoding="utf-8"?>
<!-- Generator: Adobe Illustrator 26.0.1, SVG Export Plug-In . SVG Version: 6.00 Build 0)  -->
<svg version="1.1" xmlns="http://www.w3.org/2000/svg" xmlns:xlink="http://www.w3.org/1999/xlink" x="0px" y="0px"
	 viewBox="0 0 500 500" style="enable-background:new 0 0 500 500;" xml:space="preserve">
<style type="text/css">
	.st0{display:none;}
	.st1{display:inline;}
	.st2{fill:#040000;}
	.st3{display:inline;fill:#040000;}
	.st4{fill:#FFFFFF;}
	.st5{display:inline;fill:#FFFFFF;}
	.st6{font-family:'Roboto-Bold';}
	.st7{font-size:148.8488px;}
</style>
<g id="레이어_1" class="st0">
	<g class="st1">
		<path class="st2" d="M113.7,445c-8.3,0-15.4-3-21.3-8.9c-5.9-5.9-8.9-13-8.9-21.3V79.5c0-8.3,3-15.4,8.9-21.3
			c5.9-5.9,13-8.9,21.3-8.9h172.9l109.4,109.4v146.8h-23.4V174.2H271V72.7H113.7c-1.7,0-3.3,0.7-4.7,2.1s-2.1,3-2.1,4.7v335.3
			c0,1.7,0.7,3.3,2.1,4.7c1.4,1.4,3,2.1,4.7,2.1h205.2V445H113.7z M447,450.7l-70.3-70.8v67.7h-24V339.3H461v24h-68.2l70.8,70.3
			L447,450.7z M106.9,421.6V72.7V421.6z"/>
	</g>
	<path class="st1" d="M245.9-86.3h-36.4c-0.7,0-1.3-0.6-1.3-1.3v-12.5c0-0.7,0.6-1.3,1.3-1.3h36.4c0.7,0,1.3,0.6,1.3,1.3v12.5
		C247.2-86.9,246.6-86.3,245.9-86.3z"/>
	<path class="st3" d="M215.6-78.6c-0.8,0-1.5-0.3-2-0.8c-0.6-0.6-0.9-1.3-0.9-2.1v-32.2c0-0.8,0.3-1.5,0.9-2.1s1.2-0.8,2-0.8h17.4
		l9.8,9.8v25.3c0,0.8-0.3,1.5-0.8,2s-1.2,0.8-2.1,0.8L215.6-78.6z M231.8-105.8v-8.5h-16.2c-0.2,0-0.3,0.1-0.4,0.2
		c-0.1,0.1-0.2,0.3-0.2,0.5v32.2c0,0.2,0.1,0.3,0.2,0.4c0.1,0.1,0.3,0.2,0.4,0.2h24.2c0.2,0,0.3-0.1,0.4-0.2
		c0.1-0.1,0.2-0.3,0.2-0.4v-24.3H231.8z M214.9-114.3v8.5V-114.3v33.5V-114.3z"/>
	<text transform="matrix(1 0 0 1 209.2623 -88.8013)" class="st5 st6" style="font-size:14.3482px;">JSON</text>
	<g class="st1">
		<g>
			<path d="M429.5,330.2H55.9c-0.7,0-1.3-0.6-1.3-1.3V185.4c0-0.7,0.6-1.3,1.3-1.3h373.7c0.7,0,1.3,0.6,1.3,1.3v143.5
				C430.9,329.6,430.3,330.2,429.5,330.2z"/>
		</g>
		<g>
			<path class="st4" d="M113.5,207.7h20.3v68c0,6.3-1.4,11.8-4.2,16.6s-6.7,8.5-11.7,11.1c-5,2.6-10.7,3.9-17.1,3.9
				c-10.4,0-18.5-2.6-24.3-7.9c-5.8-5.3-8.7-12.8-8.7-22.4h20.4c0,4.8,1,8.4,3,10.7c2,2.3,5.2,3.4,9.6,3.4c3.9,0,7-1.3,9.2-4
				c2.3-2.7,3.4-6.4,3.4-11.3V207.7z"/>
			<path class="st4" d="M202,280.2c0-3.8-1.4-6.8-4.1-8.8c-2.7-2-7.6-4.2-14.6-6.5c-7-2.3-12.6-4.5-16.7-6.7
				c-11.2-6-16.7-14.2-16.7-24.4c0-5.3,1.5-10,4.5-14.2c3-4.2,7.3-7.4,12.9-9.8c5.6-2.3,11.9-3.5,18.9-3.5c7,0,13.3,1.3,18.8,3.8
				c5.5,2.5,9.8,6.1,12.8,10.8c3,4.6,4.6,9.9,4.6,15.8h-20.3c0-4.5-1.4-8-4.3-10.5c-2.8-2.5-6.8-3.7-11.9-3.7c-5,0-8.8,1-11.5,3.1
				c-2.7,2.1-4.1,4.9-4.1,8.3c0,3.2,1.6,5.9,4.8,8c3.2,2.2,8,4.2,14.2,6.1c11.5,3.5,19.9,7.8,25.2,12.9c5.3,5.1,7.9,11.5,7.9,19.2
				c0,8.5-3.2,15.2-9.7,20c-6.4,4.8-15.1,7.3-26,7.3c-7.6,0-14.4-1.4-20.7-4.2s-10.9-6.6-14.2-11.4c-3.3-4.8-4.9-10.4-4.9-16.7h20.3
				c0,10.8,6.5,16.3,19.4,16.3c4.8,0,8.6-1,11.3-2.9C200.7,286.5,202,283.7,202,280.2z"/>
			<path class="st4" d="M316.8,259.1c0,9.7-1.7,18.2-5.1,25.4c-3.4,7.3-8.3,12.9-14.7,16.9c-6.4,4-13.7,5.9-21.9,5.9
				c-8.1,0-15.4-2-21.8-5.9c-6.4-3.9-11.3-9.5-14.9-16.8c-3.5-7.3-5.3-15.6-5.3-25.1v-4.9c0-9.7,1.7-18.2,5.2-25.6
				c3.5-7.4,8.4-13,14.8-16.9c6.4-3.9,13.6-5.9,21.8-5.9c8.2,0,15.5,2,21.8,5.9c6.4,3.9,11.3,9.6,14.8,16.9
				c3.5,7.4,5.2,15.9,5.2,25.5V259.1z M296.3,254.6c0-10.3-1.8-18.1-5.5-23.5c-3.7-5.4-9-8-15.8-8c-6.8,0-12,2.6-15.7,7.9
				c-3.7,5.3-5.6,13-5.6,23.3v4.8c0,10,1.8,17.8,5.5,23.4c3.7,5.5,9,8.3,15.9,8.3c6.8,0,12-2.7,15.7-8s5.5-13.1,5.5-23.3V254.6z"/>
			<path class="st4" d="M411.4,306h-20.3l-39.4-64.7V306h-20.3v-98.3h20.3l39.5,64.8v-64.8h20.2V306z"/>
		</g>
	</g>
	<path class="st3" d="M259.5-78.6c-0.8,0-1.5-0.3-2-0.8c-0.6-0.6-0.9-1.3-0.9-2.1v-32.2c0-0.8,0.3-1.5,0.9-2.1
		c0.6-0.6,1.2-0.8,2-0.8h17.4l9.8,9.8v25.3c0,0.8-0.3,1.5-0.9,2c-0.6,0.6-1.2,0.8-2,0.8L259.5-78.6z M275.7-105.8v-8.5h-16.2
		c-0.2,0-0.3,0.1-0.5,0.2c-0.1,0.1-0.2,0.3-0.2,0.5v32.2c0,0.2,0.1,0.3,0.2,0.4c0.1,0.1,0.3,0.2,0.5,0.2h24.2c0.2,0,0.3-0.1,0.4-0.2
		c0.1-0.1,0.2-0.3,0.2-0.4v-24.3H275.7z M258.8-114.3v8.5V-114.3v33.5V-114.3z"/>
	<g class="st1">
		<path class="st2" d="M298.6-80.6v-2.2h35v2.2H298.6z M298.6-90.7V-93h35v2.3H298.6z M298.6-100.8v-2.2h35v2.2H298.6z"/>
	</g>
</g>
<g id="레이어_3" class="st0">
	<path class="st1" d="M443,363.5H40.4c-0.7,0-1.3-0.6-1.3-1.3V207.5c0-0.7,0.6-1.3,1.3-1.3H443c0.7,0,1.3,0.6,1.3,1.3v154.7
		C444.3,362.9,443.7,363.5,443,363.5z"/>
	<path class="st3" d="M116.2,443.5c-8.3,0-15.4-2.9-21.3-8.8c-5.9-5.9-8.8-13-8.8-21.3v-334c0-8.3,2.9-15.4,8.8-21.3
		c5.9-5.9,13-8.8,21.3-8.8h180l101.1,101.1v263c0,8.3-2.9,15.4-8.8,21.3c-5.9,5.9-13,8.8-21.3,8.8L116.2,443.5z M284.8,160.8V72.7
		H116.2c-1.7,0-3.3,0.7-4.7,2.1c-1.4,1.4-2.1,2.9-2.1,4.7v334c0,1.7,0.7,3.3,2.1,4.7c1.4,1.4,2.9,2.1,4.7,2.1h251.1
		c1.7,0,3.3-0.7,4.7-2.1c1.4-1.4,2.1-2.9,2.1-4.7V160.8H284.8z M109.4,72.7v88.2V72.7v347.5V72.7z"/>
	<text transform="matrix(1 0 0 1 50.4473 337.4307)" class="st5 st6 st7">JSON</text>
</g>
<g id="레이어_2" class="st0">
	<path class="st1" d="M443,364.9H40.4c-0.7,0-1.3-0.6-1.3-1.3V208c0-0.7,0.6-1.3,1.3-1.3H443c0.7,0,1.3,0.6,1.3,1.3v155.6
		C444.3,364.3,443.7,364.9,443,364.9z"/>
	<path class="st1" d="M116.3,443.5c-8.3,0-15.4-2.9-21.3-8.8c-5.9-5.9-8.8-13-8.8-21.3V79c0-8.3,2.9-15.4,8.8-21.3
		c5.9-5.9,13-8.8,21.3-8.8h180.5l101.4,101.3v263.3c0,8.3-2.9,15.4-8.8,21.3s-13,8.8-21.3,8.8L116.3,443.5z M285.3,160.5V72.2H116.3
		c-1.7,0-3.3,0.7-4.7,2.1c-1.4,1.4-2.1,2.9-2.1,4.7v334.4c0,1.7,0.7,3.3,2.1,4.7c1.4,1.4,2.9,2.1,4.7,2.1h251.8
		c1.7,0,3.3-0.7,4.7-2.1c1.4-1.4,2.1-2.9,2.1-4.7V160.5H285.3z M109.5,72.2v88.3V72.2v347.9V72.2z"/>
	<g class="st1">
		<path class="st4" d="M114.8,338.7V232.2h32.8c9.4,0,17.7,2.1,25.1,6.3c7.4,4.2,13.1,10.2,17.3,18c4.1,7.8,6.2,16.6,6.2,26.5v4.9
			c0,9.9-2,18.7-6.1,26.4c-4.1,7.7-9.8,13.7-17.2,17.9c-7.4,4.2-15.8,6.4-25.1,6.4H114.8z M136.7,250V321h10.6
			c8.6,0,15.1-2.8,19.7-8.4c4.5-5.6,6.8-13.6,6.9-24.1V283c0-10.8-2.2-19-6.7-24.6c-4.5-5.6-11-8.4-19.7-8.4H136.7z"/>
		<path class="st4" d="M248.6,268.9l20-36.7h25.2l-31,52.8l31.8,53.7H269l-20.5-37.3l-20.5,37.3h-25.5l31.8-53.7l-31-52.8h25.2
			L248.6,268.9z"/>
		<path class="st4" d="M369.6,295.2h-42.1v43.5h-21.9V232.2h69.3V250h-47.4v27.5h42.1V295.2z"/>
	</g>
</g>
<g id="레이어_4" class="st0">
	<path class="st1" d="M116.3,443.5c-8.3,0-15.4-2.9-21.3-8.8c-5.9-5.9-8.8-13-8.8-21.3V79c0-8.3,2.9-15.4,8.8-21.3
		c5.9-5.9,13-8.8,21.3-8.8h180.5l101.4,101.3v263.3c0,8.3-2.9,15.4-8.8,21.3s-13,8.8-21.3,8.8L116.3,443.5z M285.3,160.5V72.2H116.3
		c-1.7,0-3.3,0.7-4.7,2.1c-1.4,1.4-2.1,2.9-2.1,4.7v334.4c0,1.7,0.7,3.3,2.1,4.7c1.4,1.4,2.9,2.1,4.7,2.1h251.8
		c1.7,0,3.3-0.7,4.7-2.1c1.4-1.4,2.1-2.9,2.1-4.7V160.5H285.3z M109.5,72.2v88.3V72.2v347.9V72.2z"/>
</g>
<g id="레이어_5">
	<g>
		<path class="st2" d="M39.6,382.1v-27.9h405.2v27.9H39.6z M39.6,256.6v-28.6h405.2v28.6H39.6z M39.6,130.6v-27.9h405.2v27.9H39.6z"
			/>
	</g>
</g>
</svg>
