<svg xmlns="http://www.w3.org/2000/svg" viewBox="0 0 405.17 394.21"><defs><style>.cls-1{fill:#231815;}.cls-2{fill:#040000;}.cls-3{fill:#fff;}</style></defs><g id="레이어_2" data-name="레이어 2"><g id="레이어_3" data-name="레이어 3"><rect class="cls-1" y="156.85" width="405.17" height="157.29" rx="1.32"/><path class="cls-2" d="M77.06,394.21A30.1,30.1,0,0,1,47,364.13v-334A29,29,0,0,1,55.79,8.82,29,29,0,0,1,77.06,0h180L358.19,101.15v263a30.08,30.08,0,0,1-30.08,30.08ZM245.64,111.52V23.34H77.06a6.43,6.43,0,0,0-4.67,2.08,6.46,6.46,0,0,0-2.08,4.66V364.13a7.12,7.12,0,0,0,6.75,6.74H328.11a7.1,7.1,0,0,0,6.74-6.74V111.52ZM70.31,23.34v0Z"/><path class="cls-3" d="M63.44,182.29h21.8v73.26a35,35,0,0,1-4.46,17.84,30.38,30.38,0,0,1-12.61,12,39.42,39.42,0,0,1-18.39,4.21q-16.8,0-26.17-8.54t-9.37-24.16H36.19q0,7.77,3.27,11.48t10.32,3.71a12.48,12.48,0,0,0,9.95-4.29q3.72-4.29,3.71-12.21Z"/><path class="cls-3" d="M158.8,260.35q0-6.18-4.36-9.49t-15.7-7a109.72,109.72,0,0,1-18-7.23q-18-9.74-18-26.24a25.6,25.6,0,0,1,4.83-15.3,31.57,31.57,0,0,1,13.89-10.5,52.21,52.21,0,0,1,20.31-3.78,47.49,47.49,0,0,1,20.2,4.11,32.15,32.15,0,0,1,13.78,11.59,30.34,30.34,0,0,1,4.9,17h-21.8q0-7.26-4.58-11.3t-12.86-4q-8,0-12.43,3.38a10.68,10.68,0,0,0-4.44,8.91q0,5.16,5.2,8.65t15.3,6.54q18.6,5.59,27.11,13.88a27.63,27.63,0,0,1,8.5,20.64q0,13.74-10.39,21.55t-28,7.81a54,54,0,0,1-22.24-4.47q-10-4.47-15.3-12.24a31.42,31.42,0,0,1-5.27-18h21.88q0,17.52,20.93,17.52,7.77,0,12.14-3.16A10.32,10.32,0,0,0,158.8,260.35Z"/><path class="cls-3" d="M282.35,237.6q0,15.61-5.52,27.4A41.59,41.59,0,0,1,261,283.17a46.74,46.74,0,0,1-47.06.07,42.07,42.07,0,0,1-16-18.06q-5.67-11.74-5.74-27V233q0-15.63,5.63-27.51a41.93,41.93,0,0,1,15.92-18.25,46.63,46.63,0,0,1,47,0,41.93,41.93,0,0,1,15.92,18.25q5.63,11.88,5.63,27.43Zm-22.09-4.8q0-16.65-6-25.29t-17-8.65q-11,0-16.93,8.54t-6,25v5.16q0,16.2,5.95,25.14t17.16,8.94q11,0,16.86-8.61t6-25.11Z"/><path class="cls-3" d="M384.25,288.11h-21.8L320,218.48v69.63H298.2V182.29H320l42.52,69.77V182.29h21.73Z"/></g></g></svg>