<?xml version="1.0" encoding="utf-8"?>
<!-- Generator: Adobe Illustrator 26.0.1, SVG Export Plug-In . SVG Version: 6.00 Build 0)  -->
<svg version="1.1" xmlns="http://www.w3.org/2000/svg" xmlns:xlink="http://www.w3.org/1999/xlink" x="0px" y="0px"
	 viewBox="0 0 500 500" style="enable-background:new 0 0 500 500;" xml:space="preserve">
<style type="text/css">
	.st0{display:none;}
	.st1{display:inline;}
	.st2{fill:#FFFFFF;}
	.st3{fill:#040000;}
	.st4{display:inline;fill:#FFFFFF;}
	.st5{display:inline;fill:none;stroke:#000000;stroke-width:11;stroke-miterlimit:10;}
	.st6{display:inline;fill:none;stroke:#000000;stroke-width:9;stroke-miterlimit:10;}
</style>
<g id="레이어_4" class="st0">
	<g class="st1">
		<path d="M124.1,447.3c-8.3,0-15.4-2.9-21.3-8.8c-5.9-5.9-8.8-13-8.8-21.3V82.8c0-8.3,2.9-15.4,8.8-21.3c5.9-5.9,13-8.8,21.3-8.8
			h180.5l101.4,101.3v263.3c0,8.3-2.9,15.4-8.8,21.3c-5.9,5.9-13,8.8-21.3,8.8L124.1,447.3z M293.2,164.3V76H124.1
			c-1.7,0-3.3,0.7-4.7,2.1c-1.4,1.4-2.1,2.9-2.1,4.7v334.4c0,1.7,0.7,3.3,2.1,4.7c1.4,1.4,2.9,2.1,4.7,2.1h251.8
			c1.7,0,3.3-0.7,4.7-2.1c1.4-1.4,2.1-2.9,2.1-4.7V164.3H293.2z M117.3,76v88.3V76V424V76z"/>
	</g>
	<g class="st1">
	</g>
	<g class="st1">
	</g>
	<g class="st1">
	</g>
	<g class="st1">
	</g>
	<g class="st1">
		<path d="M431.6,364.3H68.4c-2.9,0-5.2-2.3-5.2-5.2V224.4c0-2.9,2.3-5.2,5.2-5.2h363.2c2.9,0,5.2,2.3,5.2,5.2v134.6
			C436.8,361.9,434.5,364.3,431.6,364.3z"/>
	</g>
	<g class="st1">
		<path class="st2" d="M137.3,340.3v-94.6h29.1c8.3,0,15.7,1.9,22.3,5.6c6.6,3.7,11.7,9.1,15.4,16c3.7,6.9,5.5,14.8,5.5,23.5v4.4
			c0,8.8-1.8,16.6-5.4,23.4c-3.6,6.8-8.7,12.1-15.3,15.9c-6.6,3.8-14,5.7-22.3,5.7H137.3z M156.7,261.5v63.1h9.4
			c7.6,0,13.4-2.5,17.5-7.5c4-5,6.1-12.1,6.2-21.4v-5c0-9.6-2-16.9-6-21.9c-4-5-9.8-7.4-17.5-7.4H156.7z"/>
		<path class="st2" d="M256.1,278.3l17.7-32.6h22.4l-27.5,46.9l28.2,47.7h-22.7l-18.2-33.1l-18.2,33.1h-22.7l28.2-47.7L216,245.7
			h22.4L256.1,278.3z"/>
		<path class="st2" d="M363.6,301.6h-37.4v38.6h-19.5v-94.6h61.6v15.8h-42.1v24.4h37.4V301.6z"/>
	</g>
	<g class="st1">
	</g>
	<g class="st1">
	</g>
</g>
<g id="레이어_7" class="st0">
	<g class="st1">
		<path d="M124.1,447.3c-8.3,0-15.4-2.9-21.3-8.8c-5.9-5.9-8.8-13-8.8-21.3V82.8c0-8.3,2.9-15.4,8.8-21.3c5.9-5.9,13-8.8,21.3-8.8
			h180.5l101.4,101.3v263.3c0,8.3-2.9,15.4-8.8,21.3c-5.9,5.9-13,8.8-21.3,8.8L124.1,447.3z M293.2,164.3V76H124.1
			c-1.7,0-3.3,0.7-4.7,2.1c-1.4,1.4-2.1,2.9-2.1,4.7v334.4c0,1.7,0.7,3.3,2.1,4.7c1.4,1.4,2.9,2.1,4.7,2.1h251.8
			c1.7,0,3.3-0.7,4.7-2.1c1.4-1.4,2.1-2.9,2.1-4.7V164.3H293.2z M117.3,76v88.3V76V424V76z"/>
	</g>
	<g class="st1">
		<path d="M431.6,364.3H68.4c-2.9,0-5.2-2.3-5.2-5.2V224.4c0-2.9,2.3-5.2,5.2-5.2h363.2c2.9,0,5.2,2.3,5.2,5.2v134.6
			C436.8,361.9,434.5,364.3,431.6,364.3z"/>
	</g>
	<g class="st1">
		<path class="st2" d="M125.7,245.7h19.5v65.5c0,6-1.3,11.3-4,15.9c-2.7,4.6-6.4,8.2-11.3,10.7c-4.8,2.5-10.3,3.8-16.4,3.8
			c-10,0-17.8-2.5-23.4-7.6c-5.6-5.1-8.4-12.3-8.4-21.6h19.6c0,4.6,1,8.1,2.9,10.3s5,3.3,9.2,3.3c3.7,0,6.7-1.3,8.9-3.8
			c2.2-2.6,3.3-6.2,3.3-10.9V245.7z"/>
		<path class="st2" d="M210.9,315.5c0-3.7-1.3-6.5-3.9-8.5c-2.6-2-7.3-4-14-6.2c-6.8-2.2-12.1-4.3-16-6.5
			c-10.7-5.8-16.1-13.6-16.1-23.4c0-5.1,1.4-9.7,4.3-13.7c2.9-4,7-7.1,12.4-9.4c5.4-2.3,11.4-3.4,18.2-3.4c6.8,0,12.8,1.2,18.1,3.7
			c5.3,2.4,9.4,5.9,12.3,10.4c2.9,4.5,4.4,9.5,4.4,15.2h-19.5c0-4.3-1.4-7.7-4.1-10.1c-2.7-2.4-6.6-3.6-11.5-3.6
			c-4.8,0-8.5,1-11.1,3c-2.6,2-4,4.7-4,8c0,3.1,1.5,5.7,4.6,7.7c3.1,2.1,7.7,4,13.7,5.8c11.1,3.3,19.2,7.5,24.2,12.4
			s7.6,11.1,7.6,18.4c0,8.2-3.1,14.6-9.3,19.3c-6.2,4.7-14.5,7-25,7c-7.3,0-13.9-1.3-19.9-4c-6-2.7-10.5-6.3-13.7-10.9
			c-3.1-4.6-4.7-10-4.7-16.1h19.5c0,10.4,6.2,15.7,18.7,15.7c4.6,0,8.2-0.9,10.8-2.8C209.6,321.5,210.9,318.8,210.9,315.5z"/>
		<path class="st2" d="M321.3,295.1c0,9.3-1.6,17.5-4.9,24.5s-8,12.4-14.1,16.2c-6.1,3.8-13.2,5.7-21.1,5.7c-7.8,0-14.8-1.9-21-5.7
			c-6.1-3.8-10.9-9.1-14.3-16.1c-3.4-7-5.1-15-5.1-24.1V291c0-9.3,1.7-17.5,5-24.6c3.4-7.1,8.1-12.5,14.2-16.3
			c6.1-3.8,13.1-5.7,21-5.7s14.9,1.9,21,5.7c6.1,3.8,10.9,9.2,14.2,16.3c3.4,7.1,5,15.3,5,24.5V295.1z M301.5,290.8
			c0-9.9-1.8-17.4-5.3-22.6s-8.6-7.7-15.2-7.7c-6.5,0-11.6,2.5-15.1,7.6c-3.6,5.1-5.3,12.5-5.4,22.4v4.6c0,9.7,1.8,17.1,5.3,22.5
			c3.5,5.3,8.7,8,15.3,8c6.5,0,11.6-2.6,15.1-7.7c3.5-5.1,5.3-12.6,5.3-22.4V290.8z"/>
		<path class="st2" d="M412.3,340.3h-19.5l-37.9-62.2v62.2h-19.5v-94.6h19.5l38,62.3v-62.3h19.4V340.3z"/>
	</g>
</g>
<g id="레이어_5">
	<g>
		<g>
			<path class="st3" d="M124,446.6c-8.3,0-15.4-2.9-21.3-8.8c-5.9-5.9-8.8-13-8.8-21.3V82.7c0-8.3,2.9-15.4,8.8-21.3
				c5.9-5.9,13-8.8,21.3-8.8h172.3l109,108.9v146.2h-23.3V177.1H280.7V76H124c-1.7,0-3.3,0.7-4.7,2.1c-1.4,1.4-2.1,2.9-2.1,4.7
				v333.8c0,1.7,0.7,3.3,2.1,4.7c1.4,1.4,2.9,2.1,4.7,2.1h204.4v23.3H124z M456.1,452.3l-70-70.5v67.4h-23.9V341.4h107.9v23.8h-68
				l70.6,70L456.1,452.3z M117.3,423.3V76V423.3z"/>
		</g>
	</g>
	<g>
		<path d="M431.6,335H68.4c-2.9,0-5.2-2.3-5.2-5.2V195.2c0-2.9,2.3-5.2,5.2-5.2h363.2c2.9,0,5.2,2.3,5.2,5.2v134.6
			C436.8,332.7,434.5,335,431.6,335z"/>
	</g>
	<g>
		<path class="st2" d="M125.7,216.5h19.5v65.5c0,6-1.3,11.3-4,15.9c-2.7,4.6-6.4,8.2-11.3,10.7c-4.8,2.5-10.3,3.8-16.4,3.8
			c-10,0-17.8-2.5-23.4-7.6c-5.6-5.1-8.4-12.3-8.4-21.6h19.6c0,4.6,1,8.1,2.9,10.3s5,3.3,9.2,3.3c3.7,0,6.7-1.3,8.9-3.8
			c2.2-2.6,3.3-6.2,3.3-10.9V216.5z"/>
		<path class="st2" d="M210.9,286.2c0-3.7-1.3-6.5-3.9-8.5c-2.6-2-7.3-4-14-6.2c-6.8-2.2-12.1-4.3-16-6.5
			c-10.7-5.8-16.1-13.6-16.1-23.4c0-5.1,1.4-9.7,4.3-13.7c2.9-4,7-7.1,12.4-9.4c5.4-2.3,11.4-3.4,18.2-3.4c6.8,0,12.8,1.2,18.1,3.7
			c5.3,2.4,9.4,5.9,12.3,10.4c2.9,4.5,4.4,9.5,4.4,15.2h-19.5c0-4.3-1.4-7.7-4.1-10.1c-2.7-2.4-6.6-3.6-11.5-3.6
			c-4.8,0-8.5,1-11.1,3c-2.6,2-4,4.7-4,8c0,3.1,1.5,5.7,4.6,7.7c3.1,2.1,7.7,4,13.7,5.8c11.1,3.3,19.2,7.5,24.2,12.4
			s7.6,11.1,7.6,18.4c0,8.2-3.1,14.6-9.3,19.3c-6.2,4.7-14.5,7-25,7c-7.3,0-13.9-1.3-19.9-4c-6-2.7-10.5-6.3-13.7-10.9
			c-3.1-4.6-4.7-10-4.7-16.1h19.5c0,10.4,6.2,15.7,18.7,15.7c4.6,0,8.2-0.9,10.8-2.8C209.6,292.2,210.9,289.6,210.9,286.2z"/>
		<path class="st2" d="M321.3,265.9c0,9.3-1.6,17.5-4.9,24.5s-8,12.4-14.1,16.2c-6.1,3.8-13.2,5.7-21.1,5.7c-7.8,0-14.8-1.9-21-5.7
			c-6.1-3.8-10.9-9.1-14.3-16.1c-3.4-7-5.1-15-5.1-24.1v-4.7c0-9.3,1.7-17.5,5-24.6c3.4-7.1,8.1-12.5,14.2-16.3
			c6.1-3.8,13.1-5.7,21-5.7s14.9,1.9,21,5.7c6.1,3.8,10.9,9.2,14.2,16.3c3.4,7.1,5,15.3,5,24.5V265.9z M301.5,261.6
			c0-9.9-1.8-17.4-5.3-22.6s-8.6-7.7-15.2-7.7c-6.5,0-11.6,2.5-15.1,7.6c-3.6,5.1-5.3,12.5-5.4,22.4v4.6c0,9.7,1.8,17.1,5.3,22.5
			c3.5,5.3,8.7,8,15.3,8c6.5,0,11.6-2.6,15.1-7.7c3.5-5.1,5.3-12.6,5.3-22.4V261.6z"/>
		<path class="st2" d="M412.3,311h-19.5l-37.9-62.2V311h-19.5v-94.6h19.5l38,62.3v-62.3h19.4V311z"/>
	</g>
</g>
<g id="레이어_8" class="st0">
	<path class="st1" d="M56,169.6c6.7-18.3,22.5-26,38.9-32.9c20.1-8.4,41.2-12.9,62.6-16.5c36.8-6.1,73.9-7.8,111.1-6.7
		c40.6,1.3,80.7,5.8,119.5,18.6c13.5,4.4,26.6,9.9,37.9,18.9c6,4.8,11,10.6,12.7,18.4c0.4,2,0.6,4.2,0.6,6.3
		c0,43.7-0.3,87.4,0.2,131c0.2,12.9-5.1,22-14.7,29.4c-12.4,9.6-26.9,15-41.6,19.8c-3.1,1-6.2,1.8-9.3,2.7c-4,1.1-6.9-0.9-7.5-4.9
		c-0.2-1.2-0.1-2.5-0.1-3.7c0-23.2,0-46.4,0-69.6c0-1.5,0-3,0-4.9c-39-9.6-78.6-12.9-118.6-12.9c-39.8,0-79.4,3.3-118.6,12.9
		c0,1.5,0,3,0,4.5c0,23.6,0,47.2-0.1,70.8c0,2-0.2,4.5-1.4,6c-1.1,1.3-3.8,2.5-5.4,2.1c-17.7-4.8-35.1-10.5-50.2-21.4
		c-7.5-5.4-13.2-12.1-16-20.9C56,267.4,56,218.5,56,169.6z M366.2,263.5c0-1.4,0-2.8,0-4.1c0-13.5,0-27,0-40.4
		c0-6.2,0.8-7.3,6.7-8.9c13.6-3.9,26.9-8.2,39-15.7c4.4-2.7,8.6-6.1,12.1-9.9c5.9-6.3,5.8-13.4,0-19.8c-3-3.3-6.4-6.6-10.2-8.6
		c-8.9-4.7-17.9-9.4-27.4-12.6c-37.2-12.9-75.9-17.2-115-18.7c-39.7-1.5-79.3,0.2-118.5,7.4c-20.5,3.7-40.6,8.7-59.7,17.3
		c-7.6,3.5-14.9,7.5-20.8,13.7c-7.2,7.5-7.4,14.9-0.3,22.4c2.5,2.7,5.5,5.1,8.6,7.2c12.7,8.4,27,13.2,41.5,17.3
		c5.8,1.6,6.8,2.8,6.8,8.9c0,13.6,0,27.2,0,40.8c0,1.3,0,2.6,0,3.8C208.4,247.1,287.1,247.1,366.2,263.5z M118,346.1
		c0-2,0-3.4,0-4.7c0-38.9-0.1-77.9,0.1-116.8c0-3.4-1.2-4.7-4.3-5.6c-13-3.7-25.5-8.6-37-15.7c-3.2-2-6.2-4.3-9.8-6.8
		c0,1.8,0,3.2,0,4.5c0,35.6,0.2,71.1-0.1,106.7c-0.1,8.1,3,13.9,8.9,18.7c10,8,21.6,12.7,33.5,16.9C112,344.2,114.7,345,118,346.1z
		 M428.2,196.2C414,207.8,398.4,214,382,218.8c-3.9,1.1-4.9,2.8-4.8,6.7c0.2,38.6,0.1,77.1,0.1,115.7c0,1.4,0,2.9,0,4.8
		c2.5-0.7,4.4-1.2,6.3-1.9c13-4.4,25.8-9.3,36.5-18.2c5.4-4.5,8.3-10,8.2-17.5c-0.3-35.8-0.1-71.6-0.1-107.4
		C428.2,199.6,428.2,198.3,428.2,196.2z"/>
	<path class="st4" d="M430.2,196.2c0,2.1,0,3.4,0,4.7c0,35.8-0.1,71.6,0.1,107.4c0.1,7.5-2.8,13-8.2,17.5
		c-10.7,8.9-23.5,13.8-36.5,18.2c-1.9,0.6-3.7,1.1-6.3,1.9c0-2,0-3.4,0-4.8c0-38.6,0.1-77.1-0.1-115.7c0-3.9,1-5.5,4.8-6.7
		C400.4,214,416.1,207.8,430.2,196.2z"/>
	<g>
		<path class="st1" d="M189.7,245.9c-0.8-0.5-1.5-1-1.4-2.1c0.1-1,0.8-1.8,1.9-1.8c1.1-0.1,2.3,0,3.5,0c0-0.6,0-1.1,0-1.6
			c0-24.1,0-48.2,0-72.2c0-2.4,0.5-3,3-3c4.8,0,9.7,0,14.5,0c0.4,0,0.9,0,1.4,0c0-0.5,0.1-0.9,0.1-1.3c0-4.8,0-9.5,0-14.3
			c0-2.3,0.7-3,3.1-3c1.6,0,3.2,0,4.7,0c0.1,0,0.1,0,0.4-0.1c0-2.1,0-4.3,0-6.5c0-0.5,0-1,0-1.5c0-1.7,0.8-2.4,2.5-2.5
			c2.4,0,4.8,0,7.2,0c0.3,0,0.7,0,1.1-0.1c0-2,0-3.9,0-5.8c0-1.2,0.9-2,2-2c1.1,0,1.9,0.6,2.1,1.8c0.1,0.5,0.1,1.1,0.1,1.6
			c0,1.4,0,2.9,0,4.5c2.4,0,4.7,0,7,0c3.6,0,3.9,0.3,3.9,3.8c0,2.2,0,4.4,0,6.7c1.4,0,2.6,0,4,0c0-1.8,0-3.5,0-5.3c0-1,0-2.1,0-3.1
			c0.1-1.3,0.7-1.9,2.1-2.1c0.3,0,0.7,0,1.1,0c12,0,24,0,36,0c2.5,0,3.1,0.6,3.1,3c0,33.7,0,67.5,0,101.2c0,0.5,0,1,0,1.7
			c0.9,0,1.8,0,2.7,0c1.2,0,2.2,0.2,2.6,1.4c0.4,1.2-0.4,1.9-1.3,2.5C261.3,245.9,225.5,245.9,189.7,245.9z M288.9,241.8
			c0-34,0-67.9,0-101.7c-11.3,0-22.6,0-33.8,0c0,16.3,0,32.5,0,48.7c2.2,0,4.4,0,6.6,0c0.5-1.8,1.1-2.5,2.2-2.5
			c1.2,0,1.8,0.8,2.2,2.5c1.3,0,2.6,0,3.8,0c0-0.3,0-0.5,0.1-0.6c0.2-1.1,1-1.9,2-1.9c1,0,1.8,0.7,2,1.9c0.1,0.4,0.1,0.9,0.1,1.4
			c0,16.9,0,33.9,0,50.8c0,0.5,0,1,0.1,1.5C279.1,241.8,283.9,241.8,288.9,241.8z M231.7,241.8c0-24.3,0-48.4,0-72.6
			c-11.3,0-22.6,0-33.9,0c0,0.6,0,1,0,1.5c0,22.7,0,45.4,0,68.1c0,3.1,0,3.1,3.1,3.1c2.1,0,4.2,0,6.4,0c0-2.8,0-5.4,0-8
			c0-1.9,0.7-2.6,2.7-2.6c2.8,0,5.7,0,8.5,0c3.5,0,3.8,0.3,3.8,3.7c0,2.2,0,4.5,0,6.8C225.5,241.8,228.6,241.8,231.7,241.8z
			 M269.8,241.8c0-16.4,0-32.6,0-48.8c-11.3,0-22.5,0-33.8,0c0,16.3,0,32.5,0,48.8C247.3,241.8,258.5,241.8,269.8,241.8z
			 M250.7,150.7c-11.3,0-22.6,0-33.8,0c0,4.8,0,9.6,0,14.4c5.3,0,10.4,0,15.6,0c2.7,0,2.8,0,3.6,2.6c1.6,0,3.2,0,4.8,0
			c0.5,0,1,0,1.5,0.1c1,0.2,1.7,1.1,1.6,2.1c-0.1,1-0.9,1.8-2.1,1.8c-2,0-3.9,0-5.9,0c0,2.2,0,4.4,0,6.5c1,0,1.8,0,2.7,0
			c1.2,0,2.4,0,3.5,0.1c1.1,0.1,1.8,1,1.8,1.9c0,1-0.8,1.8-1.8,1.9c-0.5,0.1-1.1,0-1.7,0c-1.5,0-3,0-4.5,0c0,2.3,0,4.4,0,6.5
			c5,0,9.8,0,14.7,0C250.7,176.1,250.7,163.4,250.7,150.7z M225.1,140.1c0,2.2,0,4.3,0,6.4c5.9,0,11.7,0,17.5,0c0-2.2,0-4.3,0-6.4
			C236.7,140.1,231,140.1,225.1,140.1z M211.5,235.4c0,2.2,0,4.3,0,6.5c0.4,0,0.7,0,1.2,0c0-0.6,0-1,0-1.5c0-0.5,0-1,0-1.5
			c0.1-1.4,0.9-2.2,2.2-2.2c1.2,0.1,1.9,0.9,1.9,2.3c0,0.9,0,1.9,0,2.9c0.5,0,0.8,0,1.2-0.1c0-2.2,0-4.3,0-6.5
			C215.9,235.4,213.7,235.4,211.5,235.4z"/>
		<path class="st1" d="M269.9,163.2c0-0.5,0-1,0-1.5c0.1-1,0.9-1.8,1.9-1.8c1-0.1,1.9,0.6,2.1,1.6c0.1,1.1,0.1,2.2,0,3.3
			c-0.1,1-1.1,1.7-2,1.7c-1,0-1.9-0.8-2-1.9C269.8,164.1,269.9,163.6,269.9,163.2C269.9,163.2,269.9,163.2,269.9,163.2z"/>
		<path class="st1" d="M274.1,176.4c-0.1,0.5-0.1,1.1-0.2,1.7c-0.2,1.1-0.9,1.6-2,1.6c-1,0-1.9-0.7-2-1.7c-0.1-1-0.1-2.1,0-3.1
			c0.1-1,1-1.8,2-1.8c1,0,1.8,0.6,2,1.7C274,175.3,274,175.8,274.1,176.4z"/>
		<path class="st1" d="M269.9,149.8c0-0.5,0-0.9,0-1.4c0.1-1.1,1-1.9,2-1.9c1,0,1.9,0.6,2,1.7c0.1,1.1,0.1,2.2,0,3.3
			c-0.1,1.1-1,1.6-2.1,1.6c-1.1-0.1-1.7-0.7-1.9-1.7C269.8,150.9,269.9,150.4,269.9,149.8C269.9,149.8,269.9,149.8,269.9,149.8z"/>
		<path class="st1" d="M265.8,163.1c0,0.5,0.1,1.1,0,1.6c-0.1,1-1,1.8-2,1.7c-1-0.1-1.8-0.6-1.9-1.6c-0.1-1.1-0.1-2.1,0-3.2
			c0.1-1.1,1-1.8,2-1.8c1,0,1.9,0.8,2,1.9C265.8,162.2,265.8,162.7,265.8,163.1C265.8,163.1,265.8,163.1,265.8,163.1z"/>
		<path class="st1" d="M282.1,176.4c0,0.5,0.1,1.1,0,1.6c-0.1,1-1,1.7-2,1.7c-1.1-0.1-1.8-0.6-1.9-1.6c-0.1-1.1-0.1-2.2,0-3.3
			c0.1-1.1,0.9-1.6,1.9-1.6c1-0.1,1.9,0.7,2,1.7C282.2,175.3,282.1,175.8,282.1,176.4z"/>
		<path class="st1" d="M282.1,163.1c0,0.5,0.1,1.1,0,1.6c-0.1,1-1.1,1.8-2,1.7c-1-0.1-1.8-0.6-1.9-1.7c-0.1-1.1-0.1-2.2,0-3.3
			c0.1-1.1,0.9-1.6,1.9-1.6c1-0.1,1.9,0.7,2,1.7C282.2,162.1,282.1,162.6,282.1,163.1z"/>
		<path class="st1" d="M282.1,216.2c0,0.5,0.1,1,0,1.5c-0.1,1-1,1.8-2,1.7c-1.1,0-1.8-0.6-1.9-1.6c-0.1-1.1-0.1-2.1,0-3.2
			c0.1-1.1,1-1.8,2-1.8c1,0,1.9,0.9,2,1.9C282.2,215.2,282.1,215.7,282.1,216.2C282.1,216.2,282.1,216.2,282.1,216.2z"/>
		<path class="st1" d="M282.1,150c0,0.5,0,0.9,0,1.4c-0.1,1.1-0.9,1.8-2,1.9c-1.1,0-1.9-0.6-2-1.7c-0.1-1.1-0.1-2.1,0-3.2
			c0.1-1,1-1.7,2-1.7c1,0,1.9,0.8,2,1.9C282.2,149,282.1,149.5,282.1,150z"/>
		<path class="st1" d="M265.8,176.5c0,0.5,0,1,0,1.5c-0.1,1-1,1.8-2,1.7c-1.1,0-1.9-0.5-2-1.6c-0.1-1.1-0.1-2.2,0-3.3
			c0.1-1.1,1-1.7,2-1.7c1,0,1.9,0.7,2,1.8C265.9,175.4,265.8,175.9,265.8,176.5z"/>
		<path class="st1" d="M265.8,150c0,0.5,0,0.9,0,1.4c-0.1,1.1-0.9,1.8-1.9,1.8c-1.1,0.1-2-0.6-2.1-1.7c-0.1-1.1-0.1-2.1,0-3.2
			c0.1-1,1-1.7,2-1.7c1.1,0,1.9,0.8,2,1.9C265.8,149,265.8,149.5,265.8,150z"/>
		<path class="st1" d="M282.1,202.9c0,0.5,0,1,0,1.5c-0.1,1-0.9,1.8-2,1.8c-1,0-1.9-0.6-2-1.7c-0.1-1.1-0.1-2.1,0-3.2
			c0.1-1.1,1-1.8,2.1-1.7c1,0.1,1.8,0.8,1.9,1.8C282.2,201.9,282.1,202.4,282.1,202.9C282.1,202.9,282.1,202.9,282.1,202.9z"/>
		<path class="st1" d="M282.1,229.4c0,0.5,0,1,0,1.5c-0.1,1-1,1.8-2,1.8c-1,0-1.9-0.7-2-1.7c-0.1-1.1-0.1-2.1,0-3.2
			c0.1-1.1,1-1.8,2.1-1.7c1,0.1,1.8,0.8,1.9,1.8C282.2,228.4,282.1,228.9,282.1,229.4C282.1,229.4,282.1,229.4,282.1,229.4z"/>
		<path class="st1" d="M282.1,189.7c0,0.5,0,0.9,0,1.4c-0.1,1.1-1,1.9-2,1.9c-1,0-1.9-0.7-2-1.7c-0.1-1-0.1-2.1,0-3.1
			c0.1-1.1,1-1.8,2-1.8c1.1,0,1.9,0.9,2,2C282.2,188.8,282.1,189.2,282.1,189.7C282.1,189.7,282.1,189.7,282.1,189.7z"/>
		<path class="st1" d="M216.8,194.9c0,0.5,0.1,1.1,0,1.6c-0.2,1-0.9,1.7-1.9,1.7c-1.1,0-1.9-0.5-2-1.6c-0.1-1.1-0.2-2.2,0-3.3
			c0.1-1.1,1.1-1.8,2.1-1.8c1,0.1,1.8,0.9,1.9,2C216.9,194,216.8,194.5,216.8,194.9C216.8,194.9,216.8,194.9,216.8,194.9z"/>
		<path class="st1" d="M216.8,221.5c0,0.5,0.1,1,0,1.5c-0.2,1-1,1.8-2,1.7c-1.1,0-1.8-0.6-1.9-1.6c-0.1-1.1-0.1-2.2,0-3.3
			c0.1-1,1.1-1.7,2-1.7c1,0,1.9,0.8,2,1.9C216.9,220.5,216.8,221,216.8,221.5C216.8,221.5,216.8,221.5,216.8,221.5z"/>
		<path class="st1" d="M216.8,181.7c0,0.5,0.1,1,0,1.5c-0.1,1-1,1.8-2,1.7c-1.1,0-1.9-0.5-2-1.6c-0.1-1.1-0.1-2.3,0-3.4
			c0.1-1.1,0.9-1.6,2-1.6c1.1,0,1.8,0.6,2,1.6C216.9,180.6,216.8,181.2,216.8,181.7C216.8,181.7,216.8,181.7,216.8,181.7z"/>
		<path class="st1" d="M216.8,208.2c0,0.5,0,0.9,0,1.4c-0.1,1.1-0.9,1.9-2,1.9c-1,0-1.9-0.6-2-1.7c-0.1-1.1-0.1-2.2,0-3.3
			c0.1-1.1,1-1.7,2.1-1.6c1.1,0.1,1.7,0.7,1.9,1.7C216.9,207.1,216.8,207.6,216.8,208.2C216.8,208.2,216.8,208.2,216.8,208.2z"/>
		<path class="st1" d="M204.6,181.6c0-0.5,0-1,0-1.5c0.1-1,0.9-1.8,2-1.8c1,0,1.9,0.6,2,1.7c0.1,1.1,0.1,2.1,0,3.2
			c-0.1,1.1-1,1.8-2.1,1.7c-1-0.1-1.8-0.8-1.9-1.8C204.5,182.6,204.6,182.1,204.6,181.6C204.6,181.6,204.6,181.6,204.6,181.6z"/>
		<path class="st1" d="M225.1,208.2c0,0.5,0,1-0.1,1.6c-0.2,1-1,1.7-2,1.7c-1,0-1.9-0.8-2-1.8c-0.1-1-0.1-2,0-3
			c0.1-1.1,0.9-1.8,1.9-1.8c1.1-0.1,1.9,0.6,2.1,1.7C225,207.1,225,207.6,225.1,208.2z"/>
		<path class="st1" d="M220.9,194.8c0-0.5,0-0.9,0-1.4c0.1-1.1,1-1.9,2-1.9c1,0,1.9,0.7,2,1.7c0.1,1.1,0.1,2.1,0,3.2
			c-0.1,1-1,1.7-2,1.7c-1,0-1.9-0.8-2-1.9C220.9,195.8,220.9,195.3,220.9,194.8z"/>
		<path class="st1" d="M204.6,221.4c0-0.5,0-1,0-1.5c0.1-1,1-1.8,2-1.8c1,0,1.9,0.7,2,1.7c0.1,1.1,0.1,2.1,0,3.2
			c-0.1,1.1-1,1.8-2.1,1.7c-1-0.1-1.8-0.8-1.9-1.8C204.5,222.4,204.6,221.9,204.6,221.4C204.6,221.4,204.6,221.4,204.6,221.4z"/>
		<path class="st1" d="M220.9,221.4c0-0.5,0-1,0-1.5c0.1-1,1-1.8,2-1.8c1,0,1.9,0.7,2,1.7c0.1,1.1,0.1,2.1,0,3.2
			c-0.1,1.1-1,1.8-2.1,1.7c-1-0.1-1.8-0.8-1.9-1.8C220.9,222.4,220.9,221.9,220.9,221.4C220.9,221.4,220.9,221.4,220.9,221.4z"/>
		<path class="st1" d="M225.1,181.7c0,0.5,0,1.1-0.1,1.6c-0.2,1.1-1,1.7-2,1.7c-1.1,0-1.9-0.8-2-1.9c-0.1-0.9-0.1-1.9,0-2.9
			c0.1-1.1,0.9-1.8,2-1.9c1,0,1.8,0.6,2,1.7C225,180.6,225,181.1,225.1,181.7z"/>
		<path class="st1" d="M204.6,194.8c0-0.5,0-0.9,0-1.4c0.1-1.1,1-1.9,2-1.9c1,0,1.9,0.7,2,1.7c0.1,1.1,0.1,2.1,0,3.2
			c-0.1,1-1,1.7-2,1.7c-1,0-1.9-0.8-2-1.8C204.5,195.9,204.6,195.4,204.6,194.8C204.6,194.8,204.6,194.8,204.6,194.8z"/>
		<path class="st1" d="M204.6,208.1c0-0.5,0-1,0-1.5c0.1-1,0.9-1.8,1.9-1.8c1.1,0,1.9,0.6,2,1.6c0.1,1.1,0.1,2.1,0,3.2
			c-0.1,1.1-1,1.8-2.1,1.7c-1.1-0.1-1.9-0.8-1.9-1.9C204.5,209.1,204.6,208.6,204.6,208.1C204.6,208.1,204.6,208.1,204.6,208.1z"/>
		<path class="st1" d="M259,217.3c0-5.9,0-11.8,0-17.7c0-0.5,0-1,0.2-1.5c0.3-0.8,1-1.3,1.9-1.2c0.9,0,1.6,0.5,1.9,1.5
			c0.1,0.5,0.1,1,0.1,1.5c0,11.7,0,23.4,0,35.1c0,2-0.7,3-2.1,3c-1.4,0-2.1-1-2.1-3C259,229,259,223.2,259,217.3z"/>
		<path class="st1" d="M242.7,217.3c0-5.9,0-11.7,0-17.6c0-0.4,0-0.9,0.1-1.3c0.3-1,1-1.6,2.1-1.6c1,0,1.7,0.6,1.9,1.6
			c0.1,0.5,0.1,1,0.1,1.5c0,11.6,0,23.2,0,34.8c0,0.5,0,1-0.1,1.5c-0.2,1.1-0.9,1.6-2,1.6c-1,0-1.7-0.5-2-1.5
			c-0.1-0.4-0.1-0.8-0.1-1.3C242.7,229.2,242.7,223.3,242.7,217.3z"/>
		<path class="st1" d="M254.9,217.3c0,6.1,0,12.1,0,18.2c0,1.7-1.1,2.8-2.5,2.3c-0.6-0.2-1.1-0.9-1.5-1.4c-0.2-0.4-0.1-1-0.1-1.5
			c0-11.7,0-23.3,0-35c0-0.5,0-0.9,0.1-1.4c0.2-1.1,0.9-1.6,1.9-1.7c1-0.1,1.9,0.7,2.1,1.7c0.1,0.4,0,0.8,0,1.1
			C254.9,205.6,254.9,211.5,254.9,217.3z"/>
		<path class="st1" d="M233.8,161.2c-2.6,0-5.1,0-7.7,0c-1.6,0-2.5-0.8-2.5-2c0-1.2,0.9-2,2.4-2c5.2,0,10.5,0,15.7,0
			c1.5,0,2.4,0.9,2.3,2.1c0,1.2-1,1.9-2.4,2C239,161.2,236.4,161.2,233.8,161.2z"/>
	</g>
	<g class="st1">
		<path d="M167.1,340.3h9.2c4.4,0,7.6-1.1,9.7-3.3c2.1-2.2,3.2-5.1,3.2-8.7c0-3.5-1-6.2-3.1-8.2c-2.1-1.9-5-2.9-8.6-2.9
			c-3.3,0-6.1,0.9-8.3,2.7c-2.2,1.8-3.3,4.2-3.3,7.1h-17.2c0-4.5,1.2-8.6,3.7-12.2c2.4-3.6,5.9-6.4,10.2-8.4c4.4-2,9.2-3,14.5-3
			c9.2,0,16.4,2.2,21.6,6.6c5.2,4.4,7.8,10.4,7.8,18.1c0,4-1.2,7.6-3.6,11c-2.4,3.3-5.6,5.9-9.5,7.7c4.9,1.7,8.5,4.4,10.9,7.9
			c2.4,3.5,3.6,7.6,3.6,12.4c0,7.7-2.8,13.9-8.4,18.5c-5.6,4.6-13.1,7-22.3,7c-8.7,0-15.7-2.3-21.2-6.9c-5.5-4.6-8.3-10.6-8.3-18.1
			h17.2c0,3.3,1.2,5.9,3.7,8c2.4,2.1,5.5,3.1,9,3.1c4.1,0,7.3-1.1,9.6-3.2c2.3-2.2,3.5-5,3.5-8.6c0-8.7-4.8-13-14.3-13h-9.1V340.3z"
			/>
		<path d="M266.3,303.7v14.2h-1.7c-7.8,0.1-14,2.1-18.8,6.1c-4.7,3.9-7.6,9.4-8.5,16.4c4.6-4.7,10.4-7,17.5-7c7.5,0,13.5,2.7,18,8.1
			c4.4,5.4,6.7,12.5,6.7,21.3c0,5.6-1.2,10.7-3.7,15.3c-2.4,4.6-5.9,8.1-10.4,10.7c-4.5,2.5-9.5,3.8-15.2,3.8
			c-9.1,0-16.5-3.2-22.1-9.5c-5.6-6.4-8.4-14.8-8.4-25.4v-6.2c0-9.4,1.8-17.7,5.3-24.9c3.6-7.2,8.7-12.8,15.3-16.7
			c6.7-4,14.4-5.9,23.1-6H266.3z M249.5,347.2c-2.8,0-5.3,0.7-7.6,2.2s-3.9,3.4-5,5.7v5.2c0,5.7,1.1,10.2,3.4,13.5
			c2.3,3.2,5.4,4.8,9.5,4.8c3.7,0,6.7-1.5,9-4.4c2.3-2.9,3.4-6.7,3.4-11.3c0-4.7-1.2-8.5-3.5-11.4
			C256.5,348.6,253.4,347.2,249.5,347.2z"/>
		<path d="M348,355.5c0,12-2.5,21.2-7.4,27.5c-5,6.4-12.2,9.5-21.8,9.5c-9.5,0-16.7-3.1-21.7-9.4c-5-6.2-7.6-15.2-7.7-26.8v-16
			c0-12.1,2.5-21.3,7.5-27.6c5-6.3,12.3-9.4,21.7-9.4c9.5,0,16.7,3.1,21.7,9.3c5,6.2,7.6,15.1,7.7,26.8V355.5z M330.8,337.9
			c0-7.2-1-12.4-2.9-15.7c-2-3.3-5-4.9-9.2-4.9c-4.1,0-7,1.6-9,4.7c-1.9,3.1-2.9,8-3.1,14.6v21.1c0,7.1,1,12.3,2.9,15.8
			s5,5.2,9.3,5.2c4.2,0,7.2-1.6,9.1-4.9c1.9-3.3,2.8-8.3,2.9-15.1V337.9z"/>
	</g>
	<path class="st1" d="M186.9,244.5c0-2.1,0-4.2,0-6.4c3,0,5.8,0,8.8,0c0-21.2,0-42.3,0-63.6c10.3,0,20.4,0,30.7,0
		c0,21.1,0,42.3,0,63.5c2.4,0,4.6,0,7,0c0-26,0-51.9,0-78c2.7,0,5.2,0,7.9,0c0-4.9,0-9.6,0-14.5c3,0,5.9,0,8.9,0c0-3.9,0-7.7,0-11.6
		c2.4,0,4.7,0,7.1,0c0,3.8,0,7.6,0,11.6c3,0,5.9,0,8.9,0c0,4.9,0,9.6,0,14.5c2.7,0,5.3,0,7.9,0c0,12.4,0,24.6,0,37
		c-7.8,0-15.6,0-23.5,0c0,13.8,0,27.4,0,41.1c2.2,0,4.4,0,6.8,0c0-11.5,0-23,0-34.5c13.5,0,26.8,0,40.3,0c0,11.4,0,22.9,0,34.5
		c3.1,0,6,0,9,0c0,2.2,0,4.3,0,6.5C266.7,244.5,226.8,244.5,186.9,244.5z M266.2,212.1c0,8.7,0,17.3,0,25.9c2.3,0,4.6,0,6.9,0
		c0-8.7,0-17.2,0-25.9C270.8,212.1,268.5,212.1,266.2,212.1z M282,212.1c0,8.7,0,17.3,0,25.9c2.3,0,4.5,0,6.7,0c0-8.6,0-17.2,0-25.9
		C286.5,212.1,284.3,212.1,282,212.1z M250.3,159.9c2.4,0,4.6,0,6.8,0c0-2.2,0-4.3,0-6.3c-2.3,0-4.6,0-6.8,0
		C250.3,155.6,250.3,157.7,250.3,159.9z M207.6,182.5c0,2.2,0,4.3,0,6.3c2.3,0,4.6,0,6.8,0c0-2.1,0-4.2,0-6.3
		C212.1,182.5,209.9,182.5,207.6,182.5z M214.4,235.4c0-2.2,0-4.2,0-6.4c-2.3,0-4.6,0-6.8,0c0,2.2,0,4.2,0,6.4
		C209.9,235.4,212.1,235.4,214.4,235.4z M249.3,174.4c0-2.2,0-4.3,0-6.4c-2.3,0-4.5,0-6.8,0c0,2.2,0,4.3,0,6.4
		C244.8,174.4,247,174.4,249.3,174.4z M242.5,182.5c0,2.2,0,4.3,0,6.3c2.3,0,4.6,0,6.8,0c0-2.2,0-4.2,0-6.3
		C247,182.5,244.8,182.5,242.5,182.5z M207.5,204.3c2.4,0,4.6,0,6.9,0c0-2.1,0-4.2,0-6.3c-2.3,0-4.6,0-6.9,0
		C207.5,200.2,207.5,202.2,207.5,204.3z M258.1,174.3c2.3,0,4.5,0,6.8,0c0-2.1,0-4.2,0-6.3c-2.3,0-4.5,0-6.8,0
		C258.1,170.1,258.1,172.2,258.1,174.3z M265,182.5c-2.4,0-4.6,0-6.8,0c0,2.2,0,4.2,0,6.3c2.3,0,4.5,0,6.8,0
		C265,186.7,265,184.6,265,182.5z M207.5,213.6c0,2.1,0,4.2,0,6.2c2.3,0,4.6,0,6.9,0c0-2.1,0-4.1,0-6.2
		C212.1,213.6,209.9,213.6,207.5,213.6z"/>
</g>
<g id="레이어_6" class="st0">
	<path class="st1" d="M124.6,447.3c-8.3,0-15.4-2.9-21.3-8.8c-5.9-5.9-8.8-13-8.8-21.3V82.8c0-8.3,2.9-15.4,8.8-21.3
		c5.9-5.9,13-8.8,21.3-8.8h180.5l101.4,101.3v263.3c0,8.3-2.9,15.4-8.8,21.3c-5.9,5.9-13,8.8-21.3,8.8L124.6,447.3z M293.7,164.3V76
		H124.6c-1.7,0-3.3,0.7-4.7,2.1c-1.4,1.4-2.1,2.9-2.1,4.7v334.4c0,1.7,0.7,3.3,2.1,4.7c1.4,1.4,2.9,2.1,4.7,2.1h251.8
		c1.7,0,3.3-0.7,4.7-2.1c1.4-1.4,2.1-2.9,2.1-4.7V164.3H293.7z M117.8,76v88.3V76V424V76z"/>
	<g class="st1">
		<path class="st3" d="M142.7,394.2v-13.8h214.5v13.8H142.7z M142.7,332.3v-14.1h214.5v14.1H142.7z M142.7,270.1v-13.8h214.5v13.8
			H142.7z"/>
	</g>
	<polygon class="st5" points="218.3,111.4 173.2,120.2 152,161.1 154.9,226.8 216.6,226.5 252,187.1 253.4,141.1 	"/>
	<polygon class="st6" points="269.4,235.4 294.8,244.3 317.6,229.9 338.6,193.7 297.1,205 278.5,181.3 260.5,209.9 	"/>
</g>
</svg>
