<svg width="16" height="12" viewBox="0 0 16 12" fill="none" xmlns="http://www.w3.org/2000/svg">
<path d="M4.33361 11.1152C3.39438 11.1152 2.59656 10.787 1.94016 10.1306C1.28377 9.47422 0.955566 8.6764 0.955566 7.73716C0.955566 6.90466 1.22239 6.17355 1.75605 5.54383C2.28971 4.91412 2.96745 4.53522 3.78928 4.40714C4.00275 3.37185 4.50438 2.526 5.2942 1.86961C6.08401 1.21321 6.99656 0.88501 8.03186 0.88501C9.22725 0.88501 10.2359 1.31994 11.0577 2.1898C11.8795 3.05966 12.2904 4.10296 12.2904 5.3197V5.70393C13.0589 5.68258 13.71 5.93074 14.2436 6.44838C14.7773 6.96603 15.0441 7.61976 15.0441 8.40957C15.0441 9.14602 14.7773 9.78107 14.2436 10.3147C13.71 10.8484 13.0749 11.1152 12.3385 11.1152H4.33361Z" fill="#2F3237"/>
</svg>
